  0
SECTION
  2
HEADER
  9
$ACADVER
  1
AC1014
  9
$HANDSEED
  5
FFFF
  9
$INSUNITS
 70
     4
  9
$MEASUREMENT
 70
     1
  0
ENDSEC
  0
SECTION
  2
TABLES
  0
TABLE
  2
VPORT
  5
8
330
0
100
AcDbSymbolTable
 70
     4
  0
VPORT
  5
2E
330
8
100
AcDbSymbolTableRecord
100
AcDbViewportTableRecord
  2
*ACTIVE
 70
     0
 10
0.0
 20
0.0
 11
1.0
 21
1.0
 12
210.0
 22
148.5
 13
0.0
 23
0.0
 14
10.0
 24
10.0
 15
10.0
 25
10.0
 16
0.0
 26
0.0
 36
1.0
 17
0.0
 27
0.0
 37
0.0
 40
341.0
 41
1.24
 42
50.0
 43
0.0
 44
0.0
 50
0.0
 51
0.0
 71
     0
 72
   100
 73
     1
 74
     3
 75
     0
 76
     0
 77
     0
 78
     0
  0
ENDTAB
  0
TABLE
  2
LTYPE
  5
5
330
0
100
AcDbSymbolTable
 70
     1
  0
LTYPE
  5
14
330
5
100
AcDbSymbolTableRecord
100
AcDbLinetypeTableRecord
  2
BYBLOCK
 70
     0
  3

 72
    65
 73
     0
 40
0.0
  0
LTYPE
  5
15
330
5
100
AcDbSymbolTableRecord
100
AcDbLinetypeTableRecord
  2
BYLAYER
 70
     0
  3

 72
    65
 73
     0
 40
0.0
  0
LTYPE
  5
16
330
5
100
AcDbSymbolTableRecord
100
AcDbLinetypeTableRecord
  2
CONTINUOUS
 70
     0
  3
Solid line
 72
    65
 73
     0
 40
0.0
  0
ENDTAB
  0
TABLE
  2
LAYER
  5
2
100
AcDbSymbolTable
 70
2
  0
LAYER
  5
50
100
AcDbSymbolTableRecord
100
AcDbLayerTableRecord
  2
0
 70
0
  6
CONTINUOUS
  0
LAYER
  5
51
100
AcDbSymbolTableRecord
100
AcDbLayerTableRecord
  2
Layer_1
 70
0
  6
CONTINUOUS
  0
ENDTAB
  0
TABLE
  2
STYLE
  5
3
330
0
100
AcDbSymbolTable
 70
     1
  0
STYLE
  5
11
330
3
100
AcDbSymbolTableRecord
100
AcDbTextStyleTableRecord
  2
STANDARD
 70
     0
 40
0.0
 41
1.0
 50
0.0
 71
     0
 42
2.5
  3
txt
  4

  0
ENDTAB
  0
TABLE
  2
VIEW
  5
6
330
0
100
AcDbSymbolTable
 70
     0
  0
ENDTAB
  0
TABLE
  2
UCS
  5
7
330
0
100
AcDbSymbolTable
 70
     0
  0
ENDTAB
  0
TABLE
  2
APPID
  5
9
330
0
100
AcDbSymbolTable
 70
     2
  0
APPID
  5
12
330
9
100
AcDbSymbolTableRecord
100
AcDbRegAppTableRecord
  2
ACAD
 70
     0
  0
ENDTAB
  0
TABLE
  2
DIMSTYLE
  5
A
330
0
100
AcDbSymbolTable
 70
     1
  0
DIMSTYLE
105
27
330
A
100
AcDbSymbolTableRecord
100
AcDbDimStyleTableRecord
  2
ISO-25
 70
     0
  3

  4

  5

  6

  7

 40
1.0
 41
2.5
 42
0.625
 43
3.75
 44
1.25
 45
0.0
 46
0.0
 47
0.0
 48
0.0
140
2.5
141
2.5
142
0.0
143
0.03937007874016
144
1.0
145
0.0
146
1.0
147
0.625
 71
     0
 72
     0
 73
     0
 74
     0
 75
     0
 76
     0
 77
     1
 78
     8
170
     0
171
     3
172
     1
173
     0
174
     0
175
     0
176
     0
177
     0
178
     0
270
     2
271
     2
272
     2
273
     2
274
     3
340
11
275
     0
280
     0
281
     0
282
     0
283
     0
284
     8
285
     0
286
     0
287
     3
288
     0
  0
ENDTAB
  0
TABLE
  2
BLOCK_RECORD
  5
1
330
0
100
AcDbSymbolTable
 70
     1
  0
BLOCK_RECORD
  5
1F
330
1
100
AcDbSymbolTableRecord
100
AcDbBlockTableRecord
  2
*MODEL_SPACE
  0
BLOCK_RECORD
  5
1B
330
1
100
AcDbSymbolTableRecord
100
AcDbBlockTableRecord
  2
*PAPER_SPACE
  0
ENDTAB
  0
ENDSEC
  0
SECTION
  2
BLOCKS
  0
BLOCK
  5
20
330
1F
100
AcDbEntity
  8
0
100
AcDbBlockBegin
  2
*MODEL_SPACE
 70
     0
 10
0.0
 20
0.0
 30
0.0
  3
*MODEL_SPACE
  1

  0
ENDBLK
  5
21
330
1F
100
AcDbEntity
  8
0
100
AcDbBlockEnd
  0
BLOCK
  5
1C
330
1B
100
AcDbEntity
 67
     1
  8
0
100
AcDbBlockBegin
  2
*PAPER_SPACE
  1

  0
ENDBLK
  5
1D
330
1B
100
AcDbEntity
 67
     1
  8
0
100
AcDbBlockEnd
  0
ENDSEC
  0
SECTION
  2
ENTITIES
  0
SPLINE
  5
100
100
AcDbEntity
  8
Layer_1
 62
6
100
AcDbSpline
 70
8
 71
3
 72
8
 73
4
 74
0
 40
0
 40
0
 40
0
 40
0
 40
1
 40
1
 40
1
 40
1
 10
36.885648
 20
114.584840
 30
0.0
 10
36.057215
 20
114.584840
 30
0.0
 10
35.385638
 20
115.256417
 30
0.0
 10
35.385637
 20
116.084850
 30
0.0
  0
SPLINE
  5
101
100
AcDbEntity
  8
Layer_1
 62
6
100
AcDbSpline
 70
8
 71
3
 72
8
 73
4
 74
0
 40
0
 40
0
 40
0
 40
0
 40
1
 40
1
 40
1
 40
1
 10
35.385637
 20
116.084850
 30
0.0
 10
35.385637
 20
116.691548
 30
0.0
 10
35.751102
 20
117.238507
 30
0.0
 10
36.311618
 20
117.470680
 30
0.0
  0
SPLINE
  5
102
100
AcDbEntity
  8
Layer_1
 62
6
100
AcDbSpline
 70
8
 71
3
 72
8
 73
4
 74
0
 40
0
 40
0
 40
0
 40
0
 40
1
 40
1
 40
1
 40
1
 10
36.311618
 20
117.470680
 30
0.0
 10
36.872134
 20
117.702854
 30
0.0
 10
37.517315
 20
117.574520
 30
0.0
 10
37.946316
 20
117.145519
 30
0.0
  0
SPLINE
  5
103
100
AcDbEntity
  8
Layer_1
 62
6
100
AcDbSpline
 70
8
 71
3
 72
8
 73
4
 74
0
 40
0
 40
0
 40
0
 40
0
 40
1
 40
1
 40
1
 40
1
 10
37.946316
 20
117.145519
 30
0.0
 10
38.375316
 20
116.716519
 30
0.0
 10
38.503651
 20
116.071338
 30
0.0
 10
38.271478
 20
115.510822
 30
0.0
  0
SPLINE
  5
104
100
AcDbEntity
  8
Layer_1
 62
6
100
AcDbSpline
 70
8
 71
3
 72
8
 73
4
 74
0
 40
0
 40
0
 40
0
 40
0
 40
1
 40
1
 40
1
 40
1
 10
38.271478
 20
115.510822
 30
0.0
 10
38.039305
 20
114.950306
 30
0.0
 10
37.492346
 20
114.584840
 30
0.0
 10
36.885648
 20
114.584840
 30
0.0
  0
LINE
  5
105
100
AcDbEntity
  8
Layer_1
 62
6
100
AcDbLine
 10
36.885648
 20
114.584840
 30
0.0
 11
36.885648
 21
114.584840
 31
0.0
  0
SPLINE
  5
106
100
AcDbEntity
  8
Layer_1
 62
6
100
AcDbSpline
 70
8
 71
3
 72
8
 73
4
 74
0
 40
0
 40
0
 40
0
 40
0
 40
1
 40
1
 40
1
 40
1
 10
167.544620
 20
117.275550
 30
0.0
 10
166.716215
 20
117.275573
 30
0.0
 10
166.044667
 20
117.947125
 30
0.0
 10
166.044650
 20
118.775530
 30
0.0
  0
SPLINE
  5
107
100
AcDbEntity
  8
Layer_1
 62
6
100
AcDbSpline
 70
8
 71
3
 72
8
 73
4
 74
0
 40
0
 40
0
 40
0
 40
0
 40
1
 40
1
 40
1
 40
1
 10
166.044650
 20
118.775530
 30
0.0
 10
166.044637
 20
119.382234
 30
0.0
 10
166.410100
 20
119.929205
 30
0.0
 10
166.970620
 20
120.161386
 30
0.0
  0
SPLINE
  5
108
100
AcDbEntity
  8
Layer_1
 62
6
100
AcDbSpline
 70
8
 71
3
 72
8
 73
4
 74
0
 40
0
 40
0
 40
0
 40
0
 40
1
 40
1
 40
1
 40
1
 10
166.970620
 20
120.161386
 30
0.0
 10
167.531139
 20
120.393566
 30
0.0
 10
168.176329
 20
120.265232
 30
0.0
 10
168.605333
 20
119.836226
 30
0.0
  0
SPLINE
  5
109
100
AcDbEntity
  8
Layer_1
 62
6
100
AcDbSpline
 70
8
 71
3
 72
8
 73
4
 74
0
 40
0
 40
0
 40
0
 40
0
 40
1
 40
1
 40
1
 40
1
 10
168.605333
 20
119.836226
 30
0.0
 10
169.034336
 20
119.407219
 30
0.0
 10
169.162666
 20
118.762029
 30
0.0
 10
168.930482
 20
118.201510
 30
0.0
  0
SPLINE
  5
10a
100
AcDbEntity
  8
Layer_1
 62
6
100
AcDbSpline
 70
8
 71
3
 72
8
 73
4
 74
0
 40
0
 40
0
 40
0
 40
0
 40
1
 40
1
 40
1
 40
1
 10
168.930482
 20
118.201510
 30
0.0
 10
168.698297
 20
117.640992
 30
0.0
 10
168.151324
 20
117.275533
 30
0.0
 10
167.544620
 20
117.275550
 30
0.0
  0
LINE
  5
10b
100
AcDbEntity
  8
Layer_1
 62
6
100
AcDbLine
 10
167.544620
 20
117.275550
 30
0.0
 11
167.544620
 21
117.275550
 31
0.0
  0
SPLINE
  5
10c
100
AcDbEntity
  8
Layer_1
 62
6
100
AcDbSpline
 70
8
 71
3
 72
8
 73
4
 74
0
 40
0
 40
0
 40
0
 40
0
 40
1
 40
1
 40
1
 40
1
 10
38.702454
 20
174.569130
 30
0.0
 10
37.874021
 20
174.569130
 30
0.0
 10
37.202443
 20
175.240707
 30
0.0
 10
37.202442
 20
176.069140
 30
0.0
  0
SPLINE
  5
10d
100
AcDbEntity
  8
Layer_1
 62
6
100
AcDbSpline
 70
8
 71
3
 72
8
 73
4
 74
0
 40
0
 40
0
 40
0
 40
0
 40
1
 40
1
 40
1
 40
1
 10
37.202442
 20
176.069140
 30
0.0
 10
37.202442
 20
176.675838
 30
0.0
 10
37.567907
 20
177.222797
 30
0.0
 10
38.128423
 20
177.454970
 30
0.0
  0
SPLINE
  5
10e
100
AcDbEntity
  8
Layer_1
 62
6
100
AcDbSpline
 70
8
 71
3
 72
8
 73
4
 74
0
 40
0
 40
0
 40
0
 40
0
 40
1
 40
1
 40
1
 40
1
 10
38.128423
 20
177.454970
 30
0.0
 10
38.688938
 20
177.687144
 30
0.0
 10
39.334120
 20
177.558810
 30
0.0
 10
39.763120
 20
177.129810
 30
0.0
  0
SPLINE
  5
10f
100
AcDbEntity
  8
Layer_1
 62
6
100
AcDbSpline
 70
8
 71
3
 72
8
 73
4
 74
0
 40
0
 40
0
 40
0
 40
0
 40
1
 40
1
 40
1
 40
1
 10
39.763120
 20
177.129810
 30
0.0
 10
40.192121
 20
176.700810
 30
0.0
 10
40.320456
 20
176.055628
 30
0.0
 10
40.088283
 20
175.495113
 30
0.0
  0
SPLINE
  5
110
100
AcDbEntity
  8
Layer_1
 62
6
100
AcDbSpline
 70
8
 71
3
 72
8
 73
4
 74
0
 40
0
 40
0
 40
0
 40
0
 40
1
 40
1
 40
1
 40
1
 10
40.088283
 20
175.495113
 30
0.0
 10
39.856110
 20
174.934597
 30
0.0
 10
39.309152
 20
174.569130
 30
0.0
 10
38.702454
 20
174.569130
 30
0.0
  0
LINE
  5
111
100
AcDbEntity
  8
Layer_1
 62
6
100
AcDbLine
 10
38.702454
 20
174.569130
 30
0.0
 11
38.702454
 21
174.569130
 31
0.0
  0
LINE
  5
112
100
AcDbEntity
  8
Layer_1
 62
4
100
AcDbLine
 10
169.138230
 20
102.022960
 30
0.0
 11
167.389650
 21
100.274340
 31
0.0
  0
LINE
  5
113
100
AcDbEntity
  8
Layer_1
 62
4
100
AcDbLine
 10
167.389650
 20
100.274340
 30
0.0
 11
42.177350
 21
100.274340
 31
0.0
  0
LINE
  5
114
100
AcDbEntity
  8
Layer_1
 62
4
100
AcDbLine
 10
42.177350
 20
100.274340
 30
0.0
 11
36.885648
 21
105.566150
 31
0.0
  0
LINE
  5
115
100
AcDbEntity
  8
Layer_1
 62
4
100
AcDbLine
 10
36.885648
 20
105.566150
 30
0.0
 11
36.885648
 21
112.334830
 31
0.0
  0
SPLINE
  5
116
100
AcDbEntity
  8
Layer_1
 62
4
100
AcDbSpline
 70
8
 71
3
 72
8
 73
4
 74
0
 40
0
 40
0
 40
0
 40
0
 40
1
 40
1
 40
1
 40
1
 10
36.885648
 20
112.334830
 30
0.0
 10
34.814525
 20
112.334830
 30
0.0
 10
33.135620
 20
114.013730
 30
0.0
 10
33.135620
 20
116.084850
 30
0.0
  0
SPLINE
  5
117
100
AcDbEntity
  8
Layer_1
 62
4
100
AcDbSpline
 70
8
 71
3
 72
8
 73
4
 74
0
 40
0
 40
0
 40
0
 40
0
 40
1
 40
1
 40
1
 40
1
 10
33.135620
 20
116.084850
 30
0.0
 10
33.135620
 20
118.155940
 30
0.0
 10
34.814525
 20
119.834850
 30
0.0
 10
36.885648
 20
119.834850
 30
0.0
  0
LINE
  5
118
100
AcDbEntity
  8
Layer_1
 62
4
100
AcDbLine
 10
36.885648
 20
119.834850
 30
0.0
 11
36.885648
 21
172.787850
 31
0.0
  0
SPLINE
  5
119
100
AcDbEntity
  8
Layer_1
 62
4
100
AcDbSpline
 70
8
 71
3
 72
8
 73
4
 74
0
 40
0
 40
0
 40
0
 40
0
 40
1
 40
1
 40
1
 40
1
 10
36.885648
 20
172.787850
 30
0.0
 10
35.732735
 20
173.427440
 30
0.0
 10
34.952426
 20
174.657260
 30
0.0
 10
34.952426
 20
176.069140
 30
0.0
  0
SPLINE
  5
11a
100
AcDbEntity
  8
Layer_1
 62
4
100
AcDbSpline
 70
8
 71
3
 72
8
 73
4
 74
0
 40
0
 40
0
 40
0
 40
0
 40
1
 40
1
 40
1
 40
1
 10
34.952426
 20
176.069140
 30
0.0
 10
34.952426
 20
178.140230
 30
0.0
 10
36.631331
 20
179.819130
 30
0.0
 10
38.702454
 20
179.819130
 30
0.0
  0
SPLINE
  5
11b
100
AcDbEntity
  8
Layer_1
 62
4
100
AcDbSpline
 70
8
 71
3
 72
8
 73
4
 74
0
 40
0
 40
0
 40
0
 40
0
 40
1
 40
1
 40
1
 40
1
 10
38.702454
 20
179.819130
 30
0.0
 10
40.114341
 20
179.819130
 30
0.0
 10
41.344124
 20
179.038830
 30
0.0
 10
41.983746
 20
177.885950
 30
0.0
  0
LINE
  5
11c
100
AcDbEntity
  8
Layer_1
 62
4
100
AcDbLine
 10
41.983746
 20
177.885950
 30
0.0
 11
159.638520
 21
177.885950
 31
0.0
  0
LINE
  5
11d
100
AcDbEntity
  8
Layer_1
 62
4
100
AcDbLine
 10
159.638520
 20
177.885950
 30
0.0
 11
162.109340
 21
175.415130
 31
0.0
  0
LINE
  5
11e
100
AcDbEntity
  8
Layer_1
 62
4
100
AcDbLine
 10
162.109340
 20
175.415130
 30
0.0
 11
162.109340
 21
157.918660
 31
0.0
  0
LINE
  5
11f
100
AcDbEntity
  8
Layer_1
 62
4
100
AcDbLine
 10
162.109340
 20
157.918660
 30
0.0
 11
161.569350
 21
157.378620
 31
0.0
  0
LINE
  5
120
100
AcDbEntity
  8
Layer_1
 62
4
100
AcDbLine
 10
161.569350
 20
157.378620
 30
0.0
 11
141.665550
 21
157.378620
 31
0.0
  0
LINE
  5
121
100
AcDbEntity
  8
Layer_1
 62
4
100
AcDbLine
 10
141.665550
 20
157.378620
 30
0.0
 11
140.954740
 21
156.667850
 31
0.0
  0
LINE
  5
122
100
AcDbEntity
  8
Layer_1
 62
4
100
AcDbLine
 10
140.954740
 20
156.667850
 30
0.0
 11
140.954740
 21
142.658440
 31
0.0
  0
LINE
  5
123
100
AcDbEntity
  8
Layer_1
 62
4
100
AcDbLine
 10
140.954740
 20
142.658440
 30
0.0
 11
141.603040
 21
142.010140
 31
0.0
  0
LINE
  5
124
100
AcDbEntity
  8
Layer_1
 62
4
100
AcDbLine
 10
141.603040
 20
142.010140
 30
0.0
 11
162.656320
 21
142.010140
 31
0.0
  0
LINE
  5
125
100
AcDbEntity
  8
Layer_1
 62
4
100
AcDbLine
 10
162.656320
 20
142.010140
 30
0.0
 11
169.044640
 21
135.621720
 31
0.0
  0
LINE
  5
126
100
AcDbEntity
  8
Layer_1
 62
4
100
AcDbLine
 10
169.044640
 20
135.621720
 30
0.0
 11
169.044640
 21
122.213520
 31
0.0
  0
SPLINE
  5
127
100
AcDbEntity
  8
Layer_1
 62
4
100
AcDbSpline
 70
8
 71
3
 72
8
 73
4
 74
0
 40
0
 40
0
 40
0
 40
0
 40
1
 40
1
 40
1
 40
1
 10
169.044640
 20
122.213520
 30
0.0
 10
170.368930
 20
121.634830
 30
0.0
 10
171.294650
 20
120.313360
 30
0.0
 10
171.294650
 20
118.775530
 30
0.0
  0
SPLINE
  5
128
100
AcDbEntity
  8
Layer_1
 62
4
100
AcDbSpline
 70
8
 71
3
 72
8
 73
4
 74
0
 40
0
 40
0
 40
0
 40
0
 40
1
 40
1
 40
1
 40
1
 10
171.294650
 20
118.775530
 30
0.0
 10
171.294650
 20
117.237730
 30
0.0
 10
170.368930
 20
115.916230
 30
0.0
 10
169.044640
 20
115.337530
 30
0.0
  0
LINE
  5
129
100
AcDbEntity
  8
Layer_1
 62
4
100
AcDbLine
 10
169.044640
 20
115.337530
 30
0.0
 11
169.044640
 21
101.929330
 31
0.0
  0
SPLINE
  5
12a
100
AcDbEntity
  8
Layer_1
 62
6
100
AcDbSpline
 70
8
 71
3
 72
8
 73
4
 74
0
 40
0
 40
0
 40
0
 40
0
 40
1
 40
1
 40
1
 40
1
 10
80.201538
 20
134.151630
 30
0.0
 10
79.373105
 20
134.151630
 30
0.0
 10
78.701528
 20
134.823207
 30
0.0
 10
78.701527
 20
135.651640
 30
0.0
  0
SPLINE
  5
12b
100
AcDbEntity
  8
Layer_1
 62
6
100
AcDbSpline
 70
8
 71
3
 72
8
 73
4
 74
0
 40
0
 40
0
 40
0
 40
0
 40
1
 40
1
 40
1
 40
1
 10
78.701527
 20
135.651640
 30
0.0
 10
78.701527
 20
136.258338
 30
0.0
 10
79.066992
 20
136.805297
 30
0.0
 10
79.627508
 20
137.037470
 30
0.0
  0
SPLINE
  5
12c
100
AcDbEntity
  8
Layer_1
 62
6
100
AcDbSpline
 70
8
 71
3
 72
8
 73
4
 74
0
 40
0
 40
0
 40
0
 40
0
 40
1
 40
1
 40
1
 40
1
 10
79.627508
 20
137.037470
 30
0.0
 10
80.188024
 20
137.269644
 30
0.0
 10
80.833205
 20
137.141310
 30
0.0
 10
81.262206
 20
136.712309
 30
0.0
  0
SPLINE
  5
12d
100
AcDbEntity
  8
Layer_1
 62
6
100
AcDbSpline
 70
8
 71
3
 72
8
 73
4
 74
0
 40
0
 40
0
 40
0
 40
0
 40
1
 40
1
 40
1
 40
1
 10
81.262206
 20
136.712309
 30
0.0
 10
81.691206
 20
136.283309
 30
0.0
 10
81.819541
 20
135.638128
 30
0.0
 10
81.587368
 20
135.077612
 30
0.0
  0
SPLINE
  5
12e
100
AcDbEntity
  8
Layer_1
 62
6
100
AcDbSpline
 70
8
 71
3
 72
8
 73
4
 74
0
 40
0
 40
0
 40
0
 40
0
 40
1
 40
1
 40
1
 40
1
 10
81.587368
 20
135.077612
 30
0.0
 10
81.355195
 20
134.517096
 30
0.0
 10
80.808236
 20
134.151630
 30
0.0
 10
80.201538
 20
134.151630
 30
0.0
  0
LINE
  5
12f
100
AcDbEntity
  8
Layer_1
 62
6
100
AcDbLine
 10
80.201538
 20
134.151630
 30
0.0
 11
80.201538
 21
134.151630
 31
0.0
  0
SPLINE
  5
130
100
AcDbEntity
  8
Layer_1
 62
6
100
AcDbSpline
 70
8
 71
3
 72
8
 73
4
 74
0
 40
0
 40
0
 40
0
 40
0
 40
1
 40
1
 40
1
 40
1
 10
104.038450
 20
168.175250
 30
0.0
 10
103.210018
 20
168.175251
 30
0.0
 10
102.538441
 20
168.846828
 30
0.0
 10
102.538440
 20
169.675260
 30
0.0
  0
SPLINE
  5
131
100
AcDbEntity
  8
Layer_1
 62
6
100
AcDbSpline
 70
8
 71
3
 72
8
 73
4
 74
0
 40
0
 40
0
 40
0
 40
0
 40
1
 40
1
 40
1
 40
1
 10
102.538440
 20
169.675260
 30
0.0
 10
102.538440
 20
170.281958
 30
0.0
 10
102.903905
 20
170.828917
 30
0.0
 10
103.464421
 20
171.061090
 30
0.0
  0
SPLINE
  5
132
100
AcDbEntity
  8
Layer_1
 62
6
100
AcDbSpline
 70
8
 71
3
 72
8
 73
4
 74
0
 40
0
 40
0
 40
0
 40
0
 40
1
 40
1
 40
1
 40
1
 10
103.464421
 20
171.061090
 30
0.0
 10
104.024937
 20
171.293264
 30
0.0
 10
104.670119
 20
171.164929
 30
0.0
 10
105.099119
 20
170.735929
 30
0.0
  0
SPLINE
  5
133
100
AcDbEntity
  8
Layer_1
 62
6
100
AcDbSpline
 70
8
 71
3
 72
8
 73
4
 74
0
 40
0
 40
0
 40
0
 40
0
 40
1
 40
1
 40
1
 40
1
 10
105.099119
 20
170.735929
 30
0.0
 10
105.528119
 20
170.306929
 30
0.0
 10
105.656454
 20
169.661747
 30
0.0
 10
105.424280
 20
169.101231
 30
0.0
  0
SPLINE
  5
134
100
AcDbEntity
  8
Layer_1
 62
6
100
AcDbSpline
 70
8
 71
3
 72
8
 73
4
 74
0
 40
0
 40
0
 40
0
 40
0
 40
1
 40
1
 40
1
 40
1
 10
105.424280
 20
169.101231
 30
0.0
 10
105.192107
 20
168.540715
 30
0.0
 10
104.645148
 20
168.175250
 30
0.0
 10
104.038450
 20
168.175250
 30
0.0
  0
LINE
  5
135
100
AcDbEntity
  8
Layer_1
 62
6
100
AcDbLine
 10
104.038450
 20
168.175250
 30
0.0
 11
104.038450
 21
168.175250
 31
0.0
  0
ENDSEC
  0
SECTION
  2
OBJECTS
  0
DICTIONARY
  5
C
330
0
100
AcDbDictionary
  3
ACAD_GROUP
350
D
  3
ACAD_MLINESTYLE
350
17
  0
DICTIONARY
  5
D
330
C
100
AcDbDictionary
  0
DICTIONARY
  5
1A
330
C
100
AcDbDictionary
  0
DICTIONARY
  5
17
330
C
100
AcDbDictionary
  3
STANDARD
350
18
  0
DICTIONARY
  5
19
330
C
100
AcDbDictionary
  0
ENDSEC
  0
EOF
