  0
SECTION
  2
HEADER
  9
$ACADVER
  1
AC1014
  9
$ACADMAINTVER
 70
     9
  9
$DWGCODEPAGE
  3
ANSI_1252
  9
$INSBASE
 10
4817.882394509999
 20
2240.034418184758
 30
0.0
  9
$EXTMIN
 10
3252.724403769955
 20
4290.761633529353
 30
0.0
  9
$EXTMAX
 10
4552.724403769955
 20
5190.761633529353
 30
0.0
  9
$LIMMIN
 10
0.0
 20
0.0
  9
$LIMMAX
 10
12.0
 20
9.0
  9
$ORTHOMODE
 70
     0
  9
$REGENMODE
 70
     1
  9
$FILLMODE
 70
     1
  9
$QTEXTMODE
 70
     0
  9
$MIRRTEXT
 70
     1
  9
$DRAGMODE
 70
     2
  9
$LTSCALE
 40
1.0
  9
$OSMODE
 70
    37
  9
$ATTMODE
 70
     1
  9
$TEXTSIZE
 40
0.2
  9
$TRACEWID
 40
0.05
  9
$TEXTSTYLE
  7
STANDARD
  9
$CLAYER
  8
DEFAULT
  9
$CELTYPE
  6
BYLAYER
  9
$CECOLOR
 62
   256
  9
$CELTSCALE
 40
1.0
  9
$DELOBJ
 70
     1
  9
$DISPSILH
 70
     0
  9
$DIMSCALE
 40
1.0
  9
$DIMASZ
 40
0.18
  9
$DIMEXO
 40
0.0625
  9
$DIMDLI
 40
0.38
  9
$DIMRND
 40
0.0
  9
$DIMDLE
 40
0.0
  9
$DIMEXE
 40
0.18
  9
$DIMTP
 40
0.0
  9
$DIMTM
 40
0.0
  9
$DIMTXT
 40
0.18
  9
$DIMCEN
 40
0.09
  9
$DIMTSZ
 40
0.0
  9
$DIMTOL
 70
     0
  9
$DIMLIM
 70
     0
  9
$DIMTIH
 70
     1
  9
$DIMTOH
 70
     1
  9
$DIMSE1
 70
     0
  9
$DIMSE2
 70
     0
  9
$DIMTAD
 70
     0
  9
$DIMZIN
 70
     0
  9
$DIMBLK
  1

  9
$DIMASO
 70
     1
  9
$DIMSHO
 70
     1
  9
$DIMPOST
  1

  9
$DIMAPOST
  1

  9
$DIMALT
 70
     0
  9
$DIMALTD
 70
     2
  9
$DIMALTF
 40
25.4
  9
$DIMLFAC
 40
1.0
  9
$DIMTOFL
 70
     0
  9
$DIMTVP
 40
0.0
  9
$DIMTIX
 70
     0
  9
$DIMSOXD
 70
     0
  9
$DIMSAH
 70
     0
  9
$DIMBLK1
  1

  9
$DIMBLK2
  1

  9
$DIMSTYLE
  2
STANDARD_ACAD
  9
$DIMCLRD
 70
     0
  9
$DIMCLRE
 70
     0
  9
$DIMCLRT
 70
     0
  9
$DIMTFAC
 40
1.0
  9
$DIMGAP
 40
0.09
  9
$DIMJUST
 70
     0
  9
$DIMSD1
 70
     0
  9
$DIMSD2
 70
     0
  9
$DIMTOLJ
 70
     1
  9
$DIMTZIN
 70
     0
  9
$DIMALTZ
 70
     0
  9
$DIMALTTZ
 70
     0
  9
$DIMFIT
 70
     5
  9
$DIMUPT
 70
     0
  9
$DIMUNIT
 70
     2
  9
$DIMDEC
 70
     4
  9
$DIMTDEC
 70
     4
  9
$DIMALTU
 70
     2
  9
$DIMALTTD
 70
     2
  9
$DIMTXSTY
  7
STANDARD
  9
$DIMAUNIT
 70
     0
  9
$LUNITS
 70
     2
  9
$LUPREC
 70
     3
  9
$SKETCHINC
 40
0.1
  9
$FILLETRAD
 40
0.0
  9
$AUNITS
 70
     0
  9
$AUPREC
 70
     0
  9
$MENU
  1
.
  9
$ELEVATION
 40
0.0
  9
$PELEVATION
 40
0.0
  9
$THICKNESS
 40
0.0
  9
$LIMCHECK
 70
     0
  9
$CHAMFERA
 40
0.0
  9
$CHAMFERB
 40
0.0
  9
$CHAMFERC
 40
0.0
  9
$CHAMFERD
 40
0.0
  9
$SKPOLY
 70
     0
  9
$TDCREATE
 40
2460081.757577246
  9
$TDUPDATE
 40
2460081.760917674
  9
$TDINDWG
 40
0.0000000116
  9
$TDUSRTIMER
 40
0.0000000116
  9
$USRTIMER
 70
     1
  9
$ANGBASE
 50
0.0
  9
$ANGDIR
 70
     0
  9
$PDMODE
 70
     0
  9
$PDSIZE
 40
0.0
  9
$PLINEWID
 40
0.0
  9
$COORDS
 70
     1
  9
$SPLFRAME
 70
     0
  9
$SPLINETYPE
 70
     6
  9
$SPLINESEGS
 70
     8
  9
$ATTDIA
 70
     0
  9
$ATTREQ
 70
     1
  9
$HANDLING
 70
     1
  9
$HANDSEED
  5
37E
  9
$SURFTAB1
 70
     6
  9
$SURFTAB2
 70
     6
  9
$SURFTYPE
 70
     6
  9
$SURFU
 70
     6
  9
$SURFV
 70
     6
  9
$UCSNAME
  2

  9
$UCSORG
 10
0.0
 20
0.0
 30
0.0
  9
$UCSXDIR
 10
1.0
 20
0.0
 30
0.0
  9
$UCSYDIR
 10
0.0
 20
1.0
 30
0.0
  9
$PUCSNAME
  2

  9
$PUCSORG
 10
0.0
 20
0.0
 30
0.0
  9
$PUCSXDIR
 10
1.0
 20
0.0
 30
0.0
  9
$PUCSYDIR
 10
0.0
 20
1.0
 30
0.0
  9
$USERI1
 70
     0
  9
$USERI2
 70
     0
  9
$USERI3
 70
     0
  9
$USERI4
 70
     0
  9
$USERI5
 70
     0
  9
$USERR1
 40
0.0
  9
$USERR2
 40
0.0
  9
$USERR3
 40
0.0
  9
$USERR4
 40
0.0
  9
$USERR5
 40
0.0
  9
$WORLDVIEW
 70
     1
  9
$SHADEDGE
 70
     3
  9
$SHADEDIF
 70
    70
  9
$TILEMODE
 70
     1
  9
$MAXACTVP
 70
    64
  9
$PINSBASE
 10
0.0
 20
0.0
 30
0.0
  9
$PLIMCHECK
 70
     0
  9
$PEXTMIN
 10
1.000000000000000E+20
 20
1.000000000000000E+20
 30
1.000000000000000E+20
  9
$PEXTMAX
 10
-1.000000000000000E+20
 20
-1.000000000000000E+20
 30
-1.000000000000000E+20
  9
$PLIMMIN
 10
0.0
 20
0.0
  9
$PLIMMAX
 10
12.0
 20
9.0
  9
$UNITMODE
 70
     0
  9
$VISRETAIN
 70
     1
  9
$PLINEGEN
 70
     0
  9
$PSLTSCALE
 70
     1
  9
$TREEDEPTH
 70
  3020
  9
$PICKSTYLE
 70
     1
  9
$CMLSTYLE
  2
STANDARD
  9
$CMLJUST
 70
     0
  9
$CMLSCALE
 40
1.0
  9
$PROXYGRAPHICS
 70
     1
  9
$MEASUREMENT
 70
     1
  0
ENDSEC
  0
SECTION
  2
CLASSES
  0
CLASS
  1
ACDBDICTIONARYWDFLT
  2
AcDbDictionaryWithDefault
  3
ObjectDBX Classes
 90
        0
280
     0
281
     0
  0
CLASS
  1
VISUALSTYLE
  2
AcDbVisualStyle
  3
ObjectDBX Classes
 90
     4095
280
     0
281
     0
  0
CLASS
  1
MATERIAL
  2
AcDbMaterial
  3
ObjectDBX Classes
 90
     1153
280
     0
281
     0
  0
CLASS
  1
SCALE
  2
AcDbScale
  3
ObjectDBX Classes
 90
     1153
280
     0
281
     0
  0
CLASS
  1
TABLESTYLE
  2
AcDbTableStyle
  3
ObjectDBX Classes
 90
     4095
280
     0
281
     0
  0
CLASS
  1
MLEADERSTYLE
  2
AcDbMLeaderStyle
  3
ACDB_MLEADERSTYLE_CLASS
 90
     4095
280
     0
281
     0
  0
CLASS
  1
SUN
  2
AcDbSun
  3
SCENEOE
 90
     1153
280
     0
281
     0
  0
CLASS
  1
DICTIONARYVAR
  2
AcDbDictionaryVar
  3
ObjectDBX Classes
 90
        0
280
     0
281
     0
  0
CLASS
  1
XRECORD
  2
AcDbXrecord
  3
ObjectDBX Classes
 90
        0
280
     0
281
     0
  0
CLASS
  1
LWPOLYLINE
  2
AcDbPolyline
  3
ObjectDBX Classes
 90
        0
280
     0
281
     1
  0
CLASS
  1
HATCH
  2
AcDbHatch
  3
ObjectDBX Classes
 90
        0
280
     0
281
     1
  0
CLASS
  1
ACDBPLACEHOLDER
  2
AcDbPlaceHolder
  3
ObjectDBX Classes
 90
        0
280
     0
281
     0
  0
CLASS
  1
LAYOUT
  2
AcDbLayout
  3
ObjectDBX Classes
 90
        0
280
     0
281
     0
  0
ENDSEC
  0
SECTION
  2
TABLES
  0
TABLE
  2
VPORT
  5
8
102
{ACAD_XDICTIONARY
360
373
102
}
330
0
100
AcDbSymbolTable
 70
     1
  0
VPORT
  5
29
330
8
100
AcDbSymbolTableRecord
100
AcDbViewportTableRecord
  2
*ACTIVE
 70
     0
 10
0.0
 20
0.0
 11
1.0
 21
1.0
 12
10.42990654205607
 22
4.5
 13
0.0
 23
0.0
 14
0.5
 24
0.5
 15
0.5
 25
0.5
 16
0.0
 26
0.0
 36
1.0
 17
0.0
 27
0.0
 37
0.0
 40
9.0
 41
1.972972972850329
 42
50.0
 43
0.0
 44
0.0
 50
0.0
 51
0.0
 71
     0
 72
   100
 73
     1
 74
     3
 75
     0
 76
     0
 77
     0
 78
     0
  0
ENDTAB
  0
TABLE
  2
LTYPE
  5
5
330
0
100
AcDbSymbolTable
 70
     1
  0
LTYPE
  5
14
330
5
100
AcDbSymbolTableRecord
100
AcDbLinetypeTableRecord
  2
BYBLOCK
 70
     0
  3

 72
    65
 73
     0
 40
0.0
  0
LTYPE
  5
15
330
5
100
AcDbSymbolTableRecord
100
AcDbLinetypeTableRecord
  2
BYLAYER
 70
     0
  3

 72
    65
 73
     0
 40
0.0
  0
LTYPE
  5
16
330
5
100
AcDbSymbolTableRecord
100
AcDbLinetypeTableRecord
  2
CONTINUOUS
 70
     0
  3
Solid line
 72
    65
 73
     0
 40
0.0
  0
ENDTAB
  0
TABLE
  2
LAYER
  5
2
330
0
100
AcDbSymbolTable
 70
     7
  0
LAYER
  5
10
330
2
100
AcDbSymbolTableRecord
100
AcDbLayerTableRecord
  2
0
 70
     0
 62
     7
  6
CONTINUOUS
  0
LAYER
  5
5F
330
2
100
AcDbSymbolTableRecord
100
AcDbLayerTableRecord
  2
DEFAULT
 70
     0
 62
    18
  6
CONTINUOUS
  0
LAYER
  5
B0
330
2
100
AcDbSymbolTableRecord
100
AcDbLayerTableRecord
  2
BOTTOM_OUTSIDECUTPATH
 70
     0
 62
    18
  6
CONTINUOUS
  0
LAYER
  5
187
330
2
100
AcDbSymbolTableRecord
100
AcDbLayerTableRecord
  2
LEFT_OUTSIDECUTPATH
 70
     0
 62
    18
  6
CONTINUOUS
  0
LAYER
  5
1E0
330
2
100
AcDbSymbolTableRecord
100
AcDbLayerTableRecord
  2
RIGHT_OUTSIDECUTPATH
 70
     0
 62
    18
  6
CONTINUOUS
  0
LAYER
  5
26C
330
2
100
AcDbSymbolTableRecord
100
AcDbLayerTableRecord
  2
FRONT_OUTSIDECUTPATH
 70
     0
 62
    18
  6
CONTINUOUS
  0
LAYER
  5
2DB
330
2
100
AcDbSymbolTableRecord
100
AcDbLayerTableRecord
  2
BACK_OUTSIDECUTPATH
 70
     0
 62
    18
  6
CONTINUOUS
  0
ENDTAB
  0
TABLE
  2
STYLE
  5
3
330
0
100
AcDbSymbolTable
 70
     1
  0
STYLE
  5
11
330
3
100
AcDbSymbolTableRecord
100
AcDbTextStyleTableRecord
  2
STANDARD
 70
     0
 40
0.0
 41
1.0
 50
0.0
 71
     0
 42
0.2
  3
txt
  4

  0
ENDTAB
  0
TABLE
  2
VIEW
  5
6
330
0
100
AcDbSymbolTable
 70
     0
  0
ENDTAB
  0
TABLE
  2
UCS
  5
7
330
0
100
AcDbSymbolTable
 70
     0
  0
ENDTAB
  0
TABLE
  2
APPID
  5
9
330
0
100
AcDbSymbolTable
 70
     3
  0
APPID
  5
12
330
9
100
AcDbSymbolTableRecord
100
AcDbRegAppTableRecord
  2
ACAD
 70
     0
  0
APPID
  5
5E
330
9
100
AcDbSymbolTableRecord
100
AcDbRegAppTableRecord
  2
RHINO
 70
     0
  0
APPID
  5
37D
330
9
100
AcDbSymbolTableRecord
100
AcDbRegAppTableRecord
  2
ACAD_MLEADERVER
 70
     0
  0
ENDTAB
  0
TABLE
  2
DIMSTYLE
  5
A
330
0
100
AcDbSymbolTable
 70
     1
  0
DIMSTYLE
105
27
330
A
100
AcDbSymbolTableRecord
100
AcDbDimStyleTableRecord
  2
STANDARD_ACAD
 70
     0
  3

  4

  5

  6

  7

 40
1.0
 41
0.18
 42
0.0625
 43
0.38
 44
0.18
 45
0.0
 46
0.0
 47
0.0
 48
0.0
140
0.18
141
0.09
142
0.0
143
25.4
144
1.0
145
0.0
146
1.0
147
0.09
 71
     0
 72
     0
 73
     1
 74
     1
 75
     0
 76
     0
 77
     0
 78
     0
170
     0
171
     2
172
     0
173
     0
174
     0
175
     0
176
     0
177
     0
178
     0
270
     2
271
     4
272
     4
273
     2
274
     2
340
11
275
     0
280
     0
281
     0
282
     0
283
     1
284
     0
285
     0
286
     0
287
     3
288
     0
  0
ENDTAB
  0
TABLE
  2
BLOCK_RECORD
  5
1
330
0
100
AcDbSymbolTable
 70
     0
  0
BLOCK_RECORD
  5
1F
330
1
100
AcDbSymbolTableRecord
100
AcDbBlockTableRecord
  2
*MODEL_SPACE
  0
BLOCK_RECORD
  5
1B
330
1
100
AcDbSymbolTableRecord
100
AcDbBlockTableRecord
  2
*PAPER_SPACE
  0
ENDTAB
  0
ENDSEC
  0
SECTION
  2
BLOCKS
  0
BLOCK
  5
20
330
1F
100
AcDbEntity
  8
0
100
AcDbBlockBegin
  2
*MODEL_SPACE
 70
     0
 10
0.0
 20
0.0
 30
0.0
  3
*MODEL_SPACE
  1

  0
ENDBLK
  5
21
330
1F
100
AcDbEntity
  8
0
100
AcDbBlockEnd
  0
BLOCK
  5
1C
330
1B
100
AcDbEntity
 67
     1
  8
0
100
AcDbBlockBegin
  2
*PAPER_SPACE
 70
     0
 10
0.0
 20
0.0
 30
0.0
  3
*PAPER_SPACE
  1

  0
ENDBLK
  5
1D
330
1B
100
AcDbEntity
 67
     1
  8
0
100
AcDbBlockEnd
  0
ENDSEC
  0
SECTION
  2
ENTITIES
  0
POLYLINE
  5
60
330
1F
100
AcDbEntity
  8
DEFAULT
100
AcDb2dPolyline
 66
     1
 10
0.0
 20
0.0
 30
0.0
 70
     1
  0
VERTEX
  5
61
330
60
100
AcDbEntity
  8
DEFAULT
100
AcDbVertex
100
AcDb2dVertex
 10
4437.202904678411
 20
4758.155729479009
 30
0.0
  0
VERTEX
  5
62
330
60
100
AcDbEntity
  8
DEFAULT
100
AcDbVertex
100
AcDb2dVertex
 10
4437.202904678411
 20
4792.155729479009
 30
0.0
  0
VERTEX
  5
63
330
60
100
AcDbEntity
  8
DEFAULT
100
AcDbVertex
100
AcDb2dVertex
 10
4428.702904678411
 20
4792.155729479009
 30
0.0
  0
VERTEX
  5
64
330
60
100
AcDbEntity
  8
DEFAULT
100
AcDbVertex
100
AcDb2dVertex
 10
4428.702904678411
 20
4774.655729479009
 30
0.0
  0
VERTEX
  5
65
330
60
100
AcDbEntity
  8
DEFAULT
100
AcDbVertex
100
AcDb2dVertex
 10
4425.702904678411
 20
4774.655729479009
 30
0.0
  0
VERTEX
  5
66
330
60
100
AcDbEntity
  8
DEFAULT
100
AcDbVertex
100
AcDb2dVertex
 10
4425.702904678411
 20
4792.155729479009
 30
0.0
  0
VERTEX
  5
67
330
60
100
AcDbEntity
  8
DEFAULT
100
AcDbVertex
100
AcDb2dVertex
 10
4417.202904678411
 20
4792.155729479009
 30
0.0
  0
VERTEX
  5
68
330
60
100
AcDbEntity
  8
DEFAULT
100
AcDbVertex
100
AcDb2dVertex
 10
4417.202904678411
 20
4758.155729479009
 30
0.0
  0
SEQEND
  5
69
330
60
100
AcDbEntity
  8
DEFAULT
  0
POLYLINE
  5
6A
330
1F
100
AcDbEntity
  8
DEFAULT
100
AcDb2dPolyline
 66
     1
 10
0.0
 20
0.0
 30
0.0
 70
     1
  0
VERTEX
  5
6B
330
6A
100
AcDbEntity
  8
DEFAULT
100
AcDbVertex
100
AcDb2dVertex
 10
4457.713208104485
 20
4758.155729479009
 30
0.0
  0
VERTEX
  5
6C
330
6A
100
AcDbEntity
  8
DEFAULT
100
AcDbVertex
100
AcDb2dVertex
 10
4457.713208104485
 20
4792.155729479009
 30
0.0
  0
VERTEX
  5
6D
330
6A
100
AcDbEntity
  8
DEFAULT
100
AcDbVertex
100
AcDb2dVertex
 10
4449.213208104485
 20
4792.155729479009
 30
0.0
  0
VERTEX
  5
6E
330
6A
100
AcDbEntity
  8
DEFAULT
100
AcDbVertex
100
AcDb2dVertex
 10
4449.213208104485
 20
4774.655729479009
 30
0.0
  0
VERTEX
  5
6F
330
6A
100
AcDbEntity
  8
DEFAULT
100
AcDbVertex
100
AcDb2dVertex
 10
4446.213208104485
 20
4774.655729479009
 30
0.0
  0
VERTEX
  5
70
330
6A
100
AcDbEntity
  8
DEFAULT
100
AcDbVertex
100
AcDb2dVertex
 10
4446.213208104485
 20
4792.155729479009
 30
0.0
  0
VERTEX
  5
71
330
6A
100
AcDbEntity
  8
DEFAULT
100
AcDbVertex
100
AcDb2dVertex
 10
4437.713208104485
 20
4792.155729479009
 30
0.0
  0
VERTEX
  5
72
330
6A
100
AcDbEntity
  8
DEFAULT
100
AcDbVertex
100
AcDb2dVertex
 10
4437.713208104485
 20
4758.155729479009
 30
0.0
  0
SEQEND
  5
73
330
6A
100
AcDbEntity
  8
DEFAULT
  0
POLYLINE
  5
74
330
1F
100
AcDbEntity
  8
DEFAULT
100
AcDb2dPolyline
 66
     1
 10
0.0
 20
0.0
 30
0.0
 70
     1
  0
VERTEX
  5
75
330
74
100
AcDbEntity
  8
DEFAULT
100
AcDbVertex
100
AcDb2dVertex
 10
4457.713208104485
 20
4796.234361408243
 30
0.0
  0
VERTEX
  5
76
330
74
100
AcDbEntity
  8
DEFAULT
100
AcDbVertex
100
AcDb2dVertex
 10
4457.713208104485
 20
4830.234361408243
 30
0.0
  0
VERTEX
  5
77
330
74
100
AcDbEntity
  8
DEFAULT
100
AcDbVertex
100
AcDb2dVertex
 10
4449.213208104485
 20
4830.234361408243
 30
0.0
  0
VERTEX
  5
78
330
74
100
AcDbEntity
  8
DEFAULT
100
AcDbVertex
100
AcDb2dVertex
 10
4449.213208104485
 20
4812.734361408243
 30
0.0
  0
VERTEX
  5
79
330
74
100
AcDbEntity
  8
DEFAULT
100
AcDbVertex
100
AcDb2dVertex
 10
4446.213208104485
 20
4812.734361408243
 30
0.0
  0
VERTEX
  5
7A
330
74
100
AcDbEntity
  8
DEFAULT
100
AcDbVertex
100
AcDb2dVertex
 10
4446.213208104485
 20
4830.234361408243
 30
0.0
  0
VERTEX
  5
7B
330
74
100
AcDbEntity
  8
DEFAULT
100
AcDbVertex
100
AcDb2dVertex
 10
4437.713208104485
 20
4830.234361408243
 30
0.0
  0
VERTEX
  5
7C
330
74
100
AcDbEntity
  8
DEFAULT
100
AcDbVertex
100
AcDb2dVertex
 10
4437.713208104485
 20
4796.234361408243
 30
0.0
  0
SEQEND
  5
7D
330
74
100
AcDbEntity
  8
DEFAULT
  0
POLYLINE
  5
7E
330
1F
100
AcDbEntity
  8
DEFAULT
100
AcDb2dPolyline
 66
     1
 10
0.0
 20
0.0
 30
0.0
 70
     1
  0
VERTEX
  5
7F
330
7E
100
AcDbEntity
  8
DEFAULT
100
AcDbVertex
100
AcDb2dVertex
 10
4437.202904678411
 20
4796.234361408243
 30
0.0
  0
VERTEX
  5
80
330
7E
100
AcDbEntity
  8
DEFAULT
100
AcDbVertex
100
AcDb2dVertex
 10
4437.202904678411
 20
4830.234361408243
 30
0.0
  0
VERTEX
  5
81
330
7E
100
AcDbEntity
  8
DEFAULT
100
AcDbVertex
100
AcDb2dVertex
 10
4428.702904678411
 20
4830.234361408243
 30
0.0
  0
VERTEX
  5
82
330
7E
100
AcDbEntity
  8
DEFAULT
100
AcDbVertex
100
AcDb2dVertex
 10
4428.702904678411
 20
4812.734361408243
 30
0.0
  0
VERTEX
  5
83
330
7E
100
AcDbEntity
  8
DEFAULT
100
AcDbVertex
100
AcDb2dVertex
 10
4425.702904678411
 20
4812.734361408243
 30
0.0
  0
VERTEX
  5
84
330
7E
100
AcDbEntity
  8
DEFAULT
100
AcDbVertex
100
AcDb2dVertex
 10
4425.702904678411
 20
4830.234361408243
 30
0.0
  0
VERTEX
  5
85
330
7E
100
AcDbEntity
  8
DEFAULT
100
AcDbVertex
100
AcDb2dVertex
 10
4417.202904678411
 20
4830.234361408243
 30
0.0
  0
VERTEX
  5
86
330
7E
100
AcDbEntity
  8
DEFAULT
100
AcDbVertex
100
AcDb2dVertex
 10
4417.202904678411
 20
4796.234361408243
 30
0.0
  0
SEQEND
  5
87
330
7E
100
AcDbEntity
  8
DEFAULT
  0
POLYLINE
  5
88
330
1F
100
AcDbEntity
  8
DEFAULT
100
AcDb2dPolyline
 66
     1
 10
0.0
 20
0.0
 30
0.0
 70
     1
  0
VERTEX
  5
89
330
88
100
AcDbEntity
  8
DEFAULT
100
AcDbVertex
100
AcDb2dVertex
 10
4437.202904678411
 20
4720.077097549773
 30
0.0
  0
VERTEX
  5
8A
330
88
100
AcDbEntity
  8
DEFAULT
100
AcDbVertex
100
AcDb2dVertex
 10
4437.202904678411
 20
4754.077097549773
 30
0.0
  0
VERTEX
  5
8B
330
88
100
AcDbEntity
  8
DEFAULT
100
AcDbVertex
100
AcDb2dVertex
 10
4428.702904678411
 20
4754.077097549773
 30
0.0
  0
VERTEX
  5
8C
330
88
100
AcDbEntity
  8
DEFAULT
100
AcDbVertex
100
AcDb2dVertex
 10
4428.702904678411
 20
4736.577097549773
 30
0.0
  0
VERTEX
  5
8D
330
88
100
AcDbEntity
  8
DEFAULT
100
AcDbVertex
100
AcDb2dVertex
 10
4425.702904678411
 20
4736.577097549773
 30
0.0
  0
VERTEX
  5
8E
330
88
100
AcDbEntity
  8
DEFAULT
100
AcDbVertex
100
AcDb2dVertex
 10
4425.702904678411
 20
4754.077097549773
 30
0.0
  0
VERTEX
  5
8F
330
88
100
AcDbEntity
  8
DEFAULT
100
AcDbVertex
100
AcDb2dVertex
 10
4417.202904678411
 20
4754.077097549773
 30
0.0
  0
VERTEX
  5
90
330
88
100
AcDbEntity
  8
DEFAULT
100
AcDbVertex
100
AcDb2dVertex
 10
4417.202904678411
 20
4720.077097549773
 30
0.0
  0
SEQEND
  5
91
330
88
100
AcDbEntity
  8
DEFAULT
  0
POLYLINE
  5
92
330
1F
100
AcDbEntity
  8
DEFAULT
100
AcDb2dPolyline
 66
     1
 10
0.0
 20
0.0
 30
0.0
 70
     1
  0
VERTEX
  5
93
330
92
100
AcDbEntity
  8
DEFAULT
100
AcDbVertex
100
AcDb2dVertex
 10
4457.713208104485
 20
4720.077097549773
 30
0.0
  0
VERTEX
  5
94
330
92
100
AcDbEntity
  8
DEFAULT
100
AcDbVertex
100
AcDb2dVertex
 10
4457.713208104485
 20
4754.077097549773
 30
0.0
  0
VERTEX
  5
95
330
92
100
AcDbEntity
  8
DEFAULT
100
AcDbVertex
100
AcDb2dVertex
 10
4449.213208104485
 20
4754.077097549773
 30
0.0
  0
VERTEX
  5
96
330
92
100
AcDbEntity
  8
DEFAULT
100
AcDbVertex
100
AcDb2dVertex
 10
4449.213208104485
 20
4736.577097549773
 30
0.0
  0
VERTEX
  5
97
330
92
100
AcDbEntity
  8
DEFAULT
100
AcDbVertex
100
AcDb2dVertex
 10
4446.213208104485
 20
4736.577097549773
 30
0.0
  0
VERTEX
  5
98
330
92
100
AcDbEntity
  8
DEFAULT
100
AcDbVertex
100
AcDb2dVertex
 10
4446.213208104485
 20
4754.077097549773
 30
0.0
  0
VERTEX
  5
99
330
92
100
AcDbEntity
  8
DEFAULT
100
AcDbVertex
100
AcDb2dVertex
 10
4437.713208104485
 20
4754.077097549773
 30
0.0
  0
VERTEX
  5
9A
330
92
100
AcDbEntity
  8
DEFAULT
100
AcDbVertex
100
AcDb2dVertex
 10
4437.713208104485
 20
4720.077097549773
 30
0.0
  0
SEQEND
  5
9B
330
92
100
AcDbEntity
  8
DEFAULT
  0
POLYLINE
  5
9C
330
1F
100
AcDbEntity
  8
DEFAULT
100
AcDb2dPolyline
 66
     1
 10
0.0
 20
0.0
 30
0.0
 70
     1
  0
VERTEX
  5
9D
330
9C
100
AcDbEntity
  8
DEFAULT
100
AcDbVertex
100
AcDb2dVertex
 10
4457.713208104485
 20
4681.99846562054
 30
0.0
  0
VERTEX
  5
9E
330
9C
100
AcDbEntity
  8
DEFAULT
100
AcDbVertex
100
AcDb2dVertex
 10
4457.713208104485
 20
4715.99846562054
 30
0.0
  0
VERTEX
  5
9F
330
9C
100
AcDbEntity
  8
DEFAULT
100
AcDbVertex
100
AcDb2dVertex
 10
4449.213208104485
 20
4715.99846562054
 30
0.0
  0
VERTEX
  5
A0
330
9C
100
AcDbEntity
  8
DEFAULT
100
AcDbVertex
100
AcDb2dVertex
 10
4449.213208104485
 20
4698.49846562054
 30
0.0
  0
VERTEX
  5
A1
330
9C
100
AcDbEntity
  8
DEFAULT
100
AcDbVertex
100
AcDb2dVertex
 10
4446.213208104485
 20
4698.49846562054
 30
0.0
  0
VERTEX
  5
A2
330
9C
100
AcDbEntity
  8
DEFAULT
100
AcDbVertex
100
AcDb2dVertex
 10
4446.213208104485
 20
4715.99846562054
 30
0.0
  0
VERTEX
  5
A3
330
9C
100
AcDbEntity
  8
DEFAULT
100
AcDbVertex
100
AcDb2dVertex
 10
4437.713208104485
 20
4715.99846562054
 30
0.0
  0
VERTEX
  5
A4
330
9C
100
AcDbEntity
  8
DEFAULT
100
AcDbVertex
100
AcDb2dVertex
 10
4437.713208104485
 20
4681.99846562054
 30
0.0
  0
SEQEND
  5
A5
330
9C
100
AcDbEntity
  8
DEFAULT
  0
POLYLINE
  5
A6
330
1F
100
AcDbEntity
  8
DEFAULT
100
AcDb2dPolyline
 66
     1
 10
0.0
 20
0.0
 30
0.0
 70
     1
  0
VERTEX
  5
A7
330
A6
100
AcDbEntity
  8
DEFAULT
100
AcDbVertex
100
AcDb2dVertex
 10
4437.202904678411
 20
4681.99846562054
 30
0.0
  0
VERTEX
  5
A8
330
A6
100
AcDbEntity
  8
DEFAULT
100
AcDbVertex
100
AcDb2dVertex
 10
4437.202904678411
 20
4715.99846562054
 30
0.0
  0
VERTEX
  5
A9
330
A6
100
AcDbEntity
  8
DEFAULT
100
AcDbVertex
100
AcDb2dVertex
 10
4428.702904678411
 20
4715.99846562054
 30
0.0
  0
VERTEX
  5
AA
330
A6
100
AcDbEntity
  8
DEFAULT
100
AcDbVertex
100
AcDb2dVertex
 10
4428.702904678411
 20
4698.49846562054
 30
0.0
  0
VERTEX
  5
AB
330
A6
100
AcDbEntity
  8
DEFAULT
100
AcDbVertex
100
AcDb2dVertex
 10
4425.702904678411
 20
4698.49846562054
 30
0.0
  0
VERTEX
  5
AC
330
A6
100
AcDbEntity
  8
DEFAULT
100
AcDbVertex
100
AcDb2dVertex
 10
4425.702904678411
 20
4715.99846562054
 30
0.0
  0
VERTEX
  5
AD
330
A6
100
AcDbEntity
  8
DEFAULT
100
AcDbVertex
100
AcDb2dVertex
 10
4417.202904678411
 20
4715.99846562054
 30
0.0
  0
VERTEX
  5
AE
330
A6
100
AcDbEntity
  8
DEFAULT
100
AcDbVertex
100
AcDb2dVertex
 10
4417.202904678411
 20
4681.99846562054
 30
0.0
  0
SEQEND
  5
AF
330
A6
100
AcDbEntity
  8
DEFAULT
  0
LINE
  5
B1
330
1F
100
AcDbEntity
  8
BOTTOM_OUTSIDECUTPATH
100
AcDbLine
 10
3984.63323115285
 20
4951.963606223491
 30
0.0
 11
3984.63323115285
 21
4913.997956223491
 31
0.0
  0
LINE
  5
B2
330
1F
100
AcDbEntity
  8
BOTTOM_OUTSIDECUTPATH
100
AcDbLine
 10
3984.63323115285
 20
4913.997956223491
 30
0.0
 11
3981.63323115285
 21
4913.997956223491
 31
0.0
  0
LINE
  5
B3
330
1F
100
AcDbEntity
  8
BOTTOM_OUTSIDECUTPATH
100
AcDbLine
 10
3981.63323115285
 20
4913.997956223491
 30
0.0
 11
3981.63323115285
 21
4886.273856223492
 31
0.0
  0
LINE
  5
B4
330
1F
100
AcDbEntity
  8
BOTTOM_OUTSIDECUTPATH
100
AcDbLine
 10
3981.63323115285
 20
4886.273856223492
 30
0.0
 11
3984.63323115285
 21
4886.273856223492
 31
0.0
  0
LINE
  5
B5
330
1F
100
AcDbEntity
  8
BOTTOM_OUTSIDECUTPATH
100
AcDbLine
 10
3984.63323115285
 20
4886.273856223492
 30
0.0
 11
3984.63323115285
 21
4858.549756223491
 31
0.0
  0
LINE
  5
B6
330
1F
100
AcDbEntity
  8
BOTTOM_OUTSIDECUTPATH
100
AcDbLine
 10
3984.63323115285
 20
4858.549756223491
 30
0.0
 11
3981.63323115285
 21
4858.549756223491
 31
0.0
  0
LINE
  5
B7
330
1F
100
AcDbEntity
  8
BOTTOM_OUTSIDECUTPATH
100
AcDbLine
 10
3981.63323115285
 20
4858.549756223491
 30
0.0
 11
3981.63323115285
 21
4830.825656223491
 31
0.0
  0
LINE
  5
B8
330
1F
100
AcDbEntity
  8
BOTTOM_OUTSIDECUTPATH
100
AcDbLine
 10
3981.63323115285
 20
4830.825656223491
 30
0.0
 11
3984.63323115285
 21
4830.825656223491
 31
0.0
  0
LINE
  5
B9
330
1F
100
AcDbEntity
  8
BOTTOM_OUTSIDECUTPATH
100
AcDbLine
 10
3984.63323115285
 20
4830.825656223491
 30
0.0
 11
3984.63323115285
 21
4803.101556223492
 31
0.0
  0
LINE
  5
BA
330
1F
100
AcDbEntity
  8
BOTTOM_OUTSIDECUTPATH
100
AcDbLine
 10
3984.63323115285
 20
4803.101556223492
 30
0.0
 11
3981.63323115285
 21
4803.101556223492
 31
0.0
  0
LINE
  5
BB
330
1F
100
AcDbEntity
  8
BOTTOM_OUTSIDECUTPATH
100
AcDbLine
 10
3981.63323115285
 20
4803.101556223492
 30
0.0
 11
3981.63323115285
 21
4775.377456223491
 31
0.0
  0
LINE
  5
BC
330
1F
100
AcDbEntity
  8
BOTTOM_OUTSIDECUTPATH
100
AcDbLine
 10
3981.63323115285
 20
4775.377456223491
 30
0.0
 11
3984.63323115285
 21
4775.377456223491
 31
0.0
  0
LINE
  5
BD
330
1F
100
AcDbEntity
  8
BOTTOM_OUTSIDECUTPATH
100
AcDbLine
 10
3984.63323115285
 20
4775.377456223491
 30
0.0
 11
3984.63323115285
 21
4747.653356223491
 31
0.0
  0
LINE
  5
BE
330
1F
100
AcDbEntity
  8
BOTTOM_OUTSIDECUTPATH
100
AcDbLine
 10
3984.63323115285
 20
4747.653356223491
 30
0.0
 11
3981.63323115285
 21
4747.653356223491
 31
0.0
  0
LINE
  5
BF
330
1F
100
AcDbEntity
  8
BOTTOM_OUTSIDECUTPATH
100
AcDbLine
 10
3981.63323115285
 20
4747.653356223491
 30
0.0
 11
3981.63323115285
 21
4719.929256223491
 31
0.0
  0
LINE
  5
C0
330
1F
100
AcDbEntity
  8
BOTTOM_OUTSIDECUTPATH
100
AcDbLine
 10
3981.63323115285
 20
4719.929256223491
 30
0.0
 11
3984.63323115285
 21
4719.929256223491
 31
0.0
  0
LINE
  5
C1
330
1F
100
AcDbEntity
  8
BOTTOM_OUTSIDECUTPATH
100
AcDbLine
 10
3984.63323115285
 20
4719.929256223491
 30
0.0
 11
3984.63323115285
 21
4692.205156223492
 31
0.0
  0
LINE
  5
C2
330
1F
100
AcDbEntity
  8
BOTTOM_OUTSIDECUTPATH
100
AcDbLine
 10
3984.63323115285
 20
4692.205156223492
 30
0.0
 11
3984.63323115285
 21
4681.963606223491
 31
0.0
  0
LINE
  5
C3
330
1F
100
AcDbEntity
  8
BOTTOM_OUTSIDECUTPATH
100
AcDbLine
 10
3984.63323115285
 20
4681.963606223491
 30
0.0
 11
4014.42658115285
 21
4681.963606223491
 31
0.0
  0
LINE
  5
C4
330
1F
100
AcDbEntity
  8
BOTTOM_OUTSIDECUTPATH
100
AcDbLine
 10
4014.42658115285
 20
4681.963606223491
 30
0.0
 11
4014.42658115285
 21
4678.963606223491
 31
0.0
  0
LINE
  5
C5
330
1F
100
AcDbEntity
  8
BOTTOM_OUTSIDECUTPATH
100
AcDbLine
 10
4014.42658115285
 20
4678.963606223491
 30
0.0
 11
4042.15068115285
 21
4678.963606223491
 31
0.0
  0
LINE
  5
C6
330
1F
100
AcDbEntity
  8
BOTTOM_OUTSIDECUTPATH
100
AcDbLine
 10
4042.15068115285
 20
4678.963606223491
 30
0.0
 11
4042.15068115285
 21
4681.963606223491
 31
0.0
  0
LINE
  5
C7
330
1F
100
AcDbEntity
  8
BOTTOM_OUTSIDECUTPATH
100
AcDbLine
 10
4042.15068115285
 20
4681.963606223491
 30
0.0
 11
4069.87478115285
 21
4681.963606223491
 31
0.0
  0
LINE
  5
C8
330
1F
100
AcDbEntity
  8
BOTTOM_OUTSIDECUTPATH
100
AcDbLine
 10
4069.87478115285
 20
4681.963606223491
 30
0.0
 11
4069.87478115285
 21
4678.963606223491
 31
0.0
  0
LINE
  5
C9
330
1F
100
AcDbEntity
  8
BOTTOM_OUTSIDECUTPATH
100
AcDbLine
 10
4069.87478115285
 20
4678.963606223491
 30
0.0
 11
4097.59888115285
 21
4678.963606223491
 31
0.0
  0
LINE
  5
CA
330
1F
100
AcDbEntity
  8
BOTTOM_OUTSIDECUTPATH
100
AcDbLine
 10
4097.59888115285
 20
4678.963606223491
 30
0.0
 11
4097.59888115285
 21
4681.963606223491
 31
0.0
  0
LINE
  5
CB
330
1F
100
AcDbEntity
  8
BOTTOM_OUTSIDECUTPATH
100
AcDbLine
 10
4097.59888115285
 20
4681.963606223491
 30
0.0
 11
4125.32298115285
 21
4681.963606223491
 31
0.0
  0
LINE
  5
CC
330
1F
100
AcDbEntity
  8
BOTTOM_OUTSIDECUTPATH
100
AcDbLine
 10
4125.32298115285
 20
4681.963606223491
 30
0.0
 11
4125.32298115285
 21
4678.963606223491
 31
0.0
  0
LINE
  5
CD
330
1F
100
AcDbEntity
  8
BOTTOM_OUTSIDECUTPATH
100
AcDbLine
 10
4125.32298115285
 20
4678.963606223491
 30
0.0
 11
4153.04708115285
 21
4678.963606223491
 31
0.0
  0
LINE
  5
CE
330
1F
100
AcDbEntity
  8
BOTTOM_OUTSIDECUTPATH
100
AcDbLine
 10
4153.04708115285
 20
4678.963606223491
 30
0.0
 11
4153.04708115285
 21
4681.963606223491
 31
0.0
  0
LINE
  5
CF
330
1F
100
AcDbEntity
  8
BOTTOM_OUTSIDECUTPATH
100
AcDbLine
 10
4153.04708115285
 20
4681.963606223491
 30
0.0
 11
4180.77118115285
 21
4681.963606223491
 31
0.0
  0
LINE
  5
D0
330
1F
100
AcDbEntity
  8
BOTTOM_OUTSIDECUTPATH
100
AcDbLine
 10
4180.77118115285
 20
4681.963606223491
 30
0.0
 11
4180.77118115285
 21
4678.963606223491
 31
0.0
  0
LINE
  5
D1
330
1F
100
AcDbEntity
  8
BOTTOM_OUTSIDECUTPATH
100
AcDbLine
 10
4180.77118115285
 20
4678.963606223491
 30
0.0
 11
4208.49528115285
 21
4678.963606223491
 31
0.0
  0
LINE
  5
D2
330
1F
100
AcDbEntity
  8
BOTTOM_OUTSIDECUTPATH
100
AcDbLine
 10
4208.49528115285
 20
4678.963606223491
 30
0.0
 11
4208.49528115285
 21
4681.963606223491
 31
0.0
  0
LINE
  5
D3
330
1F
100
AcDbEntity
  8
BOTTOM_OUTSIDECUTPATH
100
AcDbLine
 10
4208.49528115285
 20
4681.963606223491
 30
0.0
 11
4236.21938115285
 21
4681.963606223491
 31
0.0
  0
LINE
  5
D4
330
1F
100
AcDbEntity
  8
BOTTOM_OUTSIDECUTPATH
100
AcDbLine
 10
4236.21938115285
 20
4681.963606223491
 30
0.0
 11
4236.21938115285
 21
4678.963606223491
 31
0.0
  0
LINE
  5
D5
330
1F
100
AcDbEntity
  8
BOTTOM_OUTSIDECUTPATH
100
AcDbLine
 10
4236.21938115285
 20
4678.963606223491
 30
0.0
 11
4263.94348115285
 21
4678.963606223491
 31
0.0
  0
LINE
  5
D6
330
1F
100
AcDbEntity
  8
BOTTOM_OUTSIDECUTPATH
100
AcDbLine
 10
4263.94348115285
 20
4678.963606223491
 30
0.0
 11
4263.94348115285
 21
4681.963606223491
 31
0.0
  0
LINE
  5
D7
330
1F
100
AcDbEntity
  8
BOTTOM_OUTSIDECUTPATH
100
AcDbLine
 10
4263.94348115285
 20
4681.963606223491
 30
0.0
 11
4291.667581152849
 21
4681.963606223491
 31
0.0
  0
LINE
  5
D8
330
1F
100
AcDbEntity
  8
BOTTOM_OUTSIDECUTPATH
100
AcDbLine
 10
4291.667581152849
 20
4681.963606223491
 30
0.0
 11
4291.667581152849
 21
4678.963606223491
 31
0.0
  0
LINE
  5
D9
330
1F
100
AcDbEntity
  8
BOTTOM_OUTSIDECUTPATH
100
AcDbLine
 10
4291.667581152849
 20
4678.963606223491
 30
0.0
 11
4319.39168115285
 21
4678.963606223491
 31
0.0
  0
LINE
  5
DA
330
1F
100
AcDbEntity
  8
BOTTOM_OUTSIDECUTPATH
100
AcDbLine
 10
4319.39168115285
 20
4678.963606223491
 30
0.0
 11
4319.39168115285
 21
4681.963606223491
 31
0.0
  0
LINE
  5
DB
330
1F
100
AcDbEntity
  8
BOTTOM_OUTSIDECUTPATH
100
AcDbLine
 10
4319.39168115285
 20
4681.963606223491
 30
0.0
 11
4347.11578115285
 21
4681.963606223491
 31
0.0
  0
LINE
  5
DC
330
1F
100
AcDbEntity
  8
BOTTOM_OUTSIDECUTPATH
100
AcDbLine
 10
4347.11578115285
 20
4681.963606223491
 30
0.0
 11
4347.11578115285
 21
4678.963606223491
 31
0.0
  0
LINE
  5
DD
330
1F
100
AcDbEntity
  8
BOTTOM_OUTSIDECUTPATH
100
AcDbLine
 10
4347.11578115285
 20
4678.963606223491
 30
0.0
 11
4374.83988115285
 21
4678.963606223491
 31
0.0
  0
LINE
  5
DE
330
1F
100
AcDbEntity
  8
BOTTOM_OUTSIDECUTPATH
100
AcDbLine
 10
4374.83988115285
 20
4678.963606223491
 30
0.0
 11
4374.83988115285
 21
4681.963606223491
 31
0.0
  0
LINE
  5
DF
330
1F
100
AcDbEntity
  8
BOTTOM_OUTSIDECUTPATH
100
AcDbLine
 10
4374.83988115285
 20
4681.963606223491
 30
0.0
 11
4404.633231152849
 21
4681.963606223491
 31
0.0
  0
LINE
  5
E0
330
1F
100
AcDbEntity
  8
BOTTOM_OUTSIDECUTPATH
100
AcDbLine
 10
4404.633231152849
 20
4681.963606223491
 30
0.0
 11
4404.633231152849
 21
4719.929256223491
 31
0.0
  0
LINE
  5
E1
330
1F
100
AcDbEntity
  8
BOTTOM_OUTSIDECUTPATH
100
AcDbLine
 10
4404.633231152849
 20
4719.929256223491
 30
0.0
 11
4407.633231152849
 21
4719.929256223491
 31
0.0
  0
LINE
  5
E2
330
1F
100
AcDbEntity
  8
BOTTOM_OUTSIDECUTPATH
100
AcDbLine
 10
4407.633231152849
 20
4719.929256223491
 30
0.0
 11
4407.633231152849
 21
4747.653356223491
 31
0.0
  0
LINE
  5
E3
330
1F
100
AcDbEntity
  8
BOTTOM_OUTSIDECUTPATH
100
AcDbLine
 10
4407.633231152849
 20
4747.653356223491
 30
0.0
 11
4404.633231152849
 21
4747.653356223491
 31
0.0
  0
LINE
  5
E4
330
1F
100
AcDbEntity
  8
BOTTOM_OUTSIDECUTPATH
100
AcDbLine
 10
4404.633231152849
 20
4747.653356223491
 30
0.0
 11
4404.633231152849
 21
4775.377456223491
 31
0.0
  0
LINE
  5
E5
330
1F
100
AcDbEntity
  8
BOTTOM_OUTSIDECUTPATH
100
AcDbLine
 10
4404.633231152849
 20
4775.377456223491
 30
0.0
 11
4407.633231152849
 21
4775.377456223491
 31
0.0
  0
LINE
  5
E6
330
1F
100
AcDbEntity
  8
BOTTOM_OUTSIDECUTPATH
100
AcDbLine
 10
4407.633231152849
 20
4775.377456223491
 30
0.0
 11
4407.633231152849
 21
4803.101556223492
 31
0.0
  0
LINE
  5
E7
330
1F
100
AcDbEntity
  8
BOTTOM_OUTSIDECUTPATH
100
AcDbLine
 10
4407.633231152849
 20
4803.101556223492
 30
0.0
 11
4404.633231152849
 21
4803.101556223492
 31
0.0
  0
LINE
  5
E8
330
1F
100
AcDbEntity
  8
BOTTOM_OUTSIDECUTPATH
100
AcDbLine
 10
4404.633231152849
 20
4803.101556223492
 30
0.0
 11
4404.633231152849
 21
4830.825656223491
 31
0.0
  0
LINE
  5
E9
330
1F
100
AcDbEntity
  8
BOTTOM_OUTSIDECUTPATH
100
AcDbLine
 10
4404.633231152849
 20
4830.825656223491
 30
0.0
 11
4407.633231152849
 21
4830.825656223491
 31
0.0
  0
LINE
  5
EA
330
1F
100
AcDbEntity
  8
BOTTOM_OUTSIDECUTPATH
100
AcDbLine
 10
4407.633231152849
 20
4830.825656223491
 30
0.0
 11
4407.633231152849
 21
4858.549756223491
 31
0.0
  0
LINE
  5
EB
330
1F
100
AcDbEntity
  8
BOTTOM_OUTSIDECUTPATH
100
AcDbLine
 10
4407.633231152849
 20
4858.549756223491
 30
0.0
 11
4404.633231152849
 21
4858.549756223491
 31
0.0
  0
LINE
  5
EC
330
1F
100
AcDbEntity
  8
BOTTOM_OUTSIDECUTPATH
100
AcDbLine
 10
4404.633231152849
 20
4858.549756223491
 30
0.0
 11
4404.633231152849
 21
4886.273856223492
 31
0.0
  0
LINE
  5
ED
330
1F
100
AcDbEntity
  8
BOTTOM_OUTSIDECUTPATH
100
AcDbLine
 10
4404.633231152849
 20
4886.273856223492
 30
0.0
 11
4407.633231152849
 21
4886.273856223492
 31
0.0
  0
LINE
  5
EE
330
1F
100
AcDbEntity
  8
BOTTOM_OUTSIDECUTPATH
100
AcDbLine
 10
4407.633231152849
 20
4886.273856223492
 30
0.0
 11
4407.633231152849
 21
4913.997956223491
 31
0.0
  0
LINE
  5
EF
330
1F
100
AcDbEntity
  8
BOTTOM_OUTSIDECUTPATH
100
AcDbLine
 10
4407.633231152849
 20
4913.997956223491
 30
0.0
 11
4404.633231152849
 21
4913.997956223491
 31
0.0
  0
LINE
  5
F0
330
1F
100
AcDbEntity
  8
BOTTOM_OUTSIDECUTPATH
100
AcDbLine
 10
4404.633231152849
 20
4913.997956223491
 30
0.0
 11
4404.633231152849
 21
4941.722056223492
 31
0.0
  0
LINE
  5
F1
330
1F
100
AcDbEntity
  8
BOTTOM_OUTSIDECUTPATH
100
AcDbLine
 10
4404.633231152849
 20
4941.722056223492
 30
0.0
 11
4404.633231152849
 21
4951.963606223491
 31
0.0
  0
LINE
  5
F2
330
1F
100
AcDbEntity
  8
BOTTOM_OUTSIDECUTPATH
100
AcDbLine
 10
4404.633231152849
 20
4951.963606223491
 30
0.0
 11
4374.83988115285
 21
4951.963606223491
 31
0.0
  0
LINE
  5
F3
330
1F
100
AcDbEntity
  8
BOTTOM_OUTSIDECUTPATH
100
AcDbLine
 10
4374.83988115285
 20
4951.963606223491
 30
0.0
 11
4374.83988115285
 21
4954.963606223491
 31
0.0
  0
LINE
  5
F4
330
1F
100
AcDbEntity
  8
BOTTOM_OUTSIDECUTPATH
100
AcDbLine
 10
4374.83988115285
 20
4954.963606223491
 30
0.0
 11
4347.11578115285
 21
4954.963606223491
 31
0.0
  0
LINE
  5
F5
330
1F
100
AcDbEntity
  8
BOTTOM_OUTSIDECUTPATH
100
AcDbLine
 10
4347.11578115285
 20
4954.963606223491
 30
0.0
 11
4347.11578115285
 21
4951.963606223491
 31
0.0
  0
LINE
  5
F6
330
1F
100
AcDbEntity
  8
BOTTOM_OUTSIDECUTPATH
100
AcDbLine
 10
4347.11578115285
 20
4951.963606223491
 30
0.0
 11
4319.39168115285
 21
4951.963606223491
 31
0.0
  0
LINE
  5
F7
330
1F
100
AcDbEntity
  8
BOTTOM_OUTSIDECUTPATH
100
AcDbLine
 10
4319.39168115285
 20
4951.963606223491
 30
0.0
 11
4319.39168115285
 21
4954.963606223491
 31
0.0
  0
LINE
  5
F8
330
1F
100
AcDbEntity
  8
BOTTOM_OUTSIDECUTPATH
100
AcDbLine
 10
4319.39168115285
 20
4954.963606223491
 30
0.0
 11
4291.667581152849
 21
4954.963606223491
 31
0.0
  0
LINE
  5
F9
330
1F
100
AcDbEntity
  8
BOTTOM_OUTSIDECUTPATH
100
AcDbLine
 10
4291.667581152849
 20
4954.963606223491
 30
0.0
 11
4291.667581152849
 21
4951.963606223491
 31
0.0
  0
LINE
  5
FA
330
1F
100
AcDbEntity
  8
BOTTOM_OUTSIDECUTPATH
100
AcDbLine
 10
4291.667581152849
 20
4951.963606223491
 30
0.0
 11
4263.94348115285
 21
4951.963606223491
 31
0.0
  0
LINE
  5
FB
330
1F
100
AcDbEntity
  8
BOTTOM_OUTSIDECUTPATH
100
AcDbLine
 10
4263.94348115285
 20
4951.963606223491
 30
0.0
 11
4263.94348115285
 21
4954.963606223491
 31
0.0
  0
LINE
  5
FC
330
1F
100
AcDbEntity
  8
BOTTOM_OUTSIDECUTPATH
100
AcDbLine
 10
4263.94348115285
 20
4954.963606223491
 30
0.0
 11
4236.21938115285
 21
4954.963606223491
 31
0.0
  0
LINE
  5
FD
330
1F
100
AcDbEntity
  8
BOTTOM_OUTSIDECUTPATH
100
AcDbLine
 10
4236.21938115285
 20
4954.963606223491
 30
0.0
 11
4236.21938115285
 21
4951.963606223491
 31
0.0
  0
LINE
  5
FE
330
1F
100
AcDbEntity
  8
BOTTOM_OUTSIDECUTPATH
100
AcDbLine
 10
4236.21938115285
 20
4951.963606223491
 30
0.0
 11
4208.49528115285
 21
4951.963606223491
 31
0.0
  0
LINE
  5
FF
330
1F
100
AcDbEntity
  8
BOTTOM_OUTSIDECUTPATH
100
AcDbLine
 10
4208.49528115285
 20
4951.963606223491
 30
0.0
 11
4208.49528115285
 21
4954.963606223491
 31
0.0
  0
LINE
  5
100
330
1F
100
AcDbEntity
  8
BOTTOM_OUTSIDECUTPATH
100
AcDbLine
 10
4208.49528115285
 20
4954.963606223491
 30
0.0
 11
4180.77118115285
 21
4954.963606223491
 31
0.0
  0
LINE
  5
101
330
1F
100
AcDbEntity
  8
BOTTOM_OUTSIDECUTPATH
100
AcDbLine
 10
4180.77118115285
 20
4954.963606223491
 30
0.0
 11
4180.77118115285
 21
4951.963606223491
 31
0.0
  0
LINE
  5
102
330
1F
100
AcDbEntity
  8
BOTTOM_OUTSIDECUTPATH
100
AcDbLine
 10
4180.77118115285
 20
4951.963606223491
 30
0.0
 11
4153.04708115285
 21
4951.963606223491
 31
0.0
  0
LINE
  5
103
330
1F
100
AcDbEntity
  8
BOTTOM_OUTSIDECUTPATH
100
AcDbLine
 10
4153.04708115285
 20
4951.963606223491
 30
0.0
 11
4153.04708115285
 21
4954.963606223491
 31
0.0
  0
LINE
  5
104
330
1F
100
AcDbEntity
  8
BOTTOM_OUTSIDECUTPATH
100
AcDbLine
 10
4153.04708115285
 20
4954.963606223491
 30
0.0
 11
4125.32298115285
 21
4954.963606223491
 31
0.0
  0
LINE
  5
105
330
1F
100
AcDbEntity
  8
BOTTOM_OUTSIDECUTPATH
100
AcDbLine
 10
4125.32298115285
 20
4954.963606223491
 30
0.0
 11
4125.32298115285
 21
4951.963606223491
 31
0.0
  0
LINE
  5
106
330
1F
100
AcDbEntity
  8
BOTTOM_OUTSIDECUTPATH
100
AcDbLine
 10
4125.32298115285
 20
4951.963606223491
 30
0.0
 11
4097.59888115285
 21
4951.963606223491
 31
0.0
  0
LINE
  5
107
330
1F
100
AcDbEntity
  8
BOTTOM_OUTSIDECUTPATH
100
AcDbLine
 10
4097.59888115285
 20
4951.963606223491
 30
0.0
 11
4097.59888115285
 21
4954.963606223491
 31
0.0
  0
LINE
  5
108
330
1F
100
AcDbEntity
  8
BOTTOM_OUTSIDECUTPATH
100
AcDbLine
 10
4097.59888115285
 20
4954.963606223491
 30
0.0
 11
4069.87478115285
 21
4954.963606223491
 31
0.0
  0
LINE
  5
109
330
1F
100
AcDbEntity
  8
BOTTOM_OUTSIDECUTPATH
100
AcDbLine
 10
4069.87478115285
 20
4954.963606223491
 30
0.0
 11
4069.87478115285
 21
4951.963606223491
 31
0.0
  0
LINE
  5
10A
330
1F
100
AcDbEntity
  8
BOTTOM_OUTSIDECUTPATH
100
AcDbLine
 10
4069.87478115285
 20
4951.963606223491
 30
0.0
 11
4042.15068115285
 21
4951.963606223491
 31
0.0
  0
LINE
  5
10B
330
1F
100
AcDbEntity
  8
BOTTOM_OUTSIDECUTPATH
100
AcDbLine
 10
4042.15068115285
 20
4951.963606223491
 30
0.0
 11
4042.15068115285
 21
4954.963606223491
 31
0.0
  0
LINE
  5
10C
330
1F
100
AcDbEntity
  8
BOTTOM_OUTSIDECUTPATH
100
AcDbLine
 10
4042.15068115285
 20
4954.963606223491
 30
0.0
 11
4014.42658115285
 21
4954.963606223491
 31
0.0
  0
LINE
  5
10D
330
1F
100
AcDbEntity
  8
BOTTOM_OUTSIDECUTPATH
100
AcDbLine
 10
4014.42658115285
 20
4954.963606223491
 30
0.0
 11
4014.42658115285
 21
4951.963606223491
 31
0.0
  0
LINE
  5
10E
330
1F
100
AcDbEntity
  8
BOTTOM_OUTSIDECUTPATH
100
AcDbLine
 10
4014.42658115285
 20
4951.963606223491
 30
0.0
 11
3984.63323115285
 21
4951.963606223491
 31
0.0
  0
CIRCLE
  5
10F
330
1F
100
AcDbEntity
  8
DEFAULT
100
AcDbCircle
 10
4194.633231152849
 20
4816.963606223491
 30
0.0
 40
3.0
  0
CIRCLE
  5
110
330
1F
100
AcDbEntity
  8
DEFAULT
100
AcDbCircle
 10
4185.638507503086
 20
4816.73396375676
 30
0.0
 40
1.5
  0
CIRCLE
  5
111
330
1F
100
AcDbEntity
  8
DEFAULT
100
AcDbCircle
 10
4219.078231039539
 20
4500.607572034768
 30
0.0
 40
1.5
  0
CIRCLE
  5
112
330
1F
100
AcDbEntity
  8
DEFAULT
100
AcDbCircle
 10
4228.072954689303
 20
4500.837214501499
 30
0.0
 40
3.0
  0
POLYLINE
  5
113
330
1F
100
AcDbEntity
  8
DEFAULT
100
AcDb2dPolyline
 66
     1
 10
0.0
 20
0.0
 30
0.0
 70
     1
  0
VERTEX
  5
114
330
113
100
AcDbEntity
  8
DEFAULT
100
AcDbVertex
100
AcDb2dVertex
 10
3980.672954689304
 20
4673.237214501499
 30
0.0
  0
VERTEX
  5
115
330
113
100
AcDbEntity
  8
DEFAULT
100
AcDbVertex
100
AcDb2dVertex
 10
3980.672954689304
 20
4328.4372145015
 30
0.0
  0
VERTEX
  5
116
330
113
100
AcDbEntity
  8
DEFAULT
100
AcDbVertex
100
AcDb2dVertex
 10
4475.472954689303
 20
4328.4372145015
 30
0.0
  0
VERTEX
  5
117
330
113
100
AcDbEntity
  8
DEFAULT
100
AcDbVertex
100
AcDb2dVertex
 10
4475.472954689303
 20
4673.237214501499
 30
0.0
  0
SEQEND
  5
118
330
113
100
AcDbEntity
  8
DEFAULT
  0
POLYLINE
  5
119
330
1F
100
AcDbEntity
  8
DEFAULT
100
AcDb2dPolyline
 66
     1
 10
0.0
 20
0.0
 30
0.0
  0
VERTEX
  5
11A
330
119
100
AcDbEntity
  8
DEFAULT
100
AcDbVertex
100
AcDb2dVertex
 10
4015.072954689304
 20
4638.837214501499
 30
0.0
  0
VERTEX
  5
11B
330
119
100
AcDbEntity
  8
DEFAULT
100
AcDbVertex
100
AcDb2dVertex
 10
4047.866304689303
 20
4638.837214501499
 30
0.0
  0
VERTEX
  5
11C
330
119
100
AcDbEntity
  8
DEFAULT
100
AcDbVertex
100
AcDb2dVertex
 10
4047.866304689303
 20
4635.837214501499
 30
0.0
  0
VERTEX
  5
11D
330
119
100
AcDbEntity
  8
DEFAULT
100
AcDbVertex
100
AcDb2dVertex
 10
4075.590404689303
 20
4635.837214501499
 30
0.0
  0
VERTEX
  5
11E
330
119
100
AcDbEntity
  8
DEFAULT
100
AcDbVertex
100
AcDb2dVertex
 10
4075.590404689303
 20
4638.837214501499
 30
0.0
  0
VERTEX
  5
11F
330
119
100
AcDbEntity
  8
DEFAULT
100
AcDbVertex
100
AcDb2dVertex
 10
4103.314504689303
 20
4638.837214501499
 30
0.0
  0
VERTEX
  5
120
330
119
100
AcDbEntity
  8
DEFAULT
100
AcDbVertex
100
AcDb2dVertex
 10
4103.314504689303
 20
4635.837214501499
 30
0.0
  0
VERTEX
  5
121
330
119
100
AcDbEntity
  8
DEFAULT
100
AcDbVertex
100
AcDb2dVertex
 10
4131.038604689303
 20
4635.837214501499
 30
0.0
  0
VERTEX
  5
122
330
119
100
AcDbEntity
  8
DEFAULT
100
AcDbVertex
100
AcDb2dVertex
 10
4131.038604689303
 20
4638.837214501499
 30
0.0
  0
VERTEX
  5
123
330
119
100
AcDbEntity
  8
DEFAULT
100
AcDbVertex
100
AcDb2dVertex
 10
4158.762704689303
 20
4638.837214501499
 30
0.0
  0
VERTEX
  5
124
330
119
100
AcDbEntity
  8
DEFAULT
100
AcDbVertex
100
AcDb2dVertex
 10
4158.762704689303
 20
4635.837214501499
 30
0.0
  0
VERTEX
  5
125
330
119
100
AcDbEntity
  8
DEFAULT
100
AcDbVertex
100
AcDb2dVertex
 10
4186.486804689303
 20
4635.837214501499
 30
0.0
  0
VERTEX
  5
126
330
119
100
AcDbEntity
  8
DEFAULT
100
AcDbVertex
100
AcDb2dVertex
 10
4186.486804689303
 20
4638.837214501499
 30
0.0
  0
VERTEX
  5
127
330
119
100
AcDbEntity
  8
DEFAULT
100
AcDbVertex
100
AcDb2dVertex
 10
4214.210904689303
 20
4638.837214501499
 30
0.0
  0
VERTEX
  5
128
330
119
100
AcDbEntity
  8
DEFAULT
100
AcDbVertex
100
AcDb2dVertex
 10
4214.210904689303
 20
4635.837214501499
 30
0.0
  0
VERTEX
  5
129
330
119
100
AcDbEntity
  8
DEFAULT
100
AcDbVertex
100
AcDb2dVertex
 10
4241.935004689303
 20
4635.837214501499
 30
0.0
  0
VERTEX
  5
12A
330
119
100
AcDbEntity
  8
DEFAULT
100
AcDbVertex
100
AcDb2dVertex
 10
4241.935004689303
 20
4638.837214501499
 30
0.0
  0
VERTEX
  5
12B
330
119
100
AcDbEntity
  8
DEFAULT
100
AcDbVertex
100
AcDb2dVertex
 10
4269.659104689304
 20
4638.837214501499
 30
0.0
  0
VERTEX
  5
12C
330
119
100
AcDbEntity
  8
DEFAULT
100
AcDbVertex
100
AcDb2dVertex
 10
4269.659104689304
 20
4635.837214501499
 30
0.0
  0
VERTEX
  5
12D
330
119
100
AcDbEntity
  8
DEFAULT
100
AcDbVertex
100
AcDb2dVertex
 10
4297.383204689303
 20
4635.837214501499
 30
0.0
  0
VERTEX
  5
12E
330
119
100
AcDbEntity
  8
DEFAULT
100
AcDbVertex
100
AcDb2dVertex
 10
4297.383204689303
 20
4638.837214501499
 30
0.0
  0
VERTEX
  5
12F
330
119
100
AcDbEntity
  8
DEFAULT
100
AcDbVertex
100
AcDb2dVertex
 10
4325.107304689303
 20
4638.837214501499
 30
0.0
  0
VERTEX
  5
130
330
119
100
AcDbEntity
  8
DEFAULT
100
AcDbVertex
100
AcDb2dVertex
 10
4325.107304689303
 20
4635.837214501499
 30
0.0
  0
VERTEX
  5
131
330
119
100
AcDbEntity
  8
DEFAULT
100
AcDbVertex
100
AcDb2dVertex
 10
4352.831404689303
 20
4635.837214501499
 30
0.0
  0
VERTEX
  5
132
330
119
100
AcDbEntity
  8
DEFAULT
100
AcDbVertex
100
AcDb2dVertex
 10
4352.831404689303
 20
4638.837214501499
 30
0.0
  0
VERTEX
  5
133
330
119
100
AcDbEntity
  8
DEFAULT
100
AcDbVertex
100
AcDb2dVertex
 10
4380.555504689303
 20
4638.837214501499
 30
0.0
  0
VERTEX
  5
134
330
119
100
AcDbEntity
  8
DEFAULT
100
AcDbVertex
100
AcDb2dVertex
 10
4380.555504689303
 20
4635.837214501499
 30
0.0
  0
VERTEX
  5
135
330
119
100
AcDbEntity
  8
DEFAULT
100
AcDbVertex
100
AcDb2dVertex
 10
4408.279604689303
 20
4635.837214501499
 30
0.0
  0
VERTEX
  5
136
330
119
100
AcDbEntity
  8
DEFAULT
100
AcDbVertex
100
AcDb2dVertex
 10
4408.279604689303
 20
4638.837214501499
 30
0.0
  0
VERTEX
  5
137
330
119
100
AcDbEntity
  8
DEFAULT
100
AcDbVertex
100
AcDb2dVertex
 10
4441.072954689303
 20
4638.837214501499
 30
0.0
  0
SEQEND
  5
138
330
119
100
AcDbEntity
  8
DEFAULT
  0
POLYLINE
  5
139
330
1F
100
AcDbEntity
  8
DEFAULT
100
AcDb2dPolyline
 66
     1
 10
0.0
 20
0.0
 30
0.0
  0
VERTEX
  5
13A
330
139
100
AcDbEntity
  8
DEFAULT
100
AcDbVertex
100
AcDb2dVertex
 10
4441.072954689303
 20
4638.837214501499
 30
0.0
  0
VERTEX
  5
13B
330
139
100
AcDbEntity
  8
DEFAULT
100
AcDbVertex
100
AcDb2dVertex
 10
4441.072954689303
 20
4597.871564501499
 30
0.0
  0
VERTEX
  5
13C
330
139
100
AcDbEntity
  8
DEFAULT
100
AcDbVertex
100
AcDb2dVertex
 10
4438.072954689303
 20
4597.871564501499
 30
0.0
  0
VERTEX
  5
13D
330
139
100
AcDbEntity
  8
DEFAULT
100
AcDbVertex
100
AcDb2dVertex
 10
4438.072954689303
 20
4570.1474645015
 30
0.0
  0
VERTEX
  5
13E
330
139
100
AcDbEntity
  8
DEFAULT
100
AcDbVertex
100
AcDb2dVertex
 10
4441.072954689303
 20
4570.1474645015
 30
0.0
  0
VERTEX
  5
13F
330
139
100
AcDbEntity
  8
DEFAULT
100
AcDbVertex
100
AcDb2dVertex
 10
4441.072954689303
 20
4542.423364501499
 30
0.0
  0
VERTEX
  5
140
330
139
100
AcDbEntity
  8
DEFAULT
100
AcDbVertex
100
AcDb2dVertex
 10
4438.072954689303
 20
4542.423364501499
 30
0.0
  0
VERTEX
  5
141
330
139
100
AcDbEntity
  8
DEFAULT
100
AcDbVertex
100
AcDb2dVertex
 10
4438.072954689303
 20
4514.699264501499
 30
0.0
  0
VERTEX
  5
142
330
139
100
AcDbEntity
  8
DEFAULT
100
AcDbVertex
100
AcDb2dVertex
 10
4441.072954689303
 20
4514.699264501499
 30
0.0
  0
VERTEX
  5
143
330
139
100
AcDbEntity
  8
DEFAULT
100
AcDbVertex
100
AcDb2dVertex
 10
4441.072954689303
 20
4486.975164501499
 30
0.0
  0
VERTEX
  5
144
330
139
100
AcDbEntity
  8
DEFAULT
100
AcDbVertex
100
AcDb2dVertex
 10
4438.072954689303
 20
4486.975164501499
 30
0.0
  0
VERTEX
  5
145
330
139
100
AcDbEntity
  8
DEFAULT
100
AcDbVertex
100
AcDb2dVertex
 10
4438.072954689303
 20
4459.251064501499
 30
0.0
  0
VERTEX
  5
146
330
139
100
AcDbEntity
  8
DEFAULT
100
AcDbVertex
100
AcDb2dVertex
 10
4441.072954689303
 20
4459.251064501499
 30
0.0
  0
VERTEX
  5
147
330
139
100
AcDbEntity
  8
DEFAULT
100
AcDbVertex
100
AcDb2dVertex
 10
4441.072954689303
 20
4431.526964501499
 30
0.0
  0
VERTEX
  5
148
330
139
100
AcDbEntity
  8
DEFAULT
100
AcDbVertex
100
AcDb2dVertex
 10
4438.072954689303
 20
4431.526964501499
 30
0.0
  0
VERTEX
  5
149
330
139
100
AcDbEntity
  8
DEFAULT
100
AcDbVertex
100
AcDb2dVertex
 10
4438.072954689303
 20
4403.802864501499
 30
0.0
  0
VERTEX
  5
14A
330
139
100
AcDbEntity
  8
DEFAULT
100
AcDbVertex
100
AcDb2dVertex
 10
4441.072954689303
 20
4403.802864501499
 30
0.0
  0
VERTEX
  5
14B
330
139
100
AcDbEntity
  8
DEFAULT
100
AcDbVertex
100
AcDb2dVertex
 10
4441.072954689303
 20
4362.837214501499
 30
0.0
  0
SEQEND
  5
14C
330
139
100
AcDbEntity
  8
DEFAULT
  0
POLYLINE
  5
14D
330
1F
100
AcDbEntity
  8
DEFAULT
100
AcDb2dPolyline
 66
     1
 10
0.0
 20
0.0
 30
0.0
  0
VERTEX
  5
14E
330
14D
100
AcDbEntity
  8
DEFAULT
100
AcDbVertex
100
AcDb2dVertex
 10
4015.072954689304
 20
4362.837214501499
 30
0.0
  0
VERTEX
  5
14F
330
14D
100
AcDbEntity
  8
DEFAULT
100
AcDbVertex
100
AcDb2dVertex
 10
4047.866304689303
 20
4362.837214501499
 30
0.0
  0
VERTEX
  5
150
330
14D
100
AcDbEntity
  8
DEFAULT
100
AcDbVertex
100
AcDb2dVertex
 10
4047.866304689303
 20
4365.837214501499
 30
0.0
  0
VERTEX
  5
151
330
14D
100
AcDbEntity
  8
DEFAULT
100
AcDbVertex
100
AcDb2dVertex
 10
4075.590404689303
 20
4365.837214501499
 30
0.0
  0
VERTEX
  5
152
330
14D
100
AcDbEntity
  8
DEFAULT
100
AcDbVertex
100
AcDb2dVertex
 10
4075.590404689303
 20
4362.837214501499
 30
0.0
  0
VERTEX
  5
153
330
14D
100
AcDbEntity
  8
DEFAULT
100
AcDbVertex
100
AcDb2dVertex
 10
4103.314504689303
 20
4362.837214501499
 30
0.0
  0
VERTEX
  5
154
330
14D
100
AcDbEntity
  8
DEFAULT
100
AcDbVertex
100
AcDb2dVertex
 10
4103.314504689303
 20
4365.837214501499
 30
0.0
  0
VERTEX
  5
155
330
14D
100
AcDbEntity
  8
DEFAULT
100
AcDbVertex
100
AcDb2dVertex
 10
4131.038604689303
 20
4365.837214501499
 30
0.0
  0
VERTEX
  5
156
330
14D
100
AcDbEntity
  8
DEFAULT
100
AcDbVertex
100
AcDb2dVertex
 10
4131.038604689303
 20
4362.837214501499
 30
0.0
  0
VERTEX
  5
157
330
14D
100
AcDbEntity
  8
DEFAULT
100
AcDbVertex
100
AcDb2dVertex
 10
4158.762704689303
 20
4362.837214501499
 30
0.0
  0
VERTEX
  5
158
330
14D
100
AcDbEntity
  8
DEFAULT
100
AcDbVertex
100
AcDb2dVertex
 10
4158.762704689303
 20
4365.837214501499
 30
0.0
  0
VERTEX
  5
159
330
14D
100
AcDbEntity
  8
DEFAULT
100
AcDbVertex
100
AcDb2dVertex
 10
4186.486804689303
 20
4365.837214501499
 30
0.0
  0
VERTEX
  5
15A
330
14D
100
AcDbEntity
  8
DEFAULT
100
AcDbVertex
100
AcDb2dVertex
 10
4186.486804689303
 20
4362.837214501499
 30
0.0
  0
VERTEX
  5
15B
330
14D
100
AcDbEntity
  8
DEFAULT
100
AcDbVertex
100
AcDb2dVertex
 10
4214.210904689303
 20
4362.837214501499
 30
0.0
  0
VERTEX
  5
15C
330
14D
100
AcDbEntity
  8
DEFAULT
100
AcDbVertex
100
AcDb2dVertex
 10
4214.210904689303
 20
4365.837214501499
 30
0.0
  0
VERTEX
  5
15D
330
14D
100
AcDbEntity
  8
DEFAULT
100
AcDbVertex
100
AcDb2dVertex
 10
4241.935004689303
 20
4365.837214501499
 30
0.0
  0
VERTEX
  5
15E
330
14D
100
AcDbEntity
  8
DEFAULT
100
AcDbVertex
100
AcDb2dVertex
 10
4241.935004689303
 20
4362.837214501499
 30
0.0
  0
VERTEX
  5
15F
330
14D
100
AcDbEntity
  8
DEFAULT
100
AcDbVertex
100
AcDb2dVertex
 10
4269.659104689304
 20
4362.837214501499
 30
0.0
  0
VERTEX
  5
160
330
14D
100
AcDbEntity
  8
DEFAULT
100
AcDbVertex
100
AcDb2dVertex
 10
4269.659104689304
 20
4365.837214501499
 30
0.0
  0
VERTEX
  5
161
330
14D
100
AcDbEntity
  8
DEFAULT
100
AcDbVertex
100
AcDb2dVertex
 10
4297.383204689303
 20
4365.837214501499
 30
0.0
  0
VERTEX
  5
162
330
14D
100
AcDbEntity
  8
DEFAULT
100
AcDbVertex
100
AcDb2dVertex
 10
4297.383204689303
 20
4362.837214501499
 30
0.0
  0
VERTEX
  5
163
330
14D
100
AcDbEntity
  8
DEFAULT
100
AcDbVertex
100
AcDb2dVertex
 10
4325.107304689303
 20
4362.837214501499
 30
0.0
  0
VERTEX
  5
164
330
14D
100
AcDbEntity
  8
DEFAULT
100
AcDbVertex
100
AcDb2dVertex
 10
4325.107304689303
 20
4365.837214501499
 30
0.0
  0
VERTEX
  5
165
330
14D
100
AcDbEntity
  8
DEFAULT
100
AcDbVertex
100
AcDb2dVertex
 10
4352.831404689303
 20
4365.837214501499
 30
0.0
  0
VERTEX
  5
166
330
14D
100
AcDbEntity
  8
DEFAULT
100
AcDbVertex
100
AcDb2dVertex
 10
4352.831404689303
 20
4362.837214501499
 30
0.0
  0
VERTEX
  5
167
330
14D
100
AcDbEntity
  8
DEFAULT
100
AcDbVertex
100
AcDb2dVertex
 10
4380.555504689303
 20
4362.837214501499
 30
0.0
  0
VERTEX
  5
168
330
14D
100
AcDbEntity
  8
DEFAULT
100
AcDbVertex
100
AcDb2dVertex
 10
4380.555504689303
 20
4365.837214501499
 30
0.0
  0
VERTEX
  5
169
330
14D
100
AcDbEntity
  8
DEFAULT
100
AcDbVertex
100
AcDb2dVertex
 10
4408.279604689303
 20
4365.837214501499
 30
0.0
  0
VERTEX
  5
16A
330
14D
100
AcDbEntity
  8
DEFAULT
100
AcDbVertex
100
AcDb2dVertex
 10
4408.279604689303
 20
4362.837214501499
 30
0.0
  0
VERTEX
  5
16B
330
14D
100
AcDbEntity
  8
DEFAULT
100
AcDbVertex
100
AcDb2dVertex
 10
4441.072954689303
 20
4362.837214501499
 30
0.0
  0
SEQEND
  5
16C
330
14D
100
AcDbEntity
  8
DEFAULT
  0
POLYLINE
  5
16D
330
1F
100
AcDbEntity
  8
DEFAULT
100
AcDb2dPolyline
 66
     1
 10
0.0
 20
0.0
 30
0.0
  0
VERTEX
  5
16E
330
16D
100
AcDbEntity
  8
DEFAULT
100
AcDbVertex
100
AcDb2dVertex
 10
4015.072954689304
 20
4638.837214501499
 30
0.0
  0
VERTEX
  5
16F
330
16D
100
AcDbEntity
  8
DEFAULT
100
AcDbVertex
100
AcDb2dVertex
 10
4015.072954689304
 20
4597.871564501499
 30
0.0
  0
VERTEX
  5
170
330
16D
100
AcDbEntity
  8
DEFAULT
100
AcDbVertex
100
AcDb2dVertex
 10
4018.072954689304
 20
4597.871564501499
 30
0.0
  0
VERTEX
  5
171
330
16D
100
AcDbEntity
  8
DEFAULT
100
AcDbVertex
100
AcDb2dVertex
 10
4018.072954689304
 20
4570.1474645015
 30
0.0
  0
VERTEX
  5
172
330
16D
100
AcDbEntity
  8
DEFAULT
100
AcDbVertex
100
AcDb2dVertex
 10
4015.072954689304
 20
4570.1474645015
 30
0.0
  0
VERTEX
  5
173
330
16D
100
AcDbEntity
  8
DEFAULT
100
AcDbVertex
100
AcDb2dVertex
 10
4015.072954689304
 20
4542.423364501499
 30
0.0
  0
VERTEX
  5
174
330
16D
100
AcDbEntity
  8
DEFAULT
100
AcDbVertex
100
AcDb2dVertex
 10
4018.072954689304
 20
4542.423364501499
 30
0.0
  0
VERTEX
  5
175
330
16D
100
AcDbEntity
  8
DEFAULT
100
AcDbVertex
100
AcDb2dVertex
 10
4018.072954689304
 20
4514.699264501499
 30
0.0
  0
VERTEX
  5
176
330
16D
100
AcDbEntity
  8
DEFAULT
100
AcDbVertex
100
AcDb2dVertex
 10
4015.072954689304
 20
4514.699264501499
 30
0.0
  0
VERTEX
  5
177
330
16D
100
AcDbEntity
  8
DEFAULT
100
AcDbVertex
100
AcDb2dVertex
 10
4015.072954689304
 20
4486.975164501499
 30
0.0
  0
VERTEX
  5
178
330
16D
100
AcDbEntity
  8
DEFAULT
100
AcDbVertex
100
AcDb2dVertex
 10
4018.072954689304
 20
4486.975164501499
 30
0.0
  0
VERTEX
  5
179
330
16D
100
AcDbEntity
  8
DEFAULT
100
AcDbVertex
100
AcDb2dVertex
 10
4018.072954689304
 20
4459.251064501499
 30
0.0
  0
VERTEX
  5
17A
330
16D
100
AcDbEntity
  8
DEFAULT
100
AcDbVertex
100
AcDb2dVertex
 10
4015.072954689304
 20
4459.251064501499
 30
0.0
  0
VERTEX
  5
17B
330
16D
100
AcDbEntity
  8
DEFAULT
100
AcDbVertex
100
AcDb2dVertex
 10
4015.072954689304
 20
4431.526964501499
 30
0.0
  0
VERTEX
  5
17C
330
16D
100
AcDbEntity
  8
DEFAULT
100
AcDbVertex
100
AcDb2dVertex
 10
4018.072954689304
 20
4431.526964501499
 30
0.0
  0
VERTEX
  5
17D
330
16D
100
AcDbEntity
  8
DEFAULT
100
AcDbVertex
100
AcDb2dVertex
 10
4018.072954689304
 20
4403.802864501499
 30
0.0
  0
VERTEX
  5
17E
330
16D
100
AcDbEntity
  8
DEFAULT
100
AcDbVertex
100
AcDb2dVertex
 10
4015.072954689304
 20
4403.802864501499
 30
0.0
  0
VERTEX
  5
17F
330
16D
100
AcDbEntity
  8
DEFAULT
100
AcDbVertex
100
AcDb2dVertex
 10
4015.072954689304
 20
4362.837214501499
 30
0.0
  0
SEQEND
  5
180
330
16D
100
AcDbEntity
  8
DEFAULT
  0
POLYLINE
  5
181
330
1F
100
AcDbEntity
  8
DEFAULT
100
AcDb2dPolyline
 66
     1
 10
0.0
 20
0.0
 30
0.0
 70
     1
  0
VERTEX
  5
182
330
181
100
AcDbEntity
  8
DEFAULT
100
AcDbVertex
100
AcDb2dVertex
 10
3252.724403769955
 20
4290.761633529353
 30
0.0
  0
VERTEX
  5
183
330
181
100
AcDbEntity
  8
DEFAULT
100
AcDbVertex
100
AcDb2dVertex
 10
4552.724403769955
 20
4290.761633529353
 30
0.0
  0
VERTEX
  5
184
330
181
100
AcDbEntity
  8
DEFAULT
100
AcDbVertex
100
AcDb2dVertex
 10
4552.724403769955
 20
5190.761633529353
 30
0.0
  0
VERTEX
  5
185
330
181
100
AcDbEntity
  8
DEFAULT
100
AcDbVertex
100
AcDb2dVertex
 10
3252.724403769955
 20
5190.761633529353
 30
0.0
  0
SEQEND
  5
186
330
181
100
AcDbEntity
  8
DEFAULT
  0
LINE
  5
188
330
1F
100
AcDbEntity
  8
LEFT_OUTSIDECUTPATH
100
AcDbLine
 10
3705.083031437242
 20
4729.680464138362
 30
0.0
 11
3705.083031437242
 21
4681.663014138363
 31
0.0
  0
LINE
  5
189
330
1F
100
AcDbEntity
  8
LEFT_OUTSIDECUTPATH
100
AcDbLine
 10
3705.083031437242
 20
4681.663014138363
 30
0.0
 11
3702.083031437242
 21
4681.663014138363
 31
0.0
  0
LINE
  5
18A
330
1F
100
AcDbEntity
  8
LEFT_OUTSIDECUTPATH
100
AcDbLine
 10
3702.083031437242
 20
4681.663014138363
 30
0.0
 11
3702.083031437242
 21
4653.938914138362
 31
0.0
  0
LINE
  5
18B
330
1F
100
AcDbEntity
  8
LEFT_OUTSIDECUTPATH
100
AcDbLine
 10
3702.083031437242
 20
4653.938914138362
 30
0.0
 11
3705.083031437242
 21
4653.938914138362
 31
0.0
  0
LINE
  5
18C
330
1F
100
AcDbEntity
  8
LEFT_OUTSIDECUTPATH
100
AcDbLine
 10
3705.083031437242
 20
4653.938914138362
 30
0.0
 11
3705.083031437242
 21
4626.214814138362
 31
0.0
  0
LINE
  5
18D
330
1F
100
AcDbEntity
  8
LEFT_OUTSIDECUTPATH
100
AcDbLine
 10
3705.083031437242
 20
4626.214814138362
 30
0.0
 11
3702.083031437242
 21
4626.214814138362
 31
0.0
  0
LINE
  5
18E
330
1F
100
AcDbEntity
  8
LEFT_OUTSIDECUTPATH
100
AcDbLine
 10
3702.083031437242
 20
4626.214814138362
 30
0.0
 11
3702.083031437242
 21
4598.490714138363
 31
0.0
  0
LINE
  5
18F
330
1F
100
AcDbEntity
  8
LEFT_OUTSIDECUTPATH
100
AcDbLine
 10
3702.083031437242
 20
4598.490714138363
 30
0.0
 11
3705.083031437242
 21
4598.490714138363
 31
0.0
  0
LINE
  5
190
330
1F
100
AcDbEntity
  8
LEFT_OUTSIDECUTPATH
100
AcDbLine
 10
3705.083031437242
 20
4598.490714138363
 30
0.0
 11
3705.083031437242
 21
4570.766614138362
 31
0.0
  0
LINE
  5
191
330
1F
100
AcDbEntity
  8
LEFT_OUTSIDECUTPATH
100
AcDbLine
 10
3705.083031437242
 20
4570.766614138362
 30
0.0
 11
3702.083031437242
 21
4570.766614138362
 31
0.0
  0
LINE
  5
192
330
1F
100
AcDbEntity
  8
LEFT_OUTSIDECUTPATH
100
AcDbLine
 10
3702.083031437242
 20
4570.766614138362
 30
0.0
 11
3702.083031437242
 21
4543.042514138362
 31
0.0
  0
LINE
  5
193
330
1F
100
AcDbEntity
  8
LEFT_OUTSIDECUTPATH
100
AcDbLine
 10
3702.083031437242
 20
4543.042514138362
 30
0.0
 11
3705.083031437242
 21
4543.042514138362
 31
0.0
  0
LINE
  5
194
330
1F
100
AcDbEntity
  8
LEFT_OUTSIDECUTPATH
100
AcDbLine
 10
3705.083031437242
 20
4543.042514138362
 30
0.0
 11
3705.083031437242
 21
4515.318414138363
 31
0.0
  0
LINE
  5
195
330
1F
100
AcDbEntity
  8
LEFT_OUTSIDECUTPATH
100
AcDbLine
 10
3705.083031437242
 20
4515.318414138363
 30
0.0
 11
3702.083031437242
 21
4515.318414138363
 31
0.0
  0
LINE
  5
196
330
1F
100
AcDbEntity
  8
LEFT_OUTSIDECUTPATH
100
AcDbLine
 10
3702.083031437242
 20
4515.318414138363
 30
0.0
 11
3702.083031437242
 21
4487.594314138362
 31
0.0
  0
LINE
  5
197
330
1F
100
AcDbEntity
  8
LEFT_OUTSIDECUTPATH
100
AcDbLine
 10
3702.083031437242
 20
4487.594314138362
 30
0.0
 11
3705.083031437242
 21
4487.594314138362
 31
0.0
  0
LINE
  5
198
330
1F
100
AcDbEntity
  8
LEFT_OUTSIDECUTPATH
100
AcDbLine
 10
3705.083031437242
 20
4487.594314138362
 30
0.0
 11
3705.083031437242
 21
4459.870214138362
 31
0.0
  0
LINE
  5
199
330
1F
100
AcDbEntity
  8
LEFT_OUTSIDECUTPATH
100
AcDbLine
 10
3705.083031437242
 20
4459.870214138362
 30
0.0
 11
3702.083031437242
 21
4459.870214138362
 31
0.0
  0
LINE
  5
19A
330
1F
100
AcDbEntity
  8
LEFT_OUTSIDECUTPATH
100
AcDbLine
 10
3702.083031437242
 20
4459.870214138362
 30
0.0
 11
3702.083031437242
 21
4432.146114138362
 31
0.0
  0
LINE
  5
19B
330
1F
100
AcDbEntity
  8
LEFT_OUTSIDECUTPATH
100
AcDbLine
 10
3702.083031437242
 20
4432.146114138362
 30
0.0
 11
3705.083031437242
 21
4432.146114138362
 31
0.0
  0
LINE
  5
19C
330
1F
100
AcDbEntity
  8
LEFT_OUTSIDECUTPATH
100
AcDbLine
 10
3705.083031437242
 20
4432.146114138362
 30
0.0
 11
3705.083031437242
 21
4404.422014138363
 31
0.0
  0
LINE
  5
19D
330
1F
100
AcDbEntity
  8
LEFT_OUTSIDECUTPATH
100
AcDbLine
 10
3705.083031437242
 20
4404.422014138363
 30
0.0
 11
3702.083031437242
 21
4404.422014138363
 31
0.0
  0
LINE
  5
19E
330
1F
100
AcDbEntity
  8
LEFT_OUTSIDECUTPATH
100
AcDbLine
 10
3702.083031437242
 20
4404.422014138363
 30
0.0
 11
3702.083031437242
 21
4376.697914138362
 31
0.0
  0
LINE
  5
19F
330
1F
100
AcDbEntity
  8
LEFT_OUTSIDECUTPATH
100
AcDbLine
 10
3702.083031437242
 20
4376.697914138362
 30
0.0
 11
3705.083031437242
 21
4376.697914138362
 31
0.0
  0
LINE
  5
1A0
330
1F
100
AcDbEntity
  8
LEFT_OUTSIDECUTPATH
100
AcDbLine
 10
3705.083031437242
 20
4376.697914138362
 30
0.0
 11
3705.083031437242
 21
4348.973814138362
 31
0.0
  0
LINE
  5
1A1
330
1F
100
AcDbEntity
  8
LEFT_OUTSIDECUTPATH
100
AcDbLine
 10
3705.083031437242
 20
4348.973814138362
 30
0.0
 11
3705.083031437242
 21
4328.680464138362
 31
0.0
  0
LINE
  5
1A2
330
1F
100
AcDbEntity
  8
LEFT_OUTSIDECUTPATH
100
AcDbLine
 10
3705.083031437242
 20
4328.680464138362
 30
0.0
 11
3743.048681437243
 21
4328.680464138362
 31
0.0
  0
LINE
  5
1A3
330
1F
100
AcDbEntity
  8
LEFT_OUTSIDECUTPATH
100
AcDbLine
 10
3743.048681437243
 20
4328.680464138362
 30
0.0
 11
3743.048681437243
 21
4331.680464138362
 31
0.0
  0
LINE
  5
1A4
330
1F
100
AcDbEntity
  8
LEFT_OUTSIDECUTPATH
100
AcDbLine
 10
3743.048681437243
 20
4331.680464138362
 30
0.0
 11
3770.772781437242
 21
4331.680464138362
 31
0.0
  0
LINE
  5
1A5
330
1F
100
AcDbEntity
  8
LEFT_OUTSIDECUTPATH
100
AcDbLine
 10
3770.772781437242
 20
4331.680464138362
 30
0.0
 11
3770.772781437242
 21
4328.680464138362
 31
0.0
  0
LINE
  5
1A6
330
1F
100
AcDbEntity
  8
LEFT_OUTSIDECUTPATH
100
AcDbLine
 10
3770.772781437242
 20
4328.680464138362
 30
0.0
 11
3798.496881437242
 21
4328.680464138362
 31
0.0
  0
LINE
  5
1A7
330
1F
100
AcDbEntity
  8
LEFT_OUTSIDECUTPATH
100
AcDbLine
 10
3798.496881437242
 20
4328.680464138362
 30
0.0
 11
3798.496881437242
 21
4331.680464138362
 31
0.0
  0
LINE
  5
1A8
330
1F
100
AcDbEntity
  8
LEFT_OUTSIDECUTPATH
100
AcDbLine
 10
3798.496881437242
 20
4331.680464138362
 30
0.0
 11
3826.220981437242
 21
4331.680464138362
 31
0.0
  0
LINE
  5
1A9
330
1F
100
AcDbEntity
  8
LEFT_OUTSIDECUTPATH
100
AcDbLine
 10
3826.220981437242
 20
4331.680464138362
 30
0.0
 11
3826.220981437242
 21
4328.680464138362
 31
0.0
  0
LINE
  5
1AA
330
1F
100
AcDbEntity
  8
LEFT_OUTSIDECUTPATH
100
AcDbLine
 10
3826.220981437242
 20
4328.680464138362
 30
0.0
 11
3853.945081437243
 21
4328.680464138362
 31
0.0
  0
LINE
  5
1AB
330
1F
100
AcDbEntity
  8
LEFT_OUTSIDECUTPATH
100
AcDbLine
 10
3853.945081437243
 20
4328.680464138362
 30
0.0
 11
3853.945081437243
 21
4331.680464138362
 31
0.0
  0
LINE
  5
1AC
330
1F
100
AcDbEntity
  8
LEFT_OUTSIDECUTPATH
100
AcDbLine
 10
3853.945081437243
 20
4331.680464138362
 30
0.0
 11
3881.669181437243
 21
4331.680464138362
 31
0.0
  0
LINE
  5
1AD
330
1F
100
AcDbEntity
  8
LEFT_OUTSIDECUTPATH
100
AcDbLine
 10
3881.669181437243
 20
4331.680464138362
 30
0.0
 11
3881.669181437243
 21
4328.680464138362
 31
0.0
  0
LINE
  5
1AE
330
1F
100
AcDbEntity
  8
LEFT_OUTSIDECUTPATH
100
AcDbLine
 10
3881.669181437243
 20
4328.680464138362
 30
0.0
 11
3909.393281437242
 21
4328.680464138362
 31
0.0
  0
LINE
  5
1AF
330
1F
100
AcDbEntity
  8
LEFT_OUTSIDECUTPATH
100
AcDbLine
 10
3909.393281437242
 20
4328.680464138362
 30
0.0
 11
3909.393281437242
 21
4331.680464138362
 31
0.0
  0
LINE
  5
1B0
330
1F
100
AcDbEntity
  8
LEFT_OUTSIDECUTPATH
100
AcDbLine
 10
3909.393281437242
 20
4331.680464138362
 30
0.0
 11
3937.117381437242
 21
4331.680464138362
 31
0.0
  0
LINE
  5
1B1
330
1F
100
AcDbEntity
  8
LEFT_OUTSIDECUTPATH
100
AcDbLine
 10
3937.117381437242
 20
4331.680464138362
 30
0.0
 11
3937.117381437242
 21
4328.680464138362
 31
0.0
  0
LINE
  5
1B2
330
1F
100
AcDbEntity
  8
LEFT_OUTSIDECUTPATH
100
AcDbLine
 10
3937.117381437242
 20
4328.680464138362
 30
0.0
 11
3964.841481437242
 21
4328.680464138362
 31
0.0
  0
LINE
  5
1B3
330
1F
100
AcDbEntity
  8
LEFT_OUTSIDECUTPATH
100
AcDbLine
 10
3964.841481437242
 20
4328.680464138362
 30
0.0
 11
3975.083031437242
 21
4328.680464138362
 31
0.0
  0
LINE
  5
1B4
330
1F
100
AcDbEntity
  8
LEFT_OUTSIDECUTPATH
100
AcDbLine
 10
3975.083031437242
 20
4328.680464138362
 30
0.0
 11
3975.083031437242
 21
4376.697914138362
 31
0.0
  0
LINE
  5
1B5
330
1F
100
AcDbEntity
  8
LEFT_OUTSIDECUTPATH
100
AcDbLine
 10
3975.083031437242
 20
4376.697914138362
 30
0.0
 11
3978.083031437242
 21
4376.697914138362
 31
0.0
  0
LINE
  5
1B6
330
1F
100
AcDbEntity
  8
LEFT_OUTSIDECUTPATH
100
AcDbLine
 10
3978.083031437242
 20
4376.697914138362
 30
0.0
 11
3978.083031437242
 21
4404.422014138363
 31
0.0
  0
LINE
  5
1B7
330
1F
100
AcDbEntity
  8
LEFT_OUTSIDECUTPATH
100
AcDbLine
 10
3978.083031437242
 20
4404.422014138363
 30
0.0
 11
3975.083031437242
 21
4404.422014138363
 31
0.0
  0
LINE
  5
1B8
330
1F
100
AcDbEntity
  8
LEFT_OUTSIDECUTPATH
100
AcDbLine
 10
3975.083031437242
 20
4404.422014138363
 30
0.0
 11
3975.083031437242
 21
4432.146114138362
 31
0.0
  0
LINE
  5
1B9
330
1F
100
AcDbEntity
  8
LEFT_OUTSIDECUTPATH
100
AcDbLine
 10
3975.083031437242
 20
4432.146114138362
 30
0.0
 11
3978.083031437242
 21
4432.146114138362
 31
0.0
  0
LINE
  5
1BA
330
1F
100
AcDbEntity
  8
LEFT_OUTSIDECUTPATH
100
AcDbLine
 10
3978.083031437242
 20
4432.146114138362
 30
0.0
 11
3978.083031437242
 21
4459.870214138362
 31
0.0
  0
LINE
  5
1BB
330
1F
100
AcDbEntity
  8
LEFT_OUTSIDECUTPATH
100
AcDbLine
 10
3978.083031437242
 20
4459.870214138362
 30
0.0
 11
3975.083031437242
 21
4459.870214138362
 31
0.0
  0
LINE
  5
1BC
330
1F
100
AcDbEntity
  8
LEFT_OUTSIDECUTPATH
100
AcDbLine
 10
3975.083031437242
 20
4459.870214138362
 30
0.0
 11
3975.083031437242
 21
4487.594314138362
 31
0.0
  0
LINE
  5
1BD
330
1F
100
AcDbEntity
  8
LEFT_OUTSIDECUTPATH
100
AcDbLine
 10
3975.083031437242
 20
4487.594314138362
 30
0.0
 11
3978.083031437242
 21
4487.594314138362
 31
0.0
  0
LINE
  5
1BE
330
1F
100
AcDbEntity
  8
LEFT_OUTSIDECUTPATH
100
AcDbLine
 10
3978.083031437242
 20
4487.594314138362
 30
0.0
 11
3978.083031437242
 21
4515.318414138363
 31
0.0
  0
LINE
  5
1BF
330
1F
100
AcDbEntity
  8
LEFT_OUTSIDECUTPATH
100
AcDbLine
 10
3978.083031437242
 20
4515.318414138363
 30
0.0
 11
3975.083031437242
 21
4515.318414138363
 31
0.0
  0
LINE
  5
1C0
330
1F
100
AcDbEntity
  8
LEFT_OUTSIDECUTPATH
100
AcDbLine
 10
3975.083031437242
 20
4515.318414138363
 30
0.0
 11
3975.083031437242
 21
4543.042514138362
 31
0.0
  0
LINE
  5
1C1
330
1F
100
AcDbEntity
  8
LEFT_OUTSIDECUTPATH
100
AcDbLine
 10
3975.083031437242
 20
4543.042514138362
 30
0.0
 11
3978.083031437242
 21
4543.042514138362
 31
0.0
  0
LINE
  5
1C2
330
1F
100
AcDbEntity
  8
LEFT_OUTSIDECUTPATH
100
AcDbLine
 10
3978.083031437242
 20
4543.042514138362
 30
0.0
 11
3978.083031437242
 21
4570.766614138362
 31
0.0
  0
LINE
  5
1C3
330
1F
100
AcDbEntity
  8
LEFT_OUTSIDECUTPATH
100
AcDbLine
 10
3978.083031437242
 20
4570.766614138362
 30
0.0
 11
3975.083031437242
 21
4570.766614138362
 31
0.0
  0
LINE
  5
1C4
330
1F
100
AcDbEntity
  8
LEFT_OUTSIDECUTPATH
100
AcDbLine
 10
3975.083031437242
 20
4570.766614138362
 30
0.0
 11
3975.083031437242
 21
4598.490714138363
 31
0.0
  0
LINE
  5
1C5
330
1F
100
AcDbEntity
  8
LEFT_OUTSIDECUTPATH
100
AcDbLine
 10
3975.083031437242
 20
4598.490714138363
 30
0.0
 11
3978.083031437242
 21
4598.490714138363
 31
0.0
  0
LINE
  5
1C6
330
1F
100
AcDbEntity
  8
LEFT_OUTSIDECUTPATH
100
AcDbLine
 10
3978.083031437242
 20
4598.490714138363
 30
0.0
 11
3978.083031437242
 21
4626.214814138362
 31
0.0
  0
LINE
  5
1C7
330
1F
100
AcDbEntity
  8
LEFT_OUTSIDECUTPATH
100
AcDbLine
 10
3978.083031437242
 20
4626.214814138362
 30
0.0
 11
3975.083031437242
 21
4626.214814138362
 31
0.0
  0
LINE
  5
1C8
330
1F
100
AcDbEntity
  8
LEFT_OUTSIDECUTPATH
100
AcDbLine
 10
3975.083031437242
 20
4626.214814138362
 30
0.0
 11
3975.083031437242
 21
4653.938914138362
 31
0.0
  0
LINE
  5
1C9
330
1F
100
AcDbEntity
  8
LEFT_OUTSIDECUTPATH
100
AcDbLine
 10
3975.083031437242
 20
4653.938914138362
 30
0.0
 11
3978.083031437242
 21
4653.938914138362
 31
0.0
  0
LINE
  5
1CA
330
1F
100
AcDbEntity
  8
LEFT_OUTSIDECUTPATH
100
AcDbLine
 10
3978.083031437242
 20
4653.938914138362
 30
0.0
 11
3978.083031437242
 21
4681.663014138363
 31
0.0
  0
LINE
  5
1CB
330
1F
100
AcDbEntity
  8
LEFT_OUTSIDECUTPATH
100
AcDbLine
 10
3978.083031437242
 20
4681.663014138363
 30
0.0
 11
3975.083031437242
 21
4681.663014138363
 31
0.0
  0
LINE
  5
1CC
330
1F
100
AcDbEntity
  8
LEFT_OUTSIDECUTPATH
100
AcDbLine
 10
3975.083031437242
 20
4681.663014138363
 30
0.0
 11
3975.083031437242
 21
4709.387114138362
 31
0.0
  0
LINE
  5
1CD
330
1F
100
AcDbEntity
  8
LEFT_OUTSIDECUTPATH
100
AcDbLine
 10
3975.083031437242
 20
4709.387114138362
 30
0.0
 11
3975.083031437242
 21
4729.680464138362
 31
0.0
  0
LINE
  5
1CE
330
1F
100
AcDbEntity
  8
LEFT_OUTSIDECUTPATH
100
AcDbLine
 10
3975.083031437242
 20
4729.680464138362
 30
0.0
 11
3937.117381437242
 21
4729.680464138362
 31
0.0
  0
LINE
  5
1CF
330
1F
100
AcDbEntity
  8
LEFT_OUTSIDECUTPATH
100
AcDbLine
 10
3937.117381437242
 20
4729.680464138362
 30
0.0
 11
3937.117381437242
 21
4726.680464138362
 31
0.0
  0
LINE
  5
1D0
330
1F
100
AcDbEntity
  8
LEFT_OUTSIDECUTPATH
100
AcDbLine
 10
3937.117381437242
 20
4726.680464138362
 30
0.0
 11
3909.393281437242
 21
4726.680464138362
 31
0.0
  0
LINE
  5
1D1
330
1F
100
AcDbEntity
  8
LEFT_OUTSIDECUTPATH
100
AcDbLine
 10
3909.393281437242
 20
4726.680464138362
 30
0.0
 11
3909.393281437242
 21
4729.680464138362
 31
0.0
  0
LINE
  5
1D2
330
1F
100
AcDbEntity
  8
LEFT_OUTSIDECUTPATH
100
AcDbLine
 10
3909.393281437242
 20
4729.680464138362
 30
0.0
 11
3881.669181437243
 21
4729.680464138362
 31
0.0
  0
LINE
  5
1D3
330
1F
100
AcDbEntity
  8
LEFT_OUTSIDECUTPATH
100
AcDbLine
 10
3881.669181437243
 20
4729.680464138362
 30
0.0
 11
3881.669181437243
 21
4726.680464138362
 31
0.0
  0
LINE
  5
1D4
330
1F
100
AcDbEntity
  8
LEFT_OUTSIDECUTPATH
100
AcDbLine
 10
3881.669181437243
 20
4726.680464138362
 30
0.0
 11
3853.945081437243
 21
4726.680464138362
 31
0.0
  0
LINE
  5
1D5
330
1F
100
AcDbEntity
  8
LEFT_OUTSIDECUTPATH
100
AcDbLine
 10
3853.945081437243
 20
4726.680464138362
 30
0.0
 11
3853.945081437243
 21
4729.680464138362
 31
0.0
  0
LINE
  5
1D6
330
1F
100
AcDbEntity
  8
LEFT_OUTSIDECUTPATH
100
AcDbLine
 10
3853.945081437243
 20
4729.680464138362
 30
0.0
 11
3826.220981437242
 21
4729.680464138362
 31
0.0
  0
LINE
  5
1D7
330
1F
100
AcDbEntity
  8
LEFT_OUTSIDECUTPATH
100
AcDbLine
 10
3826.220981437242
 20
4729.680464138362
 30
0.0
 11
3826.220981437242
 21
4726.680464138362
 31
0.0
  0
LINE
  5
1D8
330
1F
100
AcDbEntity
  8
LEFT_OUTSIDECUTPATH
100
AcDbLine
 10
3826.220981437242
 20
4726.680464138362
 30
0.0
 11
3798.496881437242
 21
4726.680464138362
 31
0.0
  0
LINE
  5
1D9
330
1F
100
AcDbEntity
  8
LEFT_OUTSIDECUTPATH
100
AcDbLine
 10
3798.496881437242
 20
4726.680464138362
 30
0.0
 11
3798.496881437242
 21
4729.680464138362
 31
0.0
  0
LINE
  5
1DA
330
1F
100
AcDbEntity
  8
LEFT_OUTSIDECUTPATH
100
AcDbLine
 10
3798.496881437242
 20
4729.680464138362
 30
0.0
 11
3770.772781437242
 21
4729.680464138362
 31
0.0
  0
LINE
  5
1DB
330
1F
100
AcDbEntity
  8
LEFT_OUTSIDECUTPATH
100
AcDbLine
 10
3770.772781437242
 20
4729.680464138362
 30
0.0
 11
3770.772781437242
 21
4726.680464138362
 31
0.0
  0
LINE
  5
1DC
330
1F
100
AcDbEntity
  8
LEFT_OUTSIDECUTPATH
100
AcDbLine
 10
3770.772781437242
 20
4726.680464138362
 30
0.0
 11
3743.048681437243
 21
4726.680464138362
 31
0.0
  0
LINE
  5
1DD
330
1F
100
AcDbEntity
  8
LEFT_OUTSIDECUTPATH
100
AcDbLine
 10
3743.048681437243
 20
4726.680464138362
 30
0.0
 11
3743.048681437243
 21
4729.680464138362
 31
0.0
  0
LINE
  5
1DE
330
1F
100
AcDbEntity
  8
LEFT_OUTSIDECUTPATH
100
AcDbLine
 10
3743.048681437243
 20
4729.680464138362
 30
0.0
 11
3715.324581437243
 21
4729.680464138362
 31
0.0
  0
LINE
  5
1DF
330
1F
100
AcDbEntity
  8
LEFT_OUTSIDECUTPATH
100
AcDbLine
 10
3715.324581437243
 20
4729.680464138362
 30
0.0
 11
3705.083031437242
 21
4729.680464138362
 31
0.0
  0
LINE
  5
1E1
330
1F
100
AcDbEntity
  8
RIGHT_OUTSIDECUTPATH
100
AcDbLine
 10
3705.083031437242
 20
5133.680464138362
 30
0.0
 11
3705.083031437242
 21
5085.663014138362
 31
0.0
  0
LINE
  5
1E2
330
1F
100
AcDbEntity
  8
RIGHT_OUTSIDECUTPATH
100
AcDbLine
 10
3705.083031437242
 20
5085.663014138362
 30
0.0
 11
3702.083031437242
 21
5085.663014138362
 31
0.0
  0
LINE
  5
1E3
330
1F
100
AcDbEntity
  8
RIGHT_OUTSIDECUTPATH
100
AcDbLine
 10
3702.083031437242
 20
5085.663014138362
 30
0.0
 11
3702.083031437242
 21
5057.938914138363
 31
0.0
  0
LINE
  5
1E4
330
1F
100
AcDbEntity
  8
RIGHT_OUTSIDECUTPATH
100
AcDbLine
 10
3702.083031437242
 20
5057.938914138363
 30
0.0
 11
3705.083031437242
 21
5057.938914138363
 31
0.0
  0
LINE
  5
1E5
330
1F
100
AcDbEntity
  8
RIGHT_OUTSIDECUTPATH
100
AcDbLine
 10
3705.083031437242
 20
5057.938914138363
 30
0.0
 11
3705.083031437242
 21
5030.214814138362
 31
0.0
  0
LINE
  5
1E6
330
1F
100
AcDbEntity
  8
RIGHT_OUTSIDECUTPATH
100
AcDbLine
 10
3705.083031437242
 20
5030.214814138362
 30
0.0
 11
3702.083031437242
 21
5030.214814138362
 31
0.0
  0
LINE
  5
1E7
330
1F
100
AcDbEntity
  8
RIGHT_OUTSIDECUTPATH
100
AcDbLine
 10
3702.083031437242
 20
5030.214814138362
 30
0.0
 11
3702.083031437242
 21
5002.490714138362
 31
0.0
  0
LINE
  5
1E8
330
1F
100
AcDbEntity
  8
RIGHT_OUTSIDECUTPATH
100
AcDbLine
 10
3702.083031437242
 20
5002.490714138362
 30
0.0
 11
3705.083031437242
 21
5002.490714138362
 31
0.0
  0
LINE
  5
1E9
330
1F
100
AcDbEntity
  8
RIGHT_OUTSIDECUTPATH
100
AcDbLine
 10
3705.083031437242
 20
5002.490714138362
 30
0.0
 11
3705.083031437242
 21
4974.766614138362
 31
0.0
  0
LINE
  5
1EA
330
1F
100
AcDbEntity
  8
RIGHT_OUTSIDECUTPATH
100
AcDbLine
 10
3705.083031437242
 20
4974.766614138362
 30
0.0
 11
3702.083031437242
 21
4974.766614138362
 31
0.0
  0
LINE
  5
1EB
330
1F
100
AcDbEntity
  8
RIGHT_OUTSIDECUTPATH
100
AcDbLine
 10
3702.083031437242
 20
4974.766614138362
 30
0.0
 11
3702.083031437242
 21
4947.042514138362
 31
0.0
  0
LINE
  5
1EC
330
1F
100
AcDbEntity
  8
RIGHT_OUTSIDECUTPATH
100
AcDbLine
 10
3702.083031437242
 20
4947.042514138362
 30
0.0
 11
3705.083031437242
 21
4947.042514138362
 31
0.0
  0
LINE
  5
1ED
330
1F
100
AcDbEntity
  8
RIGHT_OUTSIDECUTPATH
100
AcDbLine
 10
3705.083031437242
 20
4947.042514138362
 30
0.0
 11
3705.083031437242
 21
4919.318414138363
 31
0.0
  0
LINE
  5
1EE
330
1F
100
AcDbEntity
  8
RIGHT_OUTSIDECUTPATH
100
AcDbLine
 10
3705.083031437242
 20
4919.318414138363
 30
0.0
 11
3702.083031437242
 21
4919.318414138363
 31
0.0
  0
LINE
  5
1EF
330
1F
100
AcDbEntity
  8
RIGHT_OUTSIDECUTPATH
100
AcDbLine
 10
3702.083031437242
 20
4919.318414138363
 30
0.0
 11
3702.083031437242
 21
4891.594314138362
 31
0.0
  0
LINE
  5
1F0
330
1F
100
AcDbEntity
  8
RIGHT_OUTSIDECUTPATH
100
AcDbLine
 10
3702.083031437242
 20
4891.594314138362
 30
0.0
 11
3705.083031437242
 21
4891.594314138362
 31
0.0
  0
LINE
  5
1F1
330
1F
100
AcDbEntity
  8
RIGHT_OUTSIDECUTPATH
100
AcDbLine
 10
3705.083031437242
 20
4891.594314138362
 30
0.0
 11
3705.083031437242
 21
4863.870214138362
 31
0.0
  0
LINE
  5
1F2
330
1F
100
AcDbEntity
  8
RIGHT_OUTSIDECUTPATH
100
AcDbLine
 10
3705.083031437242
 20
4863.870214138362
 30
0.0
 11
3702.083031437242
 21
4863.870214138362
 31
0.0
  0
LINE
  5
1F3
330
1F
100
AcDbEntity
  8
RIGHT_OUTSIDECUTPATH
100
AcDbLine
 10
3702.083031437242
 20
4863.870214138362
 30
0.0
 11
3702.083031437242
 21
4836.146114138362
 31
0.0
  0
LINE
  5
1F4
330
1F
100
AcDbEntity
  8
RIGHT_OUTSIDECUTPATH
100
AcDbLine
 10
3702.083031437242
 20
4836.146114138362
 30
0.0
 11
3705.083031437242
 21
4836.146114138362
 31
0.0
  0
LINE
  5
1F5
330
1F
100
AcDbEntity
  8
RIGHT_OUTSIDECUTPATH
100
AcDbLine
 10
3705.083031437242
 20
4836.146114138362
 30
0.0
 11
3705.083031437242
 21
4808.422014138363
 31
0.0
  0
LINE
  5
1F6
330
1F
100
AcDbEntity
  8
RIGHT_OUTSIDECUTPATH
100
AcDbLine
 10
3705.083031437242
 20
4808.422014138363
 30
0.0
 11
3702.083031437242
 21
4808.422014138363
 31
0.0
  0
LINE
  5
1F7
330
1F
100
AcDbEntity
  8
RIGHT_OUTSIDECUTPATH
100
AcDbLine
 10
3702.083031437242
 20
4808.422014138363
 30
0.0
 11
3702.083031437242
 21
4780.697914138362
 31
0.0
  0
LINE
  5
1F8
330
1F
100
AcDbEntity
  8
RIGHT_OUTSIDECUTPATH
100
AcDbLine
 10
3702.083031437242
 20
4780.697914138362
 30
0.0
 11
3705.083031437242
 21
4780.697914138362
 31
0.0
  0
LINE
  5
1F9
330
1F
100
AcDbEntity
  8
RIGHT_OUTSIDECUTPATH
100
AcDbLine
 10
3705.083031437242
 20
4780.697914138362
 30
0.0
 11
3705.083031437242
 21
4752.973814138362
 31
0.0
  0
LINE
  5
1FA
330
1F
100
AcDbEntity
  8
RIGHT_OUTSIDECUTPATH
100
AcDbLine
 10
3705.083031437242
 20
4752.973814138362
 30
0.0
 11
3705.083031437242
 21
4732.680464138362
 31
0.0
  0
LINE
  5
1FB
330
1F
100
AcDbEntity
  8
RIGHT_OUTSIDECUTPATH
100
AcDbLine
 10
3705.083031437242
 20
4732.680464138362
 30
0.0
 11
3743.048681437243
 21
4732.680464138362
 31
0.0
  0
LINE
  5
1FC
330
1F
100
AcDbEntity
  8
RIGHT_OUTSIDECUTPATH
100
AcDbLine
 10
3743.048681437243
 20
4732.680464138362
 30
0.0
 11
3743.048681437243
 21
4735.680464138362
 31
0.0
  0
LINE
  5
1FD
330
1F
100
AcDbEntity
  8
RIGHT_OUTSIDECUTPATH
100
AcDbLine
 10
3743.048681437243
 20
4735.680464138362
 30
0.0
 11
3770.772781437242
 21
4735.680464138362
 31
0.0
  0
LINE
  5
1FE
330
1F
100
AcDbEntity
  8
RIGHT_OUTSIDECUTPATH
100
AcDbLine
 10
3770.772781437242
 20
4735.680464138362
 30
0.0
 11
3770.772781437242
 21
4732.680464138362
 31
0.0
  0
LINE
  5
1FF
330
1F
100
AcDbEntity
  8
RIGHT_OUTSIDECUTPATH
100
AcDbLine
 10
3770.772781437242
 20
4732.680464138362
 30
0.0
 11
3798.496881437242
 21
4732.680464138362
 31
0.0
  0
LINE
  5
200
330
1F
100
AcDbEntity
  8
RIGHT_OUTSIDECUTPATH
100
AcDbLine
 10
3798.496881437242
 20
4732.680464138362
 30
0.0
 11
3798.496881437242
 21
4735.680464138362
 31
0.0
  0
LINE
  5
201
330
1F
100
AcDbEntity
  8
RIGHT_OUTSIDECUTPATH
100
AcDbLine
 10
3798.496881437242
 20
4735.680464138362
 30
0.0
 11
3826.220981437242
 21
4735.680464138362
 31
0.0
  0
LINE
  5
202
330
1F
100
AcDbEntity
  8
RIGHT_OUTSIDECUTPATH
100
AcDbLine
 10
3826.220981437242
 20
4735.680464138362
 30
0.0
 11
3826.220981437242
 21
4732.680464138362
 31
0.0
  0
LINE
  5
203
330
1F
100
AcDbEntity
  8
RIGHT_OUTSIDECUTPATH
100
AcDbLine
 10
3826.220981437242
 20
4732.680464138362
 30
0.0
 11
3853.945081437243
 21
4732.680464138362
 31
0.0
  0
LINE
  5
204
330
1F
100
AcDbEntity
  8
RIGHT_OUTSIDECUTPATH
100
AcDbLine
 10
3853.945081437243
 20
4732.680464138362
 30
0.0
 11
3853.945081437243
 21
4735.680464138362
 31
0.0
  0
LINE
  5
205
330
1F
100
AcDbEntity
  8
RIGHT_OUTSIDECUTPATH
100
AcDbLine
 10
3853.945081437243
 20
4735.680464138362
 30
0.0
 11
3881.669181437243
 21
4735.680464138362
 31
0.0
  0
LINE
  5
206
330
1F
100
AcDbEntity
  8
RIGHT_OUTSIDECUTPATH
100
AcDbLine
 10
3881.669181437243
 20
4735.680464138362
 30
0.0
 11
3881.669181437243
 21
4732.680464138362
 31
0.0
  0
LINE
  5
207
330
1F
100
AcDbEntity
  8
RIGHT_OUTSIDECUTPATH
100
AcDbLine
 10
3881.669181437243
 20
4732.680464138362
 30
0.0
 11
3909.393281437242
 21
4732.680464138362
 31
0.0
  0
LINE
  5
208
330
1F
100
AcDbEntity
  8
RIGHT_OUTSIDECUTPATH
100
AcDbLine
 10
3909.393281437242
 20
4732.680464138362
 30
0.0
 11
3909.393281437242
 21
4735.680464138362
 31
0.0
  0
LINE
  5
209
330
1F
100
AcDbEntity
  8
RIGHT_OUTSIDECUTPATH
100
AcDbLine
 10
3909.393281437242
 20
4735.680464138362
 30
0.0
 11
3937.117381437242
 21
4735.680464138362
 31
0.0
  0
LINE
  5
20A
330
1F
100
AcDbEntity
  8
RIGHT_OUTSIDECUTPATH
100
AcDbLine
 10
3937.117381437242
 20
4735.680464138362
 30
0.0
 11
3937.117381437242
 21
4732.680464138362
 31
0.0
  0
LINE
  5
20B
330
1F
100
AcDbEntity
  8
RIGHT_OUTSIDECUTPATH
100
AcDbLine
 10
3937.117381437242
 20
4732.680464138362
 30
0.0
 11
3964.841481437242
 21
4732.680464138362
 31
0.0
  0
LINE
  5
20C
330
1F
100
AcDbEntity
  8
RIGHT_OUTSIDECUTPATH
100
AcDbLine
 10
3964.841481437242
 20
4732.680464138362
 30
0.0
 11
3975.083031437242
 21
4732.680464138362
 31
0.0
  0
LINE
  5
20D
330
1F
100
AcDbEntity
  8
RIGHT_OUTSIDECUTPATH
100
AcDbLine
 10
3975.083031437242
 20
4732.680464138362
 30
0.0
 11
3975.083031437242
 21
4780.697914138362
 31
0.0
  0
LINE
  5
20E
330
1F
100
AcDbEntity
  8
RIGHT_OUTSIDECUTPATH
100
AcDbLine
 10
3975.083031437242
 20
4780.697914138362
 30
0.0
 11
3978.083031437242
 21
4780.697914138362
 31
0.0
  0
LINE
  5
20F
330
1F
100
AcDbEntity
  8
RIGHT_OUTSIDECUTPATH
100
AcDbLine
 10
3978.083031437242
 20
4780.697914138362
 30
0.0
 11
3978.083031437242
 21
4808.422014138363
 31
0.0
  0
LINE
  5
210
330
1F
100
AcDbEntity
  8
RIGHT_OUTSIDECUTPATH
100
AcDbLine
 10
3978.083031437242
 20
4808.422014138363
 30
0.0
 11
3975.083031437242
 21
4808.422014138363
 31
0.0
  0
LINE
  5
211
330
1F
100
AcDbEntity
  8
RIGHT_OUTSIDECUTPATH
100
AcDbLine
 10
3975.083031437242
 20
4808.422014138363
 30
0.0
 11
3975.083031437242
 21
4836.146114138362
 31
0.0
  0
LINE
  5
212
330
1F
100
AcDbEntity
  8
RIGHT_OUTSIDECUTPATH
100
AcDbLine
 10
3975.083031437242
 20
4836.146114138362
 30
0.0
 11
3978.083031437242
 21
4836.146114138362
 31
0.0
  0
LINE
  5
213
330
1F
100
AcDbEntity
  8
RIGHT_OUTSIDECUTPATH
100
AcDbLine
 10
3978.083031437242
 20
4836.146114138362
 30
0.0
 11
3978.083031437242
 21
4863.870214138362
 31
0.0
  0
LINE
  5
214
330
1F
100
AcDbEntity
  8
RIGHT_OUTSIDECUTPATH
100
AcDbLine
 10
3978.083031437242
 20
4863.870214138362
 30
0.0
 11
3975.083031437242
 21
4863.870214138362
 31
0.0
  0
LINE
  5
215
330
1F
100
AcDbEntity
  8
RIGHT_OUTSIDECUTPATH
100
AcDbLine
 10
3975.083031437242
 20
4863.870214138362
 30
0.0
 11
3975.083031437242
 21
4891.594314138362
 31
0.0
  0
LINE
  5
216
330
1F
100
AcDbEntity
  8
RIGHT_OUTSIDECUTPATH
100
AcDbLine
 10
3975.083031437242
 20
4891.594314138362
 30
0.0
 11
3978.083031437242
 21
4891.594314138362
 31
0.0
  0
LINE
  5
217
330
1F
100
AcDbEntity
  8
RIGHT_OUTSIDECUTPATH
100
AcDbLine
 10
3978.083031437242
 20
4891.594314138362
 30
0.0
 11
3978.083031437242
 21
4919.318414138363
 31
0.0
  0
LINE
  5
218
330
1F
100
AcDbEntity
  8
RIGHT_OUTSIDECUTPATH
100
AcDbLine
 10
3978.083031437242
 20
4919.318414138363
 30
0.0
 11
3975.083031437242
 21
4919.318414138363
 31
0.0
  0
LINE
  5
219
330
1F
100
AcDbEntity
  8
RIGHT_OUTSIDECUTPATH
100
AcDbLine
 10
3975.083031437242
 20
4919.318414138363
 30
0.0
 11
3975.083031437242
 21
4947.042514138362
 31
0.0
  0
LINE
  5
21A
330
1F
100
AcDbEntity
  8
RIGHT_OUTSIDECUTPATH
100
AcDbLine
 10
3975.083031437242
 20
4947.042514138362
 30
0.0
 11
3978.083031437242
 21
4947.042514138362
 31
0.0
  0
LINE
  5
21B
330
1F
100
AcDbEntity
  8
RIGHT_OUTSIDECUTPATH
100
AcDbLine
 10
3978.083031437242
 20
4947.042514138362
 30
0.0
 11
3978.083031437242
 21
4974.766614138362
 31
0.0
  0
LINE
  5
21C
330
1F
100
AcDbEntity
  8
RIGHT_OUTSIDECUTPATH
100
AcDbLine
 10
3978.083031437242
 20
4974.766614138362
 30
0.0
 11
3975.083031437242
 21
4974.766614138362
 31
0.0
  0
LINE
  5
21D
330
1F
100
AcDbEntity
  8
RIGHT_OUTSIDECUTPATH
100
AcDbLine
 10
3975.083031437242
 20
4974.766614138362
 30
0.0
 11
3975.083031437242
 21
5002.490714138362
 31
0.0
  0
LINE
  5
21E
330
1F
100
AcDbEntity
  8
RIGHT_OUTSIDECUTPATH
100
AcDbLine
 10
3975.083031437242
 20
5002.490714138362
 30
0.0
 11
3978.083031437242
 21
5002.490714138362
 31
0.0
  0
LINE
  5
21F
330
1F
100
AcDbEntity
  8
RIGHT_OUTSIDECUTPATH
100
AcDbLine
 10
3978.083031437242
 20
5002.490714138362
 30
0.0
 11
3978.083031437242
 21
5030.214814138362
 31
0.0
  0
LINE
  5
220
330
1F
100
AcDbEntity
  8
RIGHT_OUTSIDECUTPATH
100
AcDbLine
 10
3978.083031437242
 20
5030.214814138362
 30
0.0
 11
3975.083031437242
 21
5030.214814138362
 31
0.0
  0
LINE
  5
221
330
1F
100
AcDbEntity
  8
RIGHT_OUTSIDECUTPATH
100
AcDbLine
 10
3975.083031437242
 20
5030.214814138362
 30
0.0
 11
3975.083031437242
 21
5057.938914138363
 31
0.0
  0
LINE
  5
222
330
1F
100
AcDbEntity
  8
RIGHT_OUTSIDECUTPATH
100
AcDbLine
 10
3975.083031437242
 20
5057.938914138363
 30
0.0
 11
3978.083031437242
 21
5057.938914138363
 31
0.0
  0
LINE
  5
223
330
1F
100
AcDbEntity
  8
RIGHT_OUTSIDECUTPATH
100
AcDbLine
 10
3978.083031437242
 20
5057.938914138363
 30
0.0
 11
3978.083031437242
 21
5085.663014138362
 31
0.0
  0
LINE
  5
224
330
1F
100
AcDbEntity
  8
RIGHT_OUTSIDECUTPATH
100
AcDbLine
 10
3978.083031437242
 20
5085.663014138362
 30
0.0
 11
3975.083031437242
 21
5085.663014138362
 31
0.0
  0
LINE
  5
225
330
1F
100
AcDbEntity
  8
RIGHT_OUTSIDECUTPATH
100
AcDbLine
 10
3975.083031437242
 20
5085.663014138362
 30
0.0
 11
3975.083031437242
 21
5113.387114138362
 31
0.0
  0
LINE
  5
226
330
1F
100
AcDbEntity
  8
RIGHT_OUTSIDECUTPATH
100
AcDbLine
 10
3975.083031437242
 20
5113.387114138362
 30
0.0
 11
3975.083031437242
 21
5133.680464138362
 31
0.0
  0
LINE
  5
227
330
1F
100
AcDbEntity
  8
RIGHT_OUTSIDECUTPATH
100
AcDbLine
 10
3975.083031437242
 20
5133.680464138362
 30
0.0
 11
3937.117381437242
 21
5133.680464138362
 31
0.0
  0
LINE
  5
228
330
1F
100
AcDbEntity
  8
RIGHT_OUTSIDECUTPATH
100
AcDbLine
 10
3937.117381437242
 20
5133.680464138362
 30
0.0
 11
3937.117381437242
 21
5130.680464138362
 31
0.0
  0
LINE
  5
229
330
1F
100
AcDbEntity
  8
RIGHT_OUTSIDECUTPATH
100
AcDbLine
 10
3937.117381437242
 20
5130.680464138362
 30
0.0
 11
3909.393281437242
 21
5130.680464138362
 31
0.0
  0
LINE
  5
22A
330
1F
100
AcDbEntity
  8
RIGHT_OUTSIDECUTPATH
100
AcDbLine
 10
3909.393281437242
 20
5130.680464138362
 30
0.0
 11
3909.393281437242
 21
5133.680464138362
 31
0.0
  0
LINE
  5
22B
330
1F
100
AcDbEntity
  8
RIGHT_OUTSIDECUTPATH
100
AcDbLine
 10
3909.393281437242
 20
5133.680464138362
 30
0.0
 11
3881.669181437243
 21
5133.680464138362
 31
0.0
  0
LINE
  5
22C
330
1F
100
AcDbEntity
  8
RIGHT_OUTSIDECUTPATH
100
AcDbLine
 10
3881.669181437243
 20
5133.680464138362
 30
0.0
 11
3881.669181437243
 21
5130.680464138362
 31
0.0
  0
LINE
  5
22D
330
1F
100
AcDbEntity
  8
RIGHT_OUTSIDECUTPATH
100
AcDbLine
 10
3881.669181437243
 20
5130.680464138362
 30
0.0
 11
3853.945081437243
 21
5130.680464138362
 31
0.0
  0
LINE
  5
22E
330
1F
100
AcDbEntity
  8
RIGHT_OUTSIDECUTPATH
100
AcDbLine
 10
3853.945081437243
 20
5130.680464138362
 30
0.0
 11
3853.945081437243
 21
5133.680464138362
 31
0.0
  0
LINE
  5
22F
330
1F
100
AcDbEntity
  8
RIGHT_OUTSIDECUTPATH
100
AcDbLine
 10
3853.945081437243
 20
5133.680464138362
 30
0.0
 11
3826.220981437242
 21
5133.680464138362
 31
0.0
  0
LINE
  5
230
330
1F
100
AcDbEntity
  8
RIGHT_OUTSIDECUTPATH
100
AcDbLine
 10
3826.220981437242
 20
5133.680464138362
 30
0.0
 11
3826.220981437242
 21
5130.680464138362
 31
0.0
  0
LINE
  5
231
330
1F
100
AcDbEntity
  8
RIGHT_OUTSIDECUTPATH
100
AcDbLine
 10
3826.220981437242
 20
5130.680464138362
 30
0.0
 11
3798.496881437242
 21
5130.680464138362
 31
0.0
  0
LINE
  5
232
330
1F
100
AcDbEntity
  8
RIGHT_OUTSIDECUTPATH
100
AcDbLine
 10
3798.496881437242
 20
5130.680464138362
 30
0.0
 11
3798.496881437242
 21
5133.680464138362
 31
0.0
  0
LINE
  5
233
330
1F
100
AcDbEntity
  8
RIGHT_OUTSIDECUTPATH
100
AcDbLine
 10
3798.496881437242
 20
5133.680464138362
 30
0.0
 11
3770.772781437242
 21
5133.680464138362
 31
0.0
  0
LINE
  5
234
330
1F
100
AcDbEntity
  8
RIGHT_OUTSIDECUTPATH
100
AcDbLine
 10
3770.772781437242
 20
5133.680464138362
 30
0.0
 11
3770.772781437242
 21
5130.680464138362
 31
0.0
  0
LINE
  5
235
330
1F
100
AcDbEntity
  8
RIGHT_OUTSIDECUTPATH
100
AcDbLine
 10
3770.772781437242
 20
5130.680464138362
 30
0.0
 11
3743.048681437243
 21
5130.680464138362
 31
0.0
  0
LINE
  5
236
330
1F
100
AcDbEntity
  8
RIGHT_OUTSIDECUTPATH
100
AcDbLine
 10
3743.048681437243
 20
5130.680464138362
 30
0.0
 11
3743.048681437243
 21
5133.680464138362
 31
0.0
  0
LINE
  5
237
330
1F
100
AcDbEntity
  8
RIGHT_OUTSIDECUTPATH
100
AcDbLine
 10
3743.048681437243
 20
5133.680464138362
 30
0.0
 11
3715.324581437243
 21
5133.680464138362
 31
0.0
  0
LINE
  5
238
330
1F
100
AcDbEntity
  8
RIGHT_OUTSIDECUTPATH
100
AcDbLine
 10
3715.324581437243
 20
5133.680464138362
 30
0.0
 11
3705.083031437242
 21
5133.680464138362
 31
0.0
  0
CIRCLE
  5
239
330
1F
100
AcDbEntity
  8
DEFAULT
100
AcDbCircle
 10
3840.083031437242
 20
4933.180464138362
 30
0.0
 40
3.0
  0
POLYLINE
  5
23A
330
1F
100
AcDbEntity
  8
DEFAULT
100
AcDb2dPolyline
 66
     1
 10
0.0
 20
0.0
 30
0.0
 70
     1
  0
VERTEX
  5
23B
330
23A
100
AcDbEntity
  8
DEFAULT
100
AcDbVertex
100
AcDb2dVertex
 10
3765.083031437242
 20
4917.880464138361
 30
0.0
  0
VERTEX
  5
23C
330
23A
100
AcDbEntity
  8
DEFAULT
100
AcDbVertex
100
AcDb2dVertex
 10
3765.083031437242
 20
4920.880464138361
 30
0.0
  0
VERTEX
  5
23D
330
23A
100
AcDbEntity
  8
DEFAULT
100
AcDbVertex
100
AcDb2dVertex
 10
3730.083031437242
 20
4920.880464138361
 30
0.0
  0
VERTEX
  5
23E
330
23A
100
AcDbEntity
  8
DEFAULT
100
AcDbVertex
100
AcDb2dVertex
 10
3730.083031437242
 20
4917.880464138361
 30
0.0
  0
SEQEND
  5
23F
330
23A
100
AcDbEntity
  8
DEFAULT
  0
POLYLINE
  5
240
330
1F
100
AcDbEntity
  8
DEFAULT
100
AcDb2dPolyline
 66
     1
 10
0.0
 20
0.0
 30
0.0
 70
     1
  0
VERTEX
  5
241
330
240
100
AcDbEntity
  8
DEFAULT
100
AcDbVertex
100
AcDb2dVertex
 10
3765.083031437242
 20
4948.480464138362
 30
0.0
  0
VERTEX
  5
242
330
240
100
AcDbEntity
  8
DEFAULT
100
AcDbVertex
100
AcDb2dVertex
 10
3765.083031437242
 20
4945.480464138362
 30
0.0
  0
VERTEX
  5
243
330
240
100
AcDbEntity
  8
DEFAULT
100
AcDbVertex
100
AcDb2dVertex
 10
3730.083031437242
 20
4945.480464138362
 30
0.0
  0
VERTEX
  5
244
330
240
100
AcDbEntity
  8
DEFAULT
100
AcDbVertex
100
AcDb2dVertex
 10
3730.083031437242
 20
4948.480464138362
 30
0.0
  0
SEQEND
  5
245
330
240
100
AcDbEntity
  8
DEFAULT
  0
POLYLINE
  5
246
330
1F
100
AcDbEntity
  8
DEFAULT
100
AcDb2dPolyline
 66
     1
 10
0.0
 20
0.0
 30
0.0
 70
     1
  0
VERTEX
  5
247
330
246
100
AcDbEntity
  8
DEFAULT
100
AcDbVertex
100
AcDb2dVertex
 10
3915.083031437242
 20
4917.880464138361
 30
0.0
  0
VERTEX
  5
248
330
246
100
AcDbEntity
  8
DEFAULT
100
AcDbVertex
100
AcDb2dVertex
 10
3915.083031437242
 20
4920.880464138361
 30
0.0
  0
VERTEX
  5
249
330
246
100
AcDbEntity
  8
DEFAULT
100
AcDbVertex
100
AcDb2dVertex
 10
3950.083031437242
 20
4920.880464138361
 30
0.0
  0
VERTEX
  5
24A
330
246
100
AcDbEntity
  8
DEFAULT
100
AcDbVertex
100
AcDb2dVertex
 10
3950.083031437242
 20
4917.880464138361
 30
0.0
  0
SEQEND
  5
24B
330
246
100
AcDbEntity
  8
DEFAULT
  0
POLYLINE
  5
24C
330
1F
100
AcDbEntity
  8
DEFAULT
100
AcDb2dPolyline
 66
     1
 10
0.0
 20
0.0
 30
0.0
 70
     1
  0
VERTEX
  5
24D
330
24C
100
AcDbEntity
  8
DEFAULT
100
AcDbVertex
100
AcDb2dVertex
 10
3915.083031437242
 20
4948.480464138362
 30
0.0
  0
VERTEX
  5
24E
330
24C
100
AcDbEntity
  8
DEFAULT
100
AcDbVertex
100
AcDb2dVertex
 10
3915.083031437242
 20
4945.480464138362
 30
0.0
  0
VERTEX
  5
24F
330
24C
100
AcDbEntity
  8
DEFAULT
100
AcDbVertex
100
AcDb2dVertex
 10
3950.083031437242
 20
4945.480464138362
 30
0.0
  0
VERTEX
  5
250
330
24C
100
AcDbEntity
  8
DEFAULT
100
AcDbVertex
100
AcDb2dVertex
 10
3950.083031437242
 20
4948.480464138362
 30
0.0
  0
SEQEND
  5
251
330
24C
100
AcDbEntity
  8
DEFAULT
  0
CIRCLE
  5
252
330
1F
100
AcDbEntity
  8
DEFAULT
100
AcDbCircle
 10
3620.590482908125
 20
4932.540938327495
 30
0.0
 40
1.0
  0
CIRCLE
  5
253
330
1F
100
AcDbEntity
  8
DEFAULT
100
AcDbCircle
 10
3620.590482908125
 20
4528.540938327495
 30
0.0
 40
1.0
  0
POLYLINE
  5
254
330
1F
100
AcDbEntity
  8
DEFAULT
100
AcDb2dPolyline
 66
     1
 10
0.0
 20
0.0
 30
0.0
 70
     1
  0
VERTEX
  5
255
330
254
100
AcDbEntity
  8
DEFAULT
100
AcDbVertex
100
AcDb2dVertex
 10
3666.89561315643
 20
4948.340938327495
 30
0.0
  0
VERTEX
  5
256
330
254
100
AcDbEntity
  8
DEFAULT
100
AcDbVertex
100
AcDb2dVertex
 10
3666.89561315643
 20
4945.340938327495
 30
0.0
  0
VERTEX
  5
257
330
254
100
AcDbEntity
  8
DEFAULT
100
AcDbVertex
100
AcDb2dVertex
 10
3631.89561315643
 20
4945.340938327495
 30
0.0
  0
VERTEX
  5
258
330
254
100
AcDbEntity
  8
DEFAULT
100
AcDbVertex
100
AcDb2dVertex
 10
3631.89561315643
 20
4948.340938327495
 30
0.0
  0
SEQEND
  5
259
330
254
100
AcDbEntity
  8
DEFAULT
  0
POLYLINE
  5
25A
330
1F
100
AcDbEntity
  8
DEFAULT
100
AcDb2dPolyline
 66
     1
 10
0.0
 20
0.0
 30
0.0
 70
     1
  0
VERTEX
  5
25B
330
25A
100
AcDbEntity
  8
DEFAULT
100
AcDbVertex
100
AcDb2dVertex
 10
3666.89561315643
 20
4917.740938327494
 30
0.0
  0
VERTEX
  5
25C
330
25A
100
AcDbEntity
  8
DEFAULT
100
AcDbVertex
100
AcDb2dVertex
 10
3666.89561315643
 20
4920.740938327494
 30
0.0
  0
VERTEX
  5
25D
330
25A
100
AcDbEntity
  8
DEFAULT
100
AcDbVertex
100
AcDb2dVertex
 10
3631.89561315643
 20
4920.740938327494
 30
0.0
  0
VERTEX
  5
25E
330
25A
100
AcDbEntity
  8
DEFAULT
100
AcDbVertex
100
AcDb2dVertex
 10
3631.89561315643
 20
4917.740938327494
 30
0.0
  0
SEQEND
  5
25F
330
25A
100
AcDbEntity
  8
DEFAULT
  0
POLYLINE
  5
260
330
1F
100
AcDbEntity
  8
DEFAULT
100
AcDb2dPolyline
 66
     1
 10
0.0
 20
0.0
 30
0.0
 70
     1
  0
VERTEX
  5
261
330
260
100
AcDbEntity
  8
DEFAULT
100
AcDbVertex
100
AcDb2dVertex
 10
3666.89561315643
 20
4544.340938327495
 30
0.0
  0
VERTEX
  5
262
330
260
100
AcDbEntity
  8
DEFAULT
100
AcDbVertex
100
AcDb2dVertex
 10
3666.89561315643
 20
4541.340938327495
 30
0.0
  0
VERTEX
  5
263
330
260
100
AcDbEntity
  8
DEFAULT
100
AcDbVertex
100
AcDb2dVertex
 10
3631.89561315643
 20
4541.340938327495
 30
0.0
  0
VERTEX
  5
264
330
260
100
AcDbEntity
  8
DEFAULT
100
AcDbVertex
100
AcDb2dVertex
 10
3631.89561315643
 20
4544.340938327495
 30
0.0
  0
SEQEND
  5
265
330
260
100
AcDbEntity
  8
DEFAULT
  0
POLYLINE
  5
266
330
1F
100
AcDbEntity
  8
DEFAULT
100
AcDb2dPolyline
 66
     1
 10
0.0
 20
0.0
 30
0.0
 70
     1
  0
VERTEX
  5
267
330
266
100
AcDbEntity
  8
DEFAULT
100
AcDbVertex
100
AcDb2dVertex
 10
3666.89561315643
 20
4513.740938327494
 30
0.0
  0
VERTEX
  5
268
330
266
100
AcDbEntity
  8
DEFAULT
100
AcDbVertex
100
AcDb2dVertex
 10
3666.89561315643
 20
4516.740938327494
 30
0.0
  0
VERTEX
  5
269
330
266
100
AcDbEntity
  8
DEFAULT
100
AcDbVertex
100
AcDb2dVertex
 10
3631.89561315643
 20
4516.740938327494
 30
0.0
  0
VERTEX
  5
26A
330
266
100
AcDbEntity
  8
DEFAULT
100
AcDbVertex
100
AcDb2dVertex
 10
3631.89561315643
 20
4513.740938327494
 30
0.0
  0
SEQEND
  5
26B
330
266
100
AcDbEntity
  8
DEFAULT
  0
LINE
  5
26D
330
1F
100
AcDbEntity
  8
FRONT_OUTSIDECUTPATH
100
AcDbLine
 10
3268.89561315643
 20
4729.540938327495
 30
0.0
 11
3268.89561315643
 21
4681.523488327495
 31
0.0
  0
LINE
  5
26E
330
1F
100
AcDbEntity
  8
FRONT_OUTSIDECUTPATH
100
AcDbLine
 10
3268.89561315643
 20
4681.523488327495
 30
0.0
 11
3271.89561315643
 21
4681.523488327495
 31
0.0
  0
LINE
  5
26F
330
1F
100
AcDbEntity
  8
FRONT_OUTSIDECUTPATH
100
AcDbLine
 10
3271.89561315643
 20
4681.523488327495
 30
0.0
 11
3271.89561315643
 21
4653.799388327494
 31
0.0
  0
LINE
  5
270
330
1F
100
AcDbEntity
  8
FRONT_OUTSIDECUTPATH
100
AcDbLine
 10
3271.89561315643
 20
4653.799388327494
 30
0.0
 11
3268.89561315643
 21
4653.799388327494
 31
0.0
  0
LINE
  5
271
330
1F
100
AcDbEntity
  8
FRONT_OUTSIDECUTPATH
100
AcDbLine
 10
3268.89561315643
 20
4653.799388327494
 30
0.0
 11
3268.89561315643
 21
4626.075288327494
 31
0.0
  0
LINE
  5
272
330
1F
100
AcDbEntity
  8
FRONT_OUTSIDECUTPATH
100
AcDbLine
 10
3268.89561315643
 20
4626.075288327494
 30
0.0
 11
3271.89561315643
 21
4626.075288327494
 31
0.0
  0
LINE
  5
273
330
1F
100
AcDbEntity
  8
FRONT_OUTSIDECUTPATH
100
AcDbLine
 10
3271.89561315643
 20
4626.075288327494
 30
0.0
 11
3271.89561315643
 21
4598.351188327495
 31
0.0
  0
LINE
  5
274
330
1F
100
AcDbEntity
  8
FRONT_OUTSIDECUTPATH
100
AcDbLine
 10
3271.89561315643
 20
4598.351188327495
 30
0.0
 11
3268.89561315643
 21
4598.351188327495
 31
0.0
  0
LINE
  5
275
330
1F
100
AcDbEntity
  8
FRONT_OUTSIDECUTPATH
100
AcDbLine
 10
3268.89561315643
 20
4598.351188327495
 30
0.0
 11
3268.89561315643
 21
4570.627088327495
 31
0.0
  0
LINE
  5
276
330
1F
100
AcDbEntity
  8
FRONT_OUTSIDECUTPATH
100
AcDbLine
 10
3268.89561315643
 20
4570.627088327495
 30
0.0
 11
3271.89561315643
 21
4570.627088327495
 31
0.0
  0
LINE
  5
277
330
1F
100
AcDbEntity
  8
FRONT_OUTSIDECUTPATH
100
AcDbLine
 10
3271.89561315643
 20
4570.627088327495
 30
0.0
 11
3271.89561315643
 21
4542.902988327494
 31
0.0
  0
LINE
  5
278
330
1F
100
AcDbEntity
  8
FRONT_OUTSIDECUTPATH
100
AcDbLine
 10
3271.89561315643
 20
4542.902988327494
 30
0.0
 11
3268.89561315643
 21
4542.902988327494
 31
0.0
  0
LINE
  5
279
330
1F
100
AcDbEntity
  8
FRONT_OUTSIDECUTPATH
100
AcDbLine
 10
3268.89561315643
 20
4542.902988327494
 30
0.0
 11
3268.89561315643
 21
4515.178888327495
 31
0.0
  0
LINE
  5
27A
330
1F
100
AcDbEntity
  8
FRONT_OUTSIDECUTPATH
100
AcDbLine
 10
3268.89561315643
 20
4515.178888327495
 30
0.0
 11
3271.89561315643
 21
4515.178888327495
 31
0.0
  0
LINE
  5
27B
330
1F
100
AcDbEntity
  8
FRONT_OUTSIDECUTPATH
100
AcDbLine
 10
3271.89561315643
 20
4515.178888327495
 30
0.0
 11
3271.89561315643
 21
4487.454788327494
 31
0.0
  0
LINE
  5
27C
330
1F
100
AcDbEntity
  8
FRONT_OUTSIDECUTPATH
100
AcDbLine
 10
3271.89561315643
 20
4487.454788327494
 30
0.0
 11
3268.89561315643
 21
4487.454788327494
 31
0.0
  0
LINE
  5
27D
330
1F
100
AcDbEntity
  8
FRONT_OUTSIDECUTPATH
100
AcDbLine
 10
3268.89561315643
 20
4487.454788327494
 30
0.0
 11
3268.89561315643
 21
4459.730688327494
 31
0.0
  0
LINE
  5
27E
330
1F
100
AcDbEntity
  8
FRONT_OUTSIDECUTPATH
100
AcDbLine
 10
3268.89561315643
 20
4459.730688327494
 30
0.0
 11
3271.89561315643
 21
4459.730688327494
 31
0.0
  0
LINE
  5
27F
330
1F
100
AcDbEntity
  8
FRONT_OUTSIDECUTPATH
100
AcDbLine
 10
3271.89561315643
 20
4459.730688327494
 30
0.0
 11
3271.89561315643
 21
4432.006588327495
 31
0.0
  0
LINE
  5
280
330
1F
100
AcDbEntity
  8
FRONT_OUTSIDECUTPATH
100
AcDbLine
 10
3271.89561315643
 20
4432.006588327495
 30
0.0
 11
3268.89561315643
 21
4432.006588327495
 31
0.0
  0
LINE
  5
281
330
1F
100
AcDbEntity
  8
FRONT_OUTSIDECUTPATH
100
AcDbLine
 10
3268.89561315643
 20
4432.006588327495
 30
0.0
 11
3268.89561315643
 21
4404.282488327495
 31
0.0
  0
LINE
  5
282
330
1F
100
AcDbEntity
  8
FRONT_OUTSIDECUTPATH
100
AcDbLine
 10
3268.89561315643
 20
4404.282488327495
 30
0.0
 11
3271.89561315643
 21
4404.282488327495
 31
0.0
  0
LINE
  5
283
330
1F
100
AcDbEntity
  8
FRONT_OUTSIDECUTPATH
100
AcDbLine
 10
3271.89561315643
 20
4404.282488327495
 30
0.0
 11
3271.89561315643
 21
4376.558388327494
 31
0.0
  0
LINE
  5
284
330
1F
100
AcDbEntity
  8
FRONT_OUTSIDECUTPATH
100
AcDbLine
 10
3271.89561315643
 20
4376.558388327494
 30
0.0
 11
3268.89561315643
 21
4376.558388327494
 31
0.0
  0
LINE
  5
285
330
1F
100
AcDbEntity
  8
FRONT_OUTSIDECUTPATH
100
AcDbLine
 10
3268.89561315643
 20
4376.558388327494
 30
0.0
 11
3268.89561315643
 21
4348.834288327495
 31
0.0
  0
LINE
  5
286
330
1F
100
AcDbEntity
  8
FRONT_OUTSIDECUTPATH
100
AcDbLine
 10
3268.89561315643
 20
4348.834288327495
 30
0.0
 11
3268.89561315643
 21
4328.540938327495
 31
0.0
  0
LINE
  5
287
330
1F
100
AcDbEntity
  8
FRONT_OUTSIDECUTPATH
100
AcDbLine
 10
3268.89561315643
 20
4328.540938327495
 30
0.0
 11
3301.68896315643
 21
4328.540938327495
 31
0.0
  0
LINE
  5
288
330
1F
100
AcDbEntity
  8
FRONT_OUTSIDECUTPATH
100
AcDbLine
 10
3301.68896315643
 20
4328.540938327495
 30
0.0
 11
3301.68896315643
 21
4331.540938327495
 31
0.0
  0
LINE
  5
289
330
1F
100
AcDbEntity
  8
FRONT_OUTSIDECUTPATH
100
AcDbLine
 10
3301.68896315643
 20
4331.540938327495
 30
0.0
 11
3329.413063156429
 21
4331.540938327495
 31
0.0
  0
LINE
  5
28A
330
1F
100
AcDbEntity
  8
FRONT_OUTSIDECUTPATH
100
AcDbLine
 10
3329.413063156429
 20
4331.540938327495
 30
0.0
 11
3329.413063156429
 21
4328.540938327495
 31
0.0
  0
LINE
  5
28B
330
1F
100
AcDbEntity
  8
FRONT_OUTSIDECUTPATH
100
AcDbLine
 10
3329.413063156429
 20
4328.540938327495
 30
0.0
 11
3357.137163156431
 21
4328.540938327495
 31
0.0
  0
LINE
  5
28C
330
1F
100
AcDbEntity
  8
FRONT_OUTSIDECUTPATH
100
AcDbLine
 10
3357.137163156431
 20
4328.540938327495
 30
0.0
 11
3357.137163156431
 21
4331.540938327495
 31
0.0
  0
LINE
  5
28D
330
1F
100
AcDbEntity
  8
FRONT_OUTSIDECUTPATH
100
AcDbLine
 10
3357.137163156431
 20
4331.540938327495
 30
0.0
 11
3384.86126315643
 21
4331.540938327495
 31
0.0
  0
LINE
  5
28E
330
1F
100
AcDbEntity
  8
FRONT_OUTSIDECUTPATH
100
AcDbLine
 10
3384.86126315643
 20
4331.540938327495
 30
0.0
 11
3384.86126315643
 21
4328.540938327495
 31
0.0
  0
LINE
  5
28F
330
1F
100
AcDbEntity
  8
FRONT_OUTSIDECUTPATH
100
AcDbLine
 10
3384.86126315643
 20
4328.540938327495
 30
0.0
 11
3412.58536315643
 21
4328.540938327495
 31
0.0
  0
LINE
  5
290
330
1F
100
AcDbEntity
  8
FRONT_OUTSIDECUTPATH
100
AcDbLine
 10
3412.58536315643
 20
4328.540938327495
 30
0.0
 11
3412.58536315643
 21
4331.540938327495
 31
0.0
  0
LINE
  5
291
330
1F
100
AcDbEntity
  8
FRONT_OUTSIDECUTPATH
100
AcDbLine
 10
3412.58536315643
 20
4331.540938327495
 30
0.0
 11
3440.30946315643
 21
4331.540938327495
 31
0.0
  0
LINE
  5
292
330
1F
100
AcDbEntity
  8
FRONT_OUTSIDECUTPATH
100
AcDbLine
 10
3440.30946315643
 20
4331.540938327495
 30
0.0
 11
3440.30946315643
 21
4328.540938327495
 31
0.0
  0
LINE
  5
293
330
1F
100
AcDbEntity
  8
FRONT_OUTSIDECUTPATH
100
AcDbLine
 10
3440.30946315643
 20
4328.540938327495
 30
0.0
 11
3468.03356315643
 21
4328.540938327495
 31
0.0
  0
LINE
  5
294
330
1F
100
AcDbEntity
  8
FRONT_OUTSIDECUTPATH
100
AcDbLine
 10
3468.03356315643
 20
4328.540938327495
 30
0.0
 11
3468.03356315643
 21
4331.540938327495
 31
0.0
  0
LINE
  5
295
330
1F
100
AcDbEntity
  8
FRONT_OUTSIDECUTPATH
100
AcDbLine
 10
3468.03356315643
 20
4331.540938327495
 30
0.0
 11
3495.75766315643
 21
4331.540938327495
 31
0.0
  0
LINE
  5
296
330
1F
100
AcDbEntity
  8
FRONT_OUTSIDECUTPATH
100
AcDbLine
 10
3495.75766315643
 20
4331.540938327495
 30
0.0
 11
3495.75766315643
 21
4328.540938327495
 31
0.0
  0
LINE
  5
297
330
1F
100
AcDbEntity
  8
FRONT_OUTSIDECUTPATH
100
AcDbLine
 10
3495.75766315643
 20
4328.540938327495
 30
0.0
 11
3523.48176315643
 21
4328.540938327495
 31
0.0
  0
LINE
  5
298
330
1F
100
AcDbEntity
  8
FRONT_OUTSIDECUTPATH
100
AcDbLine
 10
3523.48176315643
 20
4328.540938327495
 30
0.0
 11
3523.48176315643
 21
4331.540938327495
 31
0.0
  0
LINE
  5
299
330
1F
100
AcDbEntity
  8
FRONT_OUTSIDECUTPATH
100
AcDbLine
 10
3523.48176315643
 20
4331.540938327495
 30
0.0
 11
3551.20586315643
 21
4331.540938327495
 31
0.0
  0
LINE
  5
29A
330
1F
100
AcDbEntity
  8
FRONT_OUTSIDECUTPATH
100
AcDbLine
 10
3551.20586315643
 20
4331.540938327495
 30
0.0
 11
3551.20586315643
 21
4328.540938327495
 31
0.0
  0
LINE
  5
29B
330
1F
100
AcDbEntity
  8
FRONT_OUTSIDECUTPATH
100
AcDbLine
 10
3551.20586315643
 20
4328.540938327495
 30
0.0
 11
3578.92996315643
 21
4328.540938327495
 31
0.0
  0
LINE
  5
29C
330
1F
100
AcDbEntity
  8
FRONT_OUTSIDECUTPATH
100
AcDbLine
 10
3578.92996315643
 20
4328.540938327495
 30
0.0
 11
3578.92996315643
 21
4331.540938327495
 31
0.0
  0
LINE
  5
29D
330
1F
100
AcDbEntity
  8
FRONT_OUTSIDECUTPATH
100
AcDbLine
 10
3578.92996315643
 20
4331.540938327495
 30
0.0
 11
3606.654063156429
 21
4331.540938327495
 31
0.0
  0
LINE
  5
29E
330
1F
100
AcDbEntity
  8
FRONT_OUTSIDECUTPATH
100
AcDbLine
 10
3606.654063156429
 20
4331.540938327495
 30
0.0
 11
3606.654063156429
 21
4328.540938327495
 31
0.0
  0
LINE
  5
29F
330
1F
100
AcDbEntity
  8
FRONT_OUTSIDECUTPATH
100
AcDbLine
 10
3606.654063156429
 20
4328.540938327495
 30
0.0
 11
3634.378163156431
 21
4328.540938327495
 31
0.0
  0
LINE
  5
2A0
330
1F
100
AcDbEntity
  8
FRONT_OUTSIDECUTPATH
100
AcDbLine
 10
3634.378163156431
 20
4328.540938327495
 30
0.0
 11
3634.378163156431
 21
4331.540938327495
 31
0.0
  0
LINE
  5
2A1
330
1F
100
AcDbEntity
  8
FRONT_OUTSIDECUTPATH
100
AcDbLine
 10
3634.378163156431
 20
4331.540938327495
 30
0.0
 11
3662.10226315643
 21
4331.540938327495
 31
0.0
  0
LINE
  5
2A2
330
1F
100
AcDbEntity
  8
FRONT_OUTSIDECUTPATH
100
AcDbLine
 10
3662.10226315643
 20
4331.540938327495
 30
0.0
 11
3662.10226315643
 21
4328.540938327495
 31
0.0
  0
LINE
  5
2A3
330
1F
100
AcDbEntity
  8
FRONT_OUTSIDECUTPATH
100
AcDbLine
 10
3662.10226315643
 20
4328.540938327495
 30
0.0
 11
3694.89561315643
 21
4328.540938327495
 31
0.0
  0
LINE
  5
2A4
330
1F
100
AcDbEntity
  8
FRONT_OUTSIDECUTPATH
100
AcDbLine
 10
3694.89561315643
 20
4328.540938327495
 30
0.0
 11
3694.89561315643
 21
4376.558388327494
 31
0.0
  0
LINE
  5
2A5
330
1F
100
AcDbEntity
  8
FRONT_OUTSIDECUTPATH
100
AcDbLine
 10
3694.89561315643
 20
4376.558388327494
 30
0.0
 11
3691.89561315643
 21
4376.558388327494
 31
0.0
  0
LINE
  5
2A6
330
1F
100
AcDbEntity
  8
FRONT_OUTSIDECUTPATH
100
AcDbLine
 10
3691.89561315643
 20
4376.558388327494
 30
0.0
 11
3691.89561315643
 21
4404.282488327495
 31
0.0
  0
LINE
  5
2A7
330
1F
100
AcDbEntity
  8
FRONT_OUTSIDECUTPATH
100
AcDbLine
 10
3691.89561315643
 20
4404.282488327495
 30
0.0
 11
3694.89561315643
 21
4404.282488327495
 31
0.0
  0
LINE
  5
2A8
330
1F
100
AcDbEntity
  8
FRONT_OUTSIDECUTPATH
100
AcDbLine
 10
3694.89561315643
 20
4404.282488327495
 30
0.0
 11
3694.89561315643
 21
4432.006588327495
 31
0.0
  0
LINE
  5
2A9
330
1F
100
AcDbEntity
  8
FRONT_OUTSIDECUTPATH
100
AcDbLine
 10
3694.89561315643
 20
4432.006588327495
 30
0.0
 11
3691.89561315643
 21
4432.006588327495
 31
0.0
  0
LINE
  5
2AA
330
1F
100
AcDbEntity
  8
FRONT_OUTSIDECUTPATH
100
AcDbLine
 10
3691.89561315643
 20
4432.006588327495
 30
0.0
 11
3691.89561315643
 21
4459.730688327494
 31
0.0
  0
LINE
  5
2AB
330
1F
100
AcDbEntity
  8
FRONT_OUTSIDECUTPATH
100
AcDbLine
 10
3691.89561315643
 20
4459.730688327494
 30
0.0
 11
3694.89561315643
 21
4459.730688327494
 31
0.0
  0
LINE
  5
2AC
330
1F
100
AcDbEntity
  8
FRONT_OUTSIDECUTPATH
100
AcDbLine
 10
3694.89561315643
 20
4459.730688327494
 30
0.0
 11
3694.89561315643
 21
4487.454788327494
 31
0.0
  0
LINE
  5
2AD
330
1F
100
AcDbEntity
  8
FRONT_OUTSIDECUTPATH
100
AcDbLine
 10
3694.89561315643
 20
4487.454788327494
 30
0.0
 11
3691.89561315643
 21
4487.454788327494
 31
0.0
  0
LINE
  5
2AE
330
1F
100
AcDbEntity
  8
FRONT_OUTSIDECUTPATH
100
AcDbLine
 10
3691.89561315643
 20
4487.454788327494
 30
0.0
 11
3691.89561315643
 21
4515.178888327495
 31
0.0
  0
LINE
  5
2AF
330
1F
100
AcDbEntity
  8
FRONT_OUTSIDECUTPATH
100
AcDbLine
 10
3691.89561315643
 20
4515.178888327495
 30
0.0
 11
3694.89561315643
 21
4515.178888327495
 31
0.0
  0
LINE
  5
2B0
330
1F
100
AcDbEntity
  8
FRONT_OUTSIDECUTPATH
100
AcDbLine
 10
3694.89561315643
 20
4515.178888327495
 30
0.0
 11
3694.89561315643
 21
4542.902988327494
 31
0.0
  0
LINE
  5
2B1
330
1F
100
AcDbEntity
  8
FRONT_OUTSIDECUTPATH
100
AcDbLine
 10
3694.89561315643
 20
4542.902988327494
 30
0.0
 11
3691.89561315643
 21
4542.902988327494
 31
0.0
  0
LINE
  5
2B2
330
1F
100
AcDbEntity
  8
FRONT_OUTSIDECUTPATH
100
AcDbLine
 10
3691.89561315643
 20
4542.902988327494
 30
0.0
 11
3691.89561315643
 21
4570.627088327495
 31
0.0
  0
LINE
  5
2B3
330
1F
100
AcDbEntity
  8
FRONT_OUTSIDECUTPATH
100
AcDbLine
 10
3691.89561315643
 20
4570.627088327495
 30
0.0
 11
3694.89561315643
 21
4570.627088327495
 31
0.0
  0
LINE
  5
2B4
330
1F
100
AcDbEntity
  8
FRONT_OUTSIDECUTPATH
100
AcDbLine
 10
3694.89561315643
 20
4570.627088327495
 30
0.0
 11
3694.89561315643
 21
4598.351188327495
 31
0.0
  0
LINE
  5
2B5
330
1F
100
AcDbEntity
  8
FRONT_OUTSIDECUTPATH
100
AcDbLine
 10
3694.89561315643
 20
4598.351188327495
 30
0.0
 11
3691.89561315643
 21
4598.351188327495
 31
0.0
  0
LINE
  5
2B6
330
1F
100
AcDbEntity
  8
FRONT_OUTSIDECUTPATH
100
AcDbLine
 10
3691.89561315643
 20
4598.351188327495
 30
0.0
 11
3691.89561315643
 21
4626.075288327494
 31
0.0
  0
LINE
  5
2B7
330
1F
100
AcDbEntity
  8
FRONT_OUTSIDECUTPATH
100
AcDbLine
 10
3691.89561315643
 20
4626.075288327494
 30
0.0
 11
3694.89561315643
 21
4626.075288327494
 31
0.0
  0
LINE
  5
2B8
330
1F
100
AcDbEntity
  8
FRONT_OUTSIDECUTPATH
100
AcDbLine
 10
3694.89561315643
 20
4626.075288327494
 30
0.0
 11
3694.89561315643
 21
4653.799388327494
 31
0.0
  0
LINE
  5
2B9
330
1F
100
AcDbEntity
  8
FRONT_OUTSIDECUTPATH
100
AcDbLine
 10
3694.89561315643
 20
4653.799388327494
 30
0.0
 11
3691.89561315643
 21
4653.799388327494
 31
0.0
  0
LINE
  5
2BA
330
1F
100
AcDbEntity
  8
FRONT_OUTSIDECUTPATH
100
AcDbLine
 10
3691.89561315643
 20
4653.799388327494
 30
0.0
 11
3691.89561315643
 21
4681.523488327495
 31
0.0
  0
LINE
  5
2BB
330
1F
100
AcDbEntity
  8
FRONT_OUTSIDECUTPATH
100
AcDbLine
 10
3691.89561315643
 20
4681.523488327495
 30
0.0
 11
3694.89561315643
 21
4681.523488327495
 31
0.0
  0
LINE
  5
2BC
330
1F
100
AcDbEntity
  8
FRONT_OUTSIDECUTPATH
100
AcDbLine
 10
3694.89561315643
 20
4681.523488327495
 30
0.0
 11
3694.89561315643
 21
4709.247588327495
 31
0.0
  0
LINE
  5
2BD
330
1F
100
AcDbEntity
  8
FRONT_OUTSIDECUTPATH
100
AcDbLine
 10
3694.89561315643
 20
4709.247588327495
 30
0.0
 11
3694.89561315643
 21
4729.540938327495
 31
0.0
  0
LINE
  5
2BE
330
1F
100
AcDbEntity
  8
FRONT_OUTSIDECUTPATH
100
AcDbLine
 10
3694.89561315643
 20
4729.540938327495
 30
0.0
 11
3662.10226315643
 21
4729.540938327495
 31
0.0
  0
LINE
  5
2BF
330
1F
100
AcDbEntity
  8
FRONT_OUTSIDECUTPATH
100
AcDbLine
 10
3662.10226315643
 20
4729.540938327495
 30
0.0
 11
3662.10226315643
 21
4726.540938327495
 31
0.0
  0
LINE
  5
2C0
330
1F
100
AcDbEntity
  8
FRONT_OUTSIDECUTPATH
100
AcDbLine
 10
3662.10226315643
 20
4726.540938327495
 30
0.0
 11
3634.378163156431
 21
4726.540938327495
 31
0.0
  0
LINE
  5
2C1
330
1F
100
AcDbEntity
  8
FRONT_OUTSIDECUTPATH
100
AcDbLine
 10
3634.378163156431
 20
4726.540938327495
 30
0.0
 11
3634.378163156431
 21
4729.540938327495
 31
0.0
  0
LINE
  5
2C2
330
1F
100
AcDbEntity
  8
FRONT_OUTSIDECUTPATH
100
AcDbLine
 10
3634.378163156431
 20
4729.540938327495
 30
0.0
 11
3606.654063156429
 21
4729.540938327495
 31
0.0
  0
LINE
  5
2C3
330
1F
100
AcDbEntity
  8
FRONT_OUTSIDECUTPATH
100
AcDbLine
 10
3606.654063156429
 20
4729.540938327495
 30
0.0
 11
3606.654063156429
 21
4726.540938327495
 31
0.0
  0
LINE
  5
2C4
330
1F
100
AcDbEntity
  8
FRONT_OUTSIDECUTPATH
100
AcDbLine
 10
3606.654063156429
 20
4726.540938327495
 30
0.0
 11
3578.92996315643
 21
4726.540938327495
 31
0.0
  0
LINE
  5
2C5
330
1F
100
AcDbEntity
  8
FRONT_OUTSIDECUTPATH
100
AcDbLine
 10
3578.92996315643
 20
4726.540938327495
 30
0.0
 11
3578.92996315643
 21
4729.540938327495
 31
0.0
  0
LINE
  5
2C6
330
1F
100
AcDbEntity
  8
FRONT_OUTSIDECUTPATH
100
AcDbLine
 10
3578.92996315643
 20
4729.540938327495
 30
0.0
 11
3551.20586315643
 21
4729.540938327495
 31
0.0
  0
LINE
  5
2C7
330
1F
100
AcDbEntity
  8
FRONT_OUTSIDECUTPATH
100
AcDbLine
 10
3551.20586315643
 20
4729.540938327495
 30
0.0
 11
3551.20586315643
 21
4726.540938327495
 31
0.0
  0
LINE
  5
2C8
330
1F
100
AcDbEntity
  8
FRONT_OUTSIDECUTPATH
100
AcDbLine
 10
3551.20586315643
 20
4726.540938327495
 30
0.0
 11
3523.48176315643
 21
4726.540938327495
 31
0.0
  0
LINE
  5
2C9
330
1F
100
AcDbEntity
  8
FRONT_OUTSIDECUTPATH
100
AcDbLine
 10
3523.48176315643
 20
4726.540938327495
 30
0.0
 11
3523.48176315643
 21
4729.540938327495
 31
0.0
  0
LINE
  5
2CA
330
1F
100
AcDbEntity
  8
FRONT_OUTSIDECUTPATH
100
AcDbLine
 10
3523.48176315643
 20
4729.540938327495
 30
0.0
 11
3495.75766315643
 21
4729.540938327495
 31
0.0
  0
LINE
  5
2CB
330
1F
100
AcDbEntity
  8
FRONT_OUTSIDECUTPATH
100
AcDbLine
 10
3495.75766315643
 20
4729.540938327495
 30
0.0
 11
3495.75766315643
 21
4726.540938327495
 31
0.0
  0
LINE
  5
2CC
330
1F
100
AcDbEntity
  8
FRONT_OUTSIDECUTPATH
100
AcDbLine
 10
3495.75766315643
 20
4726.540938327495
 30
0.0
 11
3468.03356315643
 21
4726.540938327495
 31
0.0
  0
LINE
  5
2CD
330
1F
100
AcDbEntity
  8
FRONT_OUTSIDECUTPATH
100
AcDbLine
 10
3468.03356315643
 20
4726.540938327495
 30
0.0
 11
3468.03356315643
 21
4729.540938327495
 31
0.0
  0
LINE
  5
2CE
330
1F
100
AcDbEntity
  8
FRONT_OUTSIDECUTPATH
100
AcDbLine
 10
3468.03356315643
 20
4729.540938327495
 30
0.0
 11
3440.30946315643
 21
4729.540938327495
 31
0.0
  0
LINE
  5
2CF
330
1F
100
AcDbEntity
  8
FRONT_OUTSIDECUTPATH
100
AcDbLine
 10
3440.30946315643
 20
4729.540938327495
 30
0.0
 11
3440.30946315643
 21
4726.540938327495
 31
0.0
  0
LINE
  5
2D0
330
1F
100
AcDbEntity
  8
FRONT_OUTSIDECUTPATH
100
AcDbLine
 10
3440.30946315643
 20
4726.540938327495
 30
0.0
 11
3412.58536315643
 21
4726.540938327495
 31
0.0
  0
LINE
  5
2D1
330
1F
100
AcDbEntity
  8
FRONT_OUTSIDECUTPATH
100
AcDbLine
 10
3412.58536315643
 20
4726.540938327495
 30
0.0
 11
3412.58536315643
 21
4729.540938327495
 31
0.0
  0
LINE
  5
2D2
330
1F
100
AcDbEntity
  8
FRONT_OUTSIDECUTPATH
100
AcDbLine
 10
3412.58536315643
 20
4729.540938327495
 30
0.0
 11
3384.86126315643
 21
4729.540938327495
 31
0.0
  0
LINE
  5
2D3
330
1F
100
AcDbEntity
  8
FRONT_OUTSIDECUTPATH
100
AcDbLine
 10
3384.86126315643
 20
4729.540938327495
 30
0.0
 11
3384.86126315643
 21
4726.540938327495
 31
0.0
  0
LINE
  5
2D4
330
1F
100
AcDbEntity
  8
FRONT_OUTSIDECUTPATH
100
AcDbLine
 10
3384.86126315643
 20
4726.540938327495
 30
0.0
 11
3357.137163156431
 21
4726.540938327495
 31
0.0
  0
LINE
  5
2D5
330
1F
100
AcDbEntity
  8
FRONT_OUTSIDECUTPATH
100
AcDbLine
 10
3357.137163156431
 20
4726.540938327495
 30
0.0
 11
3357.137163156431
 21
4729.540938327495
 31
0.0
  0
LINE
  5
2D6
330
1F
100
AcDbEntity
  8
FRONT_OUTSIDECUTPATH
100
AcDbLine
 10
3357.137163156431
 20
4729.540938327495
 30
0.0
 11
3329.413063156429
 21
4729.540938327495
 31
0.0
  0
LINE
  5
2D7
330
1F
100
AcDbEntity
  8
FRONT_OUTSIDECUTPATH
100
AcDbLine
 10
3329.413063156429
 20
4729.540938327495
 30
0.0
 11
3329.413063156429
 21
4726.540938327495
 31
0.0
  0
LINE
  5
2D8
330
1F
100
AcDbEntity
  8
FRONT_OUTSIDECUTPATH
100
AcDbLine
 10
3329.413063156429
 20
4726.540938327495
 30
0.0
 11
3301.68896315643
 21
4726.540938327495
 31
0.0
  0
LINE
  5
2D9
330
1F
100
AcDbEntity
  8
FRONT_OUTSIDECUTPATH
100
AcDbLine
 10
3301.68896315643
 20
4726.540938327495
 30
0.0
 11
3301.68896315643
 21
4729.540938327495
 31
0.0
  0
LINE
  5
2DA
330
1F
100
AcDbEntity
  8
FRONT_OUTSIDECUTPATH
100
AcDbLine
 10
3301.68896315643
 20
4729.540938327495
 30
0.0
 11
3268.89561315643
 21
4729.540938327495
 31
0.0
  0
LINE
  5
2DC
330
1F
100
AcDbEntity
  8
BACK_OUTSIDECUTPATH
100
AcDbLine
 10
3268.89561315643
 20
5133.540938327495
 30
0.0
 11
3268.89561315643
 21
5085.523488327494
 31
0.0
  0
LINE
  5
2DD
330
1F
100
AcDbEntity
  8
BACK_OUTSIDECUTPATH
100
AcDbLine
 10
3268.89561315643
 20
5085.523488327494
 30
0.0
 11
3271.89561315643
 21
5085.523488327494
 31
0.0
  0
LINE
  5
2DE
330
1F
100
AcDbEntity
  8
BACK_OUTSIDECUTPATH
100
AcDbLine
 10
3271.89561315643
 20
5085.523488327494
 30
0.0
 11
3271.89561315643
 21
5057.799388327495
 31
0.0
  0
LINE
  5
2DF
330
1F
100
AcDbEntity
  8
BACK_OUTSIDECUTPATH
100
AcDbLine
 10
3271.89561315643
 20
5057.799388327495
 30
0.0
 11
3268.89561315643
 21
5057.799388327495
 31
0.0
  0
LINE
  5
2E0
330
1F
100
AcDbEntity
  8
BACK_OUTSIDECUTPATH
100
AcDbLine
 10
3268.89561315643
 20
5057.799388327495
 30
0.0
 11
3268.89561315643
 21
5030.075288327494
 31
0.0
  0
LINE
  5
2E1
330
1F
100
AcDbEntity
  8
BACK_OUTSIDECUTPATH
100
AcDbLine
 10
3268.89561315643
 20
5030.075288327494
 30
0.0
 11
3271.89561315643
 21
5030.075288327494
 31
0.0
  0
LINE
  5
2E2
330
1F
100
AcDbEntity
  8
BACK_OUTSIDECUTPATH
100
AcDbLine
 10
3271.89561315643
 20
5030.075288327494
 30
0.0
 11
3271.89561315643
 21
5002.351188327494
 31
0.0
  0
LINE
  5
2E3
330
1F
100
AcDbEntity
  8
BACK_OUTSIDECUTPATH
100
AcDbLine
 10
3271.89561315643
 20
5002.351188327494
 30
0.0
 11
3268.89561315643
 21
5002.351188327494
 31
0.0
  0
LINE
  5
2E4
330
1F
100
AcDbEntity
  8
BACK_OUTSIDECUTPATH
100
AcDbLine
 10
3268.89561315643
 20
5002.351188327494
 30
0.0
 11
3268.89561315643
 21
4974.627088327495
 31
0.0
  0
LINE
  5
2E5
330
1F
100
AcDbEntity
  8
BACK_OUTSIDECUTPATH
100
AcDbLine
 10
3268.89561315643
 20
4974.627088327495
 30
0.0
 11
3271.89561315643
 21
4974.627088327495
 31
0.0
  0
LINE
  5
2E6
330
1F
100
AcDbEntity
  8
BACK_OUTSIDECUTPATH
100
AcDbLine
 10
3271.89561315643
 20
4974.627088327495
 30
0.0
 11
3271.89561315643
 21
4946.902988327494
 31
0.0
  0
LINE
  5
2E7
330
1F
100
AcDbEntity
  8
BACK_OUTSIDECUTPATH
100
AcDbLine
 10
3271.89561315643
 20
4946.902988327494
 30
0.0
 11
3268.89561315643
 21
4946.902988327494
 31
0.0
  0
LINE
  5
2E8
330
1F
100
AcDbEntity
  8
BACK_OUTSIDECUTPATH
100
AcDbLine
 10
3268.89561315643
 20
4946.902988327494
 30
0.0
 11
3268.89561315643
 21
4919.178888327495
 31
0.0
  0
LINE
  5
2E9
330
1F
100
AcDbEntity
  8
BACK_OUTSIDECUTPATH
100
AcDbLine
 10
3268.89561315643
 20
4919.178888327495
 30
0.0
 11
3271.89561315643
 21
4919.178888327495
 31
0.0
  0
LINE
  5
2EA
330
1F
100
AcDbEntity
  8
BACK_OUTSIDECUTPATH
100
AcDbLine
 10
3271.89561315643
 20
4919.178888327495
 30
0.0
 11
3271.89561315643
 21
4891.454788327494
 31
0.0
  0
LINE
  5
2EB
330
1F
100
AcDbEntity
  8
BACK_OUTSIDECUTPATH
100
AcDbLine
 10
3271.89561315643
 20
4891.454788327494
 30
0.0
 11
3268.89561315643
 21
4891.454788327494
 31
0.0
  0
LINE
  5
2EC
330
1F
100
AcDbEntity
  8
BACK_OUTSIDECUTPATH
100
AcDbLine
 10
3268.89561315643
 20
4891.454788327494
 30
0.0
 11
3268.89561315643
 21
4863.730688327494
 31
0.0
  0
LINE
  5
2ED
330
1F
100
AcDbEntity
  8
BACK_OUTSIDECUTPATH
100
AcDbLine
 10
3268.89561315643
 20
4863.730688327494
 30
0.0
 11
3271.89561315643
 21
4863.730688327494
 31
0.0
  0
LINE
  5
2EE
330
1F
100
AcDbEntity
  8
BACK_OUTSIDECUTPATH
100
AcDbLine
 10
3271.89561315643
 20
4863.730688327494
 30
0.0
 11
3271.89561315643
 21
4836.006588327495
 31
0.0
  0
LINE
  5
2EF
330
1F
100
AcDbEntity
  8
BACK_OUTSIDECUTPATH
100
AcDbLine
 10
3271.89561315643
 20
4836.006588327495
 30
0.0
 11
3268.89561315643
 21
4836.006588327495
 31
0.0
  0
LINE
  5
2F0
330
1F
100
AcDbEntity
  8
BACK_OUTSIDECUTPATH
100
AcDbLine
 10
3268.89561315643
 20
4836.006588327495
 30
0.0
 11
3268.89561315643
 21
4808.282488327495
 31
0.0
  0
LINE
  5
2F1
330
1F
100
AcDbEntity
  8
BACK_OUTSIDECUTPATH
100
AcDbLine
 10
3268.89561315643
 20
4808.282488327495
 30
0.0
 11
3271.89561315643
 21
4808.282488327495
 31
0.0
  0
LINE
  5
2F2
330
1F
100
AcDbEntity
  8
BACK_OUTSIDECUTPATH
100
AcDbLine
 10
3271.89561315643
 20
4808.282488327495
 30
0.0
 11
3271.89561315643
 21
4780.558388327494
 31
0.0
  0
LINE
  5
2F3
330
1F
100
AcDbEntity
  8
BACK_OUTSIDECUTPATH
100
AcDbLine
 10
3271.89561315643
 20
4780.558388327494
 30
0.0
 11
3268.89561315643
 21
4780.558388327494
 31
0.0
  0
LINE
  5
2F4
330
1F
100
AcDbEntity
  8
BACK_OUTSIDECUTPATH
100
AcDbLine
 10
3268.89561315643
 20
4780.558388327494
 30
0.0
 11
3268.89561315643
 21
4752.834288327495
 31
0.0
  0
LINE
  5
2F5
330
1F
100
AcDbEntity
  8
BACK_OUTSIDECUTPATH
100
AcDbLine
 10
3268.89561315643
 20
4752.834288327495
 30
0.0
 11
3268.89561315643
 21
4732.540938327495
 31
0.0
  0
LINE
  5
2F6
330
1F
100
AcDbEntity
  8
BACK_OUTSIDECUTPATH
100
AcDbLine
 10
3268.89561315643
 20
4732.540938327495
 30
0.0
 11
3301.68896315643
 21
4732.540938327495
 31
0.0
  0
LINE
  5
2F7
330
1F
100
AcDbEntity
  8
BACK_OUTSIDECUTPATH
100
AcDbLine
 10
3301.68896315643
 20
4732.540938327495
 30
0.0
 11
3301.68896315643
 21
4735.540938327495
 31
0.0
  0
LINE
  5
2F8
330
1F
100
AcDbEntity
  8
BACK_OUTSIDECUTPATH
100
AcDbLine
 10
3301.68896315643
 20
4735.540938327495
 30
0.0
 11
3329.413063156429
 21
4735.540938327495
 31
0.0
  0
LINE
  5
2F9
330
1F
100
AcDbEntity
  8
BACK_OUTSIDECUTPATH
100
AcDbLine
 10
3329.413063156429
 20
4735.540938327495
 30
0.0
 11
3329.413063156429
 21
4732.540938327495
 31
0.0
  0
LINE
  5
2FA
330
1F
100
AcDbEntity
  8
BACK_OUTSIDECUTPATH
100
AcDbLine
 10
3329.413063156429
 20
4732.540938327495
 30
0.0
 11
3357.137163156431
 21
4732.540938327495
 31
0.0
  0
LINE
  5
2FB
330
1F
100
AcDbEntity
  8
BACK_OUTSIDECUTPATH
100
AcDbLine
 10
3357.137163156431
 20
4732.540938327495
 30
0.0
 11
3357.137163156431
 21
4735.540938327495
 31
0.0
  0
LINE
  5
2FC
330
1F
100
AcDbEntity
  8
BACK_OUTSIDECUTPATH
100
AcDbLine
 10
3357.137163156431
 20
4735.540938327495
 30
0.0
 11
3384.86126315643
 21
4735.540938327495
 31
0.0
  0
LINE
  5
2FD
330
1F
100
AcDbEntity
  8
BACK_OUTSIDECUTPATH
100
AcDbLine
 10
3384.86126315643
 20
4735.540938327495
 30
0.0
 11
3384.86126315643
 21
4732.540938327495
 31
0.0
  0
LINE
  5
2FE
330
1F
100
AcDbEntity
  8
BACK_OUTSIDECUTPATH
100
AcDbLine
 10
3384.86126315643
 20
4732.540938327495
 30
0.0
 11
3412.58536315643
 21
4732.540938327495
 31
0.0
  0
LINE
  5
2FF
330
1F
100
AcDbEntity
  8
BACK_OUTSIDECUTPATH
100
AcDbLine
 10
3412.58536315643
 20
4732.540938327495
 30
0.0
 11
3412.58536315643
 21
4735.540938327495
 31
0.0
  0
LINE
  5
300
330
1F
100
AcDbEntity
  8
BACK_OUTSIDECUTPATH
100
AcDbLine
 10
3412.58536315643
 20
4735.540938327495
 30
0.0
 11
3440.30946315643
 21
4735.540938327495
 31
0.0
  0
LINE
  5
301
330
1F
100
AcDbEntity
  8
BACK_OUTSIDECUTPATH
100
AcDbLine
 10
3440.30946315643
 20
4735.540938327495
 30
0.0
 11
3440.30946315643
 21
4732.540938327495
 31
0.0
  0
LINE
  5
302
330
1F
100
AcDbEntity
  8
BACK_OUTSIDECUTPATH
100
AcDbLine
 10
3440.30946315643
 20
4732.540938327495
 30
0.0
 11
3468.03356315643
 21
4732.540938327495
 31
0.0
  0
LINE
  5
303
330
1F
100
AcDbEntity
  8
BACK_OUTSIDECUTPATH
100
AcDbLine
 10
3468.03356315643
 20
4732.540938327495
 30
0.0
 11
3468.03356315643
 21
4735.540938327495
 31
0.0
  0
LINE
  5
304
330
1F
100
AcDbEntity
  8
BACK_OUTSIDECUTPATH
100
AcDbLine
 10
3468.03356315643
 20
4735.540938327495
 30
0.0
 11
3495.75766315643
 21
4735.540938327495
 31
0.0
  0
LINE
  5
305
330
1F
100
AcDbEntity
  8
BACK_OUTSIDECUTPATH
100
AcDbLine
 10
3495.75766315643
 20
4735.540938327495
 30
0.0
 11
3495.75766315643
 21
4732.540938327495
 31
0.0
  0
LINE
  5
306
330
1F
100
AcDbEntity
  8
BACK_OUTSIDECUTPATH
100
AcDbLine
 10
3495.75766315643
 20
4732.540938327495
 30
0.0
 11
3523.48176315643
 21
4732.540938327495
 31
0.0
  0
LINE
  5
307
330
1F
100
AcDbEntity
  8
BACK_OUTSIDECUTPATH
100
AcDbLine
 10
3523.48176315643
 20
4732.540938327495
 30
0.0
 11
3523.48176315643
 21
4735.540938327495
 31
0.0
  0
LINE
  5
308
330
1F
100
AcDbEntity
  8
BACK_OUTSIDECUTPATH
100
AcDbLine
 10
3523.48176315643
 20
4735.540938327495
 30
0.0
 11
3551.20586315643
 21
4735.540938327495
 31
0.0
  0
LINE
  5
309
330
1F
100
AcDbEntity
  8
BACK_OUTSIDECUTPATH
100
AcDbLine
 10
3551.20586315643
 20
4735.540938327495
 30
0.0
 11
3551.20586315643
 21
4732.540938327495
 31
0.0
  0
LINE
  5
30A
330
1F
100
AcDbEntity
  8
BACK_OUTSIDECUTPATH
100
AcDbLine
 10
3551.20586315643
 20
4732.540938327495
 30
0.0
 11
3578.92996315643
 21
4732.540938327495
 31
0.0
  0
LINE
  5
30B
330
1F
100
AcDbEntity
  8
BACK_OUTSIDECUTPATH
100
AcDbLine
 10
3578.92996315643
 20
4732.540938327495
 30
0.0
 11
3578.92996315643
 21
4735.540938327495
 31
0.0
  0
LINE
  5
30C
330
1F
100
AcDbEntity
  8
BACK_OUTSIDECUTPATH
100
AcDbLine
 10
3578.92996315643
 20
4735.540938327495
 30
0.0
 11
3606.654063156429
 21
4735.540938327495
 31
0.0
  0
LINE
  5
30D
330
1F
100
AcDbEntity
  8
BACK_OUTSIDECUTPATH
100
AcDbLine
 10
3606.654063156429
 20
4735.540938327495
 30
0.0
 11
3606.654063156429
 21
4732.540938327495
 31
0.0
  0
LINE
  5
30E
330
1F
100
AcDbEntity
  8
BACK_OUTSIDECUTPATH
100
AcDbLine
 10
3606.654063156429
 20
4732.540938327495
 30
0.0
 11
3634.378163156431
 21
4732.540938327495
 31
0.0
  0
LINE
  5
30F
330
1F
100
AcDbEntity
  8
BACK_OUTSIDECUTPATH
100
AcDbLine
 10
3634.378163156431
 20
4732.540938327495
 30
0.0
 11
3634.378163156431
 21
4735.540938327495
 31
0.0
  0
LINE
  5
310
330
1F
100
AcDbEntity
  8
BACK_OUTSIDECUTPATH
100
AcDbLine
 10
3634.378163156431
 20
4735.540938327495
 30
0.0
 11
3662.10226315643
 21
4735.540938327495
 31
0.0
  0
LINE
  5
311
330
1F
100
AcDbEntity
  8
BACK_OUTSIDECUTPATH
100
AcDbLine
 10
3662.10226315643
 20
4735.540938327495
 30
0.0
 11
3662.10226315643
 21
4732.540938327495
 31
0.0
  0
LINE
  5
312
330
1F
100
AcDbEntity
  8
BACK_OUTSIDECUTPATH
100
AcDbLine
 10
3662.10226315643
 20
4732.540938327495
 30
0.0
 11
3694.89561315643
 21
4732.540938327495
 31
0.0
  0
LINE
  5
313
330
1F
100
AcDbEntity
  8
BACK_OUTSIDECUTPATH
100
AcDbLine
 10
3694.89561315643
 20
4732.540938327495
 30
0.0
 11
3694.89561315643
 21
4780.558388327494
 31
0.0
  0
LINE
  5
314
330
1F
100
AcDbEntity
  8
BACK_OUTSIDECUTPATH
100
AcDbLine
 10
3694.89561315643
 20
4780.558388327494
 30
0.0
 11
3691.89561315643
 21
4780.558388327494
 31
0.0
  0
LINE
  5
315
330
1F
100
AcDbEntity
  8
BACK_OUTSIDECUTPATH
100
AcDbLine
 10
3691.89561315643
 20
4780.558388327494
 30
0.0
 11
3691.89561315643
 21
4808.282488327495
 31
0.0
  0
LINE
  5
316
330
1F
100
AcDbEntity
  8
BACK_OUTSIDECUTPATH
100
AcDbLine
 10
3691.89561315643
 20
4808.282488327495
 30
0.0
 11
3694.89561315643
 21
4808.282488327495
 31
0.0
  0
LINE
  5
317
330
1F
100
AcDbEntity
  8
BACK_OUTSIDECUTPATH
100
AcDbLine
 10
3694.89561315643
 20
4808.282488327495
 30
0.0
 11
3694.89561315643
 21
4836.006588327495
 31
0.0
  0
LINE
  5
318
330
1F
100
AcDbEntity
  8
BACK_OUTSIDECUTPATH
100
AcDbLine
 10
3694.89561315643
 20
4836.006588327495
 30
0.0
 11
3691.89561315643
 21
4836.006588327495
 31
0.0
  0
LINE
  5
319
330
1F
100
AcDbEntity
  8
BACK_OUTSIDECUTPATH
100
AcDbLine
 10
3691.89561315643
 20
4836.006588327495
 30
0.0
 11
3691.89561315643
 21
4863.730688327494
 31
0.0
  0
LINE
  5
31A
330
1F
100
AcDbEntity
  8
BACK_OUTSIDECUTPATH
100
AcDbLine
 10
3691.89561315643
 20
4863.730688327494
 30
0.0
 11
3694.89561315643
 21
4863.730688327494
 31
0.0
  0
LINE
  5
31B
330
1F
100
AcDbEntity
  8
BACK_OUTSIDECUTPATH
100
AcDbLine
 10
3694.89561315643
 20
4863.730688327494
 30
0.0
 11
3694.89561315643
 21
4891.454788327494
 31
0.0
  0
LINE
  5
31C
330
1F
100
AcDbEntity
  8
BACK_OUTSIDECUTPATH
100
AcDbLine
 10
3694.89561315643
 20
4891.454788327494
 30
0.0
 11
3691.89561315643
 21
4891.454788327494
 31
0.0
  0
LINE
  5
31D
330
1F
100
AcDbEntity
  8
BACK_OUTSIDECUTPATH
100
AcDbLine
 10
3691.89561315643
 20
4891.454788327494
 30
0.0
 11
3691.89561315643
 21
4919.178888327495
 31
0.0
  0
LINE
  5
31E
330
1F
100
AcDbEntity
  8
BACK_OUTSIDECUTPATH
100
AcDbLine
 10
3691.89561315643
 20
4919.178888327495
 30
0.0
 11
3694.89561315643
 21
4919.178888327495
 31
0.0
  0
LINE
  5
31F
330
1F
100
AcDbEntity
  8
BACK_OUTSIDECUTPATH
100
AcDbLine
 10
3694.89561315643
 20
4919.178888327495
 30
0.0
 11
3694.89561315643
 21
4946.902988327494
 31
0.0
  0
LINE
  5
320
330
1F
100
AcDbEntity
  8
BACK_OUTSIDECUTPATH
100
AcDbLine
 10
3694.89561315643
 20
4946.902988327494
 30
0.0
 11
3691.89561315643
 21
4946.902988327494
 31
0.0
  0
LINE
  5
321
330
1F
100
AcDbEntity
  8
BACK_OUTSIDECUTPATH
100
AcDbLine
 10
3691.89561315643
 20
4946.902988327494
 30
0.0
 11
3691.89561315643
 21
4974.627088327495
 31
0.0
  0
LINE
  5
322
330
1F
100
AcDbEntity
  8
BACK_OUTSIDECUTPATH
100
AcDbLine
 10
3691.89561315643
 20
4974.627088327495
 30
0.0
 11
3694.89561315643
 21
4974.627088327495
 31
0.0
  0
LINE
  5
323
330
1F
100
AcDbEntity
  8
BACK_OUTSIDECUTPATH
100
AcDbLine
 10
3694.89561315643
 20
4974.627088327495
 30
0.0
 11
3694.89561315643
 21
5002.351188327494
 31
0.0
  0
LINE
  5
324
330
1F
100
AcDbEntity
  8
BACK_OUTSIDECUTPATH
100
AcDbLine
 10
3694.89561315643
 20
5002.351188327494
 30
0.0
 11
3691.89561315643
 21
5002.351188327494
 31
0.0
  0
LINE
  5
325
330
1F
100
AcDbEntity
  8
BACK_OUTSIDECUTPATH
100
AcDbLine
 10
3691.89561315643
 20
5002.351188327494
 30
0.0
 11
3691.89561315643
 21
5030.075288327494
 31
0.0
  0
LINE
  5
326
330
1F
100
AcDbEntity
  8
BACK_OUTSIDECUTPATH
100
AcDbLine
 10
3691.89561315643
 20
5030.075288327494
 30
0.0
 11
3694.89561315643
 21
5030.075288327494
 31
0.0
  0
LINE
  5
327
330
1F
100
AcDbEntity
  8
BACK_OUTSIDECUTPATH
100
AcDbLine
 10
3694.89561315643
 20
5030.075288327494
 30
0.0
 11
3694.89561315643
 21
5057.799388327495
 31
0.0
  0
LINE
  5
328
330
1F
100
AcDbEntity
  8
BACK_OUTSIDECUTPATH
100
AcDbLine
 10
3694.89561315643
 20
5057.799388327495
 30
0.0
 11
3691.89561315643
 21
5057.799388327495
 31
0.0
  0
LINE
  5
329
330
1F
100
AcDbEntity
  8
BACK_OUTSIDECUTPATH
100
AcDbLine
 10
3691.89561315643
 20
5057.799388327495
 30
0.0
 11
3691.89561315643
 21
5085.523488327494
 31
0.0
  0
LINE
  5
32A
330
1F
100
AcDbEntity
  8
BACK_OUTSIDECUTPATH
100
AcDbLine
 10
3691.89561315643
 20
5085.523488327494
 30
0.0
 11
3694.89561315643
 21
5085.523488327494
 31
0.0
  0
LINE
  5
32B
330
1F
100
AcDbEntity
  8
BACK_OUTSIDECUTPATH
100
AcDbLine
 10
3694.89561315643
 20
5085.523488327494
 30
0.0
 11
3694.89561315643
 21
5113.247588327495
 31
0.0
  0
LINE
  5
32C
330
1F
100
AcDbEntity
  8
BACK_OUTSIDECUTPATH
100
AcDbLine
 10
3694.89561315643
 20
5113.247588327495
 30
0.0
 11
3694.89561315643
 21
5133.540938327495
 31
0.0
  0
LINE
  5
32D
330
1F
100
AcDbEntity
  8
BACK_OUTSIDECUTPATH
100
AcDbLine
 10
3694.89561315643
 20
5133.540938327495
 30
0.0
 11
3662.10226315643
 21
5133.540938327495
 31
0.0
  0
LINE
  5
32E
330
1F
100
AcDbEntity
  8
BACK_OUTSIDECUTPATH
100
AcDbLine
 10
3662.10226315643
 20
5133.540938327495
 30
0.0
 11
3662.10226315643
 21
5130.540938327495
 31
0.0
  0
LINE
  5
32F
330
1F
100
AcDbEntity
  8
BACK_OUTSIDECUTPATH
100
AcDbLine
 10
3662.10226315643
 20
5130.540938327495
 30
0.0
 11
3634.378163156431
 21
5130.540938327495
 31
0.0
  0
LINE
  5
330
330
1F
100
AcDbEntity
  8
BACK_OUTSIDECUTPATH
100
AcDbLine
 10
3634.378163156431
 20
5130.540938327495
 30
0.0
 11
3634.378163156431
 21
5133.540938327495
 31
0.0
  0
LINE
  5
331
330
1F
100
AcDbEntity
  8
BACK_OUTSIDECUTPATH
100
AcDbLine
 10
3634.378163156431
 20
5133.540938327495
 30
0.0
 11
3606.654063156429
 21
5133.540938327495
 31
0.0
  0
LINE
  5
332
330
1F
100
AcDbEntity
  8
BACK_OUTSIDECUTPATH
100
AcDbLine
 10
3606.654063156429
 20
5133.540938327495
 30
0.0
 11
3606.654063156429
 21
5130.540938327495
 31
0.0
  0
LINE
  5
333
330
1F
100
AcDbEntity
  8
BACK_OUTSIDECUTPATH
100
AcDbLine
 10
3606.654063156429
 20
5130.540938327495
 30
0.0
 11
3578.92996315643
 21
5130.540938327495
 31
0.0
  0
LINE
  5
334
330
1F
100
AcDbEntity
  8
BACK_OUTSIDECUTPATH
100
AcDbLine
 10
3578.92996315643
 20
5130.540938327495
 30
0.0
 11
3578.92996315643
 21
5133.540938327495
 31
0.0
  0
LINE
  5
335
330
1F
100
AcDbEntity
  8
BACK_OUTSIDECUTPATH
100
AcDbLine
 10
3578.92996315643
 20
5133.540938327495
 30
0.0
 11
3551.20586315643
 21
5133.540938327495
 31
0.0
  0
LINE
  5
336
330
1F
100
AcDbEntity
  8
BACK_OUTSIDECUTPATH
100
AcDbLine
 10
3551.20586315643
 20
5133.540938327495
 30
0.0
 11
3551.20586315643
 21
5130.540938327495
 31
0.0
  0
LINE
  5
337
330
1F
100
AcDbEntity
  8
BACK_OUTSIDECUTPATH
100
AcDbLine
 10
3551.20586315643
 20
5130.540938327495
 30
0.0
 11
3523.48176315643
 21
5130.540938327495
 31
0.0
  0
LINE
  5
338
330
1F
100
AcDbEntity
  8
BACK_OUTSIDECUTPATH
100
AcDbLine
 10
3523.48176315643
 20
5130.540938327495
 30
0.0
 11
3523.48176315643
 21
5133.540938327495
 31
0.0
  0
LINE
  5
339
330
1F
100
AcDbEntity
  8
BACK_OUTSIDECUTPATH
100
AcDbLine
 10
3523.48176315643
 20
5133.540938327495
 30
0.0
 11
3495.75766315643
 21
5133.540938327495
 31
0.0
  0
LINE
  5
33A
330
1F
100
AcDbEntity
  8
BACK_OUTSIDECUTPATH
100
AcDbLine
 10
3495.75766315643
 20
5133.540938327495
 30
0.0
 11
3495.75766315643
 21
5130.540938327495
 31
0.0
  0
LINE
  5
33B
330
1F
100
AcDbEntity
  8
BACK_OUTSIDECUTPATH
100
AcDbLine
 10
3495.75766315643
 20
5130.540938327495
 30
0.0
 11
3468.03356315643
 21
5130.540938327495
 31
0.0
  0
LINE
  5
33C
330
1F
100
AcDbEntity
  8
BACK_OUTSIDECUTPATH
100
AcDbLine
 10
3468.03356315643
 20
5130.540938327495
 30
0.0
 11
3468.03356315643
 21
5133.540938327495
 31
0.0
  0
LINE
  5
33D
330
1F
100
AcDbEntity
  8
BACK_OUTSIDECUTPATH
100
AcDbLine
 10
3468.03356315643
 20
5133.540938327495
 30
0.0
 11
3440.30946315643
 21
5133.540938327495
 31
0.0
  0
LINE
  5
33E
330
1F
100
AcDbEntity
  8
BACK_OUTSIDECUTPATH
100
AcDbLine
 10
3440.30946315643
 20
5133.540938327495
 30
0.0
 11
3440.30946315643
 21
5130.540938327495
 31
0.0
  0
LINE
  5
33F
330
1F
100
AcDbEntity
  8
BACK_OUTSIDECUTPATH
100
AcDbLine
 10
3440.30946315643
 20
5130.540938327495
 30
0.0
 11
3412.58536315643
 21
5130.540938327495
 31
0.0
  0
LINE
  5
340
330
1F
100
AcDbEntity
  8
BACK_OUTSIDECUTPATH
100
AcDbLine
 10
3412.58536315643
 20
5130.540938327495
 30
0.0
 11
3412.58536315643
 21
5133.540938327495
 31
0.0
  0
LINE
  5
341
330
1F
100
AcDbEntity
  8
BACK_OUTSIDECUTPATH
100
AcDbLine
 10
3412.58536315643
 20
5133.540938327495
 30
0.0
 11
3384.86126315643
 21
5133.540938327495
 31
0.0
  0
LINE
  5
342
330
1F
100
AcDbEntity
  8
BACK_OUTSIDECUTPATH
100
AcDbLine
 10
3384.86126315643
 20
5133.540938327495
 30
0.0
 11
3384.86126315643
 21
5130.540938327495
 31
0.0
  0
LINE
  5
343
330
1F
100
AcDbEntity
  8
BACK_OUTSIDECUTPATH
100
AcDbLine
 10
3384.86126315643
 20
5130.540938327495
 30
0.0
 11
3357.137163156431
 21
5130.540938327495
 31
0.0
  0
LINE
  5
344
330
1F
100
AcDbEntity
  8
BACK_OUTSIDECUTPATH
100
AcDbLine
 10
3357.137163156431
 20
5130.540938327495
 30
0.0
 11
3357.137163156431
 21
5133.540938327495
 31
0.0
  0
LINE
  5
345
330
1F
100
AcDbEntity
  8
BACK_OUTSIDECUTPATH
100
AcDbLine
 10
3357.137163156431
 20
5133.540938327495
 30
0.0
 11
3329.413063156429
 21
5133.540938327495
 31
0.0
  0
LINE
  5
346
330
1F
100
AcDbEntity
  8
BACK_OUTSIDECUTPATH
100
AcDbLine
 10
3329.413063156429
 20
5133.540938327495
 30
0.0
 11
3329.413063156429
 21
5130.540938327495
 31
0.0
  0
LINE
  5
347
330
1F
100
AcDbEntity
  8
BACK_OUTSIDECUTPATH
100
AcDbLine
 10
3329.413063156429
 20
5130.540938327495
 30
0.0
 11
3301.68896315643
 21
5130.540938327495
 31
0.0
  0
LINE
  5
348
330
1F
100
AcDbEntity
  8
BACK_OUTSIDECUTPATH
100
AcDbLine
 10
3301.68896315643
 20
5130.540938327495
 30
0.0
 11
3301.68896315643
 21
5133.540938327495
 31
0.0
  0
LINE
  5
349
330
1F
100
AcDbEntity
  8
BACK_OUTSIDECUTPATH
100
AcDbLine
 10
3301.68896315643
 20
5133.540938327495
 30
0.0
 11
3268.89561315643
 21
5133.540938327495
 31
0.0
  0
ENDSEC
  0
SECTION
  2
OBJECTS
  0
DICTIONARY
  5
C
330
0
100
AcDbDictionary
  3
ACAD_GROUP
350
D
  3
ACAD_LAYOUT
350
1A
  3
ACAD_MATERIAL
350
43
  3
ACAD_MLEADERSTYLE
350
5B
  3
ACAD_MLINESTYLE
350
17
  3
ACAD_PLOTSETTINGS
350
19
  3
ACAD_SCALELIST
350
47
  3
ACAD_VISUALSTYLE
350
2A
  3
ACDBHEADERROUNDTRIPXREC
350
34A
  3
ACDBVARIABLEDICTIONARY
350
36B
  3
DWGPROPS
350
372
  0
DICTIONARY
  5
373
330
8
100
AcDbDictionary
280
     1
  3
ACAD_XREC_ROUNDTRIP
360
374
  0
DICTIONARY
  5
D
102
{ACAD_REACTORS
330
C
102
}
330
C
100
AcDbDictionary
  0
DICTIONARY
  5
1A
102
{ACAD_REACTORS
330
C
102
}
330
C
100
AcDbDictionary
  0
DICTIONARY
  5
43
102
{ACAD_REACTORS
330
C
102
}
330
C
100
AcDbDictionary
  3
BYBLOCK
350
45
  3
BYLAYER
350
44
  3
GLOBAL
350
46
  0
DICTIONARY
  5
5B
102
{ACAD_REACTORS
330
C
102
}
330
C
100
AcDbDictionary
  3
STANDARD
350
5C
  0
DICTIONARY
  5
17
102
{ACAD_REACTORS
330
C
102
}
330
C
100
AcDbDictionary
  3
STANDARD
350
18
  0
DICTIONARY
  5
19
102
{ACAD_REACTORS
330
C
102
}
330
C
100
AcDbDictionary
  0
DICTIONARY
  5
47
102
{ACAD_REACTORS
330
C
102
}
330
C
100
AcDbDictionary
  3
A0
350
48
  3
A1
350
49
  3
A2
350
4A
  3
A3
350
4B
  3
A4
350
4C
  3
A5
350
4D
  3
A6
350
4E
  3
A7
350
4F
  3
A8
350
50
  3
A9
350
51
  3
B1
350
52
  3
B2
350
53
  3
B3
350
54
  3
B4
350
55
  3
B5
350
56
  3
B6
350
57
  3
B7
350
58
  0
DICTIONARY
  5
2A
102
{ACAD_REACTORS
330
C
102
}
330
C
100
AcDbDictionary
  3
2DWIREFRAME
350
2F
  3
BASIC
350
32
  3
BRIGHTEN
350
36
  3
COLORCHANGE
350
3A
  3
CONCEPTUAL
350
34
  3
DIM
350
35
  3
EDGECOLOROFF
350
3D
  3
FACEPATTERN
350
39
  3
FLAT
350
2B
  3
FLATWITHEDGES
350
2C
  3
GOURAUD
350
2D
  3
GOURAUDWITHEDGES
350
2E
  3
HIDDEN
350
31
  3
JITTEROFF
350
3B
  3
LINEPATTERN
350
38
  3
OVERHANGOFF
350
3C
  3
REALISTIC
350
33
  3
SHADED
350
42
  3
SHADED_WITH_EDGES
350
41
  3
SHADES_OF_GRAY
350
3E
  3
SKETCHY
350
3F
  3
THICKEN
350
37
  3
WIREFRAME
350
30
  3
X-RAY
350
40
  0
DICTIONARY
  5
34A
102
{ACAD_REACTORS
330
C
102
}
330
C
100
AcDbDictionary
  3
CEPSNID
350
354
  3
CEPSNTYPE
350
353
  3
DIMSTYLEDATA
350
36A
  3
FINGERPRINTGUID
350
355
  3
HYPERLINKBASE
350
34D
  3
INSUNITS
350
352
  3
LAYOUTDICT
350
34F
  3
LWETCUNION
350
351
  3
PLOTSETDICT
350
350
  3
PSVPSCALE
350
357
  3
PUCSBASE
350
35A
  3
PUCSORGBACK
350
360
  3
PUCSORGBOTTOM
350
35C
  3
PUCSORGFRONT
350
35F
  3
PUCSORGLEFT
350
35D
  3
PUCSORGRIGHT
350
35E
  3
PUCSORGTOP
350
35B
  3
PUCSORTHOREF
350
358
  3
PUCSORTHOVIEW
350
359
  3
STYLESHEET
350
34E
  3
TSTACKALIGN
350
34B
  3
TSTACKSIZE
350
34C
  3
UCSBASE
350
363
  3
UCSORGBACK
350
369
  3
UCSORGBOTTOM
350
365
  3
UCSORGFRONT
350
368
  3
UCSORGLEFT
350
366
  3
UCSORGRIGHT
350
367
  3
UCSORGTOP
350
364
  3
UCSORTHOREF
350
361
  3
UCSORTHOVIEW
350
362
  3
VERSIONGUID
350
356
  0
DICTIONARY
  5
36B
102
{ACAD_REACTORS
330
C
102
}
330
C
100
AcDbDictionary
  3
CANNOSCALE
350
375
  3
CMLEADERSTYLE
350
36D
  3
CTABLESTYLE
350
36C
  3
DIMASSOC
350
370
  3
HIDETEXT
350
371
  3
MSLTSCALE
350
376
  0
XRECORD
  5
372
102
{ACAD_REACTORS
330
C
102
}
330
C
100
AcDbXrecord
  1
DWGPROPS COOKIE
  2

  3

  4

  6

  7

  8
guilh
  9

300
=
301
=
302
=
303
=
304
=
305
=
306
=
307
=
308
=
309
=
 40
0.0
 41
2460081.882577246
 42
2460081.885917674
  1

 90
        0
  0
XRECORD
  5
374
102
{ACAD_REACTORS
330
373
102
}
330
373
100
AcDbXrecord
102
VTR_0.000_0.000_1.000_1.000_VISUALSTYLE
340
2F
102
VTR_0.000_0.000_1.000_1.000_GRIDDISPLAY
 70
     3
102
VTR_0.000_0.000_1.000_1.000_GRIDMAJOR
 70
     5
102
VTR_0.000_0.000_1.000_1.000_DEFAULTLIGHTING
280
     1
102
VTR_0.000_0.000_1.000_1.000_DEFAULTLIGHTINGTYPE
 70
     1
102
VTR_0.000_0.000_1.000_1.000_BRIGHTNESS
141
0.0
102
VTR_0.000_0.000_1.000_1.000_CONTRAST
142
0.0
  0
MATERIAL
  5
45
102
{ACAD_REACTORS
330
43
102
}
102
{ACAD_XDICTIONARY
360
379
102
}
330
43
100
AcDbMaterial
  1
BYBLOCK
  0
MATERIAL
  5
44
102
{ACAD_REACTORS
330
43
102
}
102
{ACAD_XDICTIONARY
360
377
102
}
330
43
100
AcDbMaterial
  1
BYLAYER
  0
MATERIAL
  5
46
102
{ACAD_REACTORS
330
43
102
}
102
{ACAD_XDICTIONARY
360
37B
102
}
330
43
100
AcDbMaterial
  1
GLOBAL
  0
ACAD_PROXY_OBJECT
  5
5C
102
{ACAD_REACTORS
330
5B
102
}
330
5B
100
AcDbProxyObject
 90
      499
 91
      505
 93
      610
310
40901902A4063FBFFFFFE056BD1B81E855B9FC0AD7A3703D0AD73F4214DD185B99185C9900AD7A3703D0AC73F90141901A02B5E8DC0F42B1CFC02B5E8DC0F42B1CFE5764000000000000300FC0
340
14
340
0
340
11
340
0
 94
        0
1001
ACAD_MLEADERVER
1070
     2
  0
MLINESTYLE
  5
18
102
{ACAD_REACTORS
330
17
102
}
330
17
100
AcDbMlineStyle
  2
Standard
 70
     0
  3

 62
   256
 51
90.0
 52
90.0
 71
     2
 49
0.5
 62
   256
  6
BYLAYER
 49
-0.5
 62
   256
  6
BYLAYER
  0
ACAD_PROXY_OBJECT
  5
48
102
{ACAD_REACTORS
330
47
102
}
330
47
100
AcDbProxyObject
 90
      499
 91
      503
 93
       41
310
903313A31580
  0
ACAD_PROXY_OBJECT
  5
49
102
{ACAD_REACTORS
330
47
102
}
330
47
100
AcDbProxyObject
 90
      499
 91
      503
 93
      257
310
90E312F31323822203D2031272D3022000000000000200FC000000000000284000
  0
ACAD_PROXY_OBJECT
  5
4A
102
{ACAD_REACTORS
330
47
102
}
330
47
100
AcDbProxyObject
 90
      499
 91
      503
 93
      249
310
90D312F363422203D2031272D3022000000000000240FC000000000000284000
  0
ACAD_PROXY_OBJECT
  5
4B
102
{ACAD_REACTORS
330
47
102
}
330
47
100
AcDbProxyObject
 90
      499
 91
      503
 93
      249
310
90D312F333222203D2031272D3022000000000000280FC000000000000284000
  0
ACAD_PROXY_OBJECT
  5
4C
102
{ACAD_REACTORS
330
47
102
}
330
47
100
AcDbProxyObject
 90
      499
 91
      503
 93
      249
310
90D312F313622203D2031272D30220000000000002C0FC000000000000284000
  0
ACAD_PROXY_OBJECT
  5
4D
102
{ACAD_REACTORS
330
47
102
}
330
47
100
AcDbProxyObject
 90
      499
 91
      503
 93
      249
310
90D332F333222203D2031272D30220000000000002E0FC000000000000284000
  0
ACAD_PROXY_OBJECT
  5
4E
102
{ACAD_REACTORS
330
47
102
}
330
47
100
AcDbProxyObject
 90
      499
 91
      503
 93
      241
310
90C312F3822203D2031272D3022000000000000300FC000000000000284000
  0
ACAD_PROXY_OBJECT
  5
4F
102
{ACAD_REACTORS
330
47
102
}
330
47
100
AcDbProxyObject
 90
      499
 91
      503
 93
      249
310
90D332F313622203D2031272D3022000000000000320FC000000000000284000
  0
ACAD_PROXY_OBJECT
  5
50
102
{ACAD_REACTORS
330
47
102
}
330
47
100
AcDbProxyObject
 90
      499
 91
      503
 93
      241
310
90C312F3422203D2031272D3022000000000000340FC000000000000284000
  0
ACAD_PROXY_OBJECT
  5
51
102
{ACAD_REACTORS
330
47
102
}
330
47
100
AcDbProxyObject
 90
      499
 91
      503
 93
      241
310
90C332F3822203D2031272D3022000000000000360FC000000000000284000
  0
ACAD_PROXY_OBJECT
  5
52
102
{ACAD_REACTORS
330
47
102
}
330
47
100
AcDbProxyObject
 90
      499
 91
      503
 93
      241
310
90C312F3222203D2031272D3022000000000000380FC000000000000284000
  0
ACAD_PROXY_OBJECT
  5
53
102
{ACAD_REACTORS
330
47
102
}
330
47
100
AcDbProxyObject
 90
      499
 91
      503
 93
      241
310
90C332F3422203D2031272D30220000000000003A0FC000000000000284000
  0
ACAD_PROXY_OBJECT
  5
54
102
{ACAD_REACTORS
330
47
102
}
330
47
100
AcDbProxyObject
 90
      499
 91
      503
 93
      161
310
90A3122203D2031272D30224000000000000284000
  0
ACAD_PROXY_OBJECT
  5
55
102
{ACAD_REACTORS
330
47
102
}
330
47
100
AcDbProxyObject
 90
      499
 91
      503
 93
      257
310
90E312D312F3222203D2031272D30220000000000003E0FC000000000000284000
  0
ACAD_PROXY_OBJECT
  5
56
102
{ACAD_REACTORS
330
47
102
}
330
47
100
AcDbProxyObject
 90
      499
 91
      503
 93
      225
310
90A3322203D2031272D302200000000000002100000000000000284000
  0
ACAD_PROXY_OBJECT
  5
57
102
{ACAD_REACTORS
330
47
102
}
330
47
100
AcDbProxyObject
 90
      499
 91
      503
 93
      225
310
90A3622203D2031272D302200000000000006100000000000000284000
  0
ACAD_PROXY_OBJECT
  5
58
102
{ACAD_REACTORS
330
47
102
}
330
47
100
AcDbProxyObject
 90
      499
 91
      503
 93
      249
310
90D31272D3022203D2031272D30220000000000000A100000000000000284000
  0
ACAD_PROXY_OBJECT
  5
2F
102
{ACAD_REACTORS
330
2A
102
}
330
2A
100
AcDbProxyObject
 90
      499
 91
      501
 93
      436
310
42CC9915DA5C99599C985B595049028333333333333E33F0000000000000F90107901411070040501600405405064090741402480A0340
1001
ACAD
1000
AcDbSavedByObjectVersion
1070
     0
  0
ACAD_PROXY_OBJECT
  5
32
102
{ACAD_REACTORS
330
2A
102
}
330
2A
100
AcDbProxyObject
 90
      499
 91
      501
 93
      388
310
4150985CDA58D07406404333333333333E33F0000000000000F90107A41107004050150841D405064090741402480A0350
1001
ACAD
1000
AcDbSavedByObjectVersion
1070
     0
  0
ACAD_PROXY_OBJECT
  5
36
102
{ACAD_REACTORS
330
2A
102
}
330
2A
100
AcDbProxyObject
 90
      499
 91
      501
 93
      428
310
42109C9A59DA1D195B90C409028333333333333E33F0000000000000F9010790141107004050150841D405064090741402480A029950
1001
ACAD
1000
AcDbSavedByObjectVersion
1070
     0
  0
ACAD_PROXY_OBJECT
  5
3A
102
{ACAD_REACTORS
330
2A
102
}
330
2A
100
AcDbProxyObject
 90
      499
 91
      501
 93
      452
310
42D0DBDB1BDC90DA185B99D95104090240C333333333333E33F0000000000000F90108901411070040501508421405064090741402480A0350
1001
ACAD
1000
AcDbSavedByObjectVersion
1070
     0
  0
ACAD_PROXY_OBJECT
  5
34
102
{ACAD_REACTORS
330
2A
102
}
330
2A
100
AcDbProxyObject
 90
      499
 91
      501
 93
      500
310
4290DBDB98D95C1D1D585B10940D028333333333333E33F0000000000000F90107902409070040501000000000018199010841D405064090740C02480A0340
1001
ACAD
1000
AcDbSavedByObjectVersion
1070
     0
  0
ACAD_PROXY_OBJECT
  5
35
102
{ACAD_REACTORS
330
2A
102
}
330
2A
100
AcDbProxyObject
 90
      499
 91
      501
 93
      412
310
40D11A5B50B409028333333333333E33F0000000000000F9010790141107004050150841D405064090741402480A02677FFFFFD0
1001
ACAD
1000
AcDbSavedByObjectVersion
1070
     0
  0
ACAD_PROXY_OBJECT
  5
3D
102
{ACAD_REACTORS
330
2A
102
}
330
2A
100
AcDbProxyObject
 90
      499
 91
      501
 93
      452
310
43115919D950DBDB1BDC93D999916409028333333333333E33F0000000000000F9010790141107004050150841D405064090741402480A0350
1001
ACAD
1000
AcDbSavedByObjectVersion
1070
     0
  0
ACAD_PROXY_OBJECT
  5
39
102
{ACAD_REACTORS
330
2A
102
}
330
2A
100
AcDbProxyObject
 90
      499
 91
      501
 93
      444
310
42D19858D95C185D1D195C9B90F409028333333333333E33F0000000000000F9010790141107004050150841D405064090741402480A0350
1001
ACAD
1000
AcDbSavedByObjectVersion
1070
     0
  0
ACAD_PROXY_OBJECT
  5
2B
102
{ACAD_REACTORS
330
2A
102
}
330
2A
100
AcDbProxyObject
 90
      499
 91
      501
 93
      380
310
41119B185D240901404333333333333E33F0000000000000F9010740A907004050150841D405064090741402480A1B50
1001
ACAD
1000
AcDbSavedByObjectVersion
1070
     0
  0
ACAD_PROXY_OBJECT
  5
2C
102
{ACAD_REACTORS
330
2A
102
}
330
2A
100
AcDbProxyObject
 90
      499
 91
      501
 93
      468
310
43519B185D15DA5D1A115919D95CD0140901404333333333333E33F0000000000000F90107409019070040501600405405064090741402480A1B50
1001
ACAD
1000
AcDbSavedByObjectVersion
1070
     0
  0
ACAD_PROXY_OBJECT
  5
2D
102
{ACAD_REACTORS
330
2A
102
}
330
2A
100
AcDbProxyObject
 90
      499
 91
      501
 93
      404
310
41D1DBDD5C985D5910240902404333333333333E33F0000000000000F9010740A9070040501641D405064090741402480A1B50
1001
ACAD
1000
AcDbSavedByObjectVersion
1070
     0
  0
ACAD_PROXY_OBJECT
  5
2E
102
{ACAD_REACTORS
330
2A
102
}
330
2A
100
AcDbProxyObject
 90
      499
 91
      501
 93
      492
310
4411DBDD5C985D5915DA5D1A115919D95CD0340902404333333333333E33F0000000000000F90107409019070040501600405405064090741402480A1B50
1001
ACAD
1000
AcDbSavedByObjectVersion
1070
     0
  0
ACAD_PROXY_OBJECT
  5
31
102
{ACAD_REACTORS
330
2A
102
}
330
2A
100
AcDbProxyObject
 90
      499
 91
      501
 93
      476
310
41921A5919195B90640502408333333333333E33F0000000000000F901079024090700405020000000000001110200405405064090740C02480A0340
1001
ACAD
1000
AcDbSavedByObjectVersion
1070
     0
  0
ACAD_PROXY_OBJECT
  5
3B
102
{ACAD_REACTORS
330
2A
102
}
330
2A
100
AcDbProxyObject
 90
      499
 91
      501
 93
      428
310
42529A5D1D195C93D999914409028333333333333E33F0000000000000F9010790141107004050150A41D405064090741402480A0350
1001
ACAD
1000
AcDbSavedByObjectVersion
1070
     0
  0
ACAD_PROXY_OBJECT
  5
38
102
{ACAD_REACTORS
330
2A
102
}
330
2A
100
AcDbProxyObject
 90
      499
 91
      501
 93
      444
310
42D31A5B995C185D1D195C9B90E409028333333333333E33F0000000000000F9010790141107004050750841D405064090741402483A0350
1001
ACAD
1000
AcDbSavedByObjectVersion
1070
     0
  0
ACAD_PROXY_OBJECT
  5
3C
102
{ACAD_REACTORS
330
2A
102
}
330
2A
100
AcDbProxyObject
 90
      499
 91
      501
 93
      444
310
42D3DD995C9A185B99D3D999915409028333333333333E33F0000000000000F9010790141107004050150941D405064090741402480A0350
1001
ACAD
1000
AcDbSavedByObjectVersion
1070
     0
  0
ACAD_PROXY_OBJECT
  5
33
102
{ACAD_REACTORS
330
2A
102
}
330
2A
100
AcDbProxyObject
 90
      499
 91
      501
 93
      428
310
425499585B1A5CDD1A58D08409038333333333333E33F0000000000000F9010740A907004050150800405405064090740C02480A1B40
1001
ACAD
1000
AcDbSavedByObjectVersion
1070
     0
  0
ACAD_PROXY_OBJECT
  5
42
102
{ACAD_REACTORS
330
2A
102
}
330
2A
100
AcDbProxyObject
 90
      499
 91
      501
 93
      420
310
4194DA1859195911B40902404333333333333E33F0000000000000F9010740A41107004050150800405405064090840C02480A0B40
1001
ACAD
1000
AcDbSavedByObjectVersion
1070
     0
  0
ACAD_PROXY_OBJECT
  5
41
102
{ACAD_REACTORS
330
2A
102
}
330
2A
100
AcDbProxyObject
 90
      499
 91
      501
 93
      516
310
4454DA18591959081DDA5D1A08195919D95CD1A40902404333333333333E33F0000000000000F901074090142907004050250800405405064090740C02480A0B40
1001
ACAD
1000
AcDbSavedByObjectVersion
1070
     0
  0
ACAD_PROXY_OBJECT
  5
3E
102
{ACAD_REACTORS
330
2A
102
}
330
2A
100
AcDbProxyObject
 90
      499
 91
      501
 93
      532
310
4394DA1859195CC81BD98811DC985E5174090240C333333333333E33F0000000000000F901079024090741D01000000000000111010841D405064090740C02480A0340
1001
ACAD
1000
AcDbSavedByObjectVersion
1070
     0
  0
ACAD_PROXY_OBJECT
  5
3F
102
{ACAD_REACTORS
330
2A
102
}
330
2A
100
AcDbProxyObject
 90
      499
 91
      501
 93
      476
310
41D4DAD95D18DA1E51840502408333333333333E33F0000000000000F901079024090741D01000000000000111010B41D405064090741802480A0340
1001
ACAD
1000
AcDbSavedByObjectVersion
1070
     0
  0
ACAD_PROXY_OBJECT
  5
37
102
{ACAD_REACTORS
330
2A
102
}
330
2A
100
AcDbProxyObject
 90
      499
 91
      501
 93
      412
310
41D51A1A58DAD95B90D409028333333333333E33F0000000000000F9010790141107004050150C41D405064090741402480A0350
1001
ACAD
1000
AcDbSavedByObjectVersion
1070
     0
  0
ACAD_PROXY_OBJECT
  5
30
102
{ACAD_REACTORS
330
2A
102
}
330
2A
100
AcDbProxyObject
 90
      499
 91
      501
 93
      420
310
4255DA5C99599C985B595059028333333333333E33F0000000000000F90107901411070040501600405405064090740C02480A0340
1001
ACAD
1000
AcDbSavedByObjectVersion
1070
     0
  0
ACAD_PROXY_OBJECT
  5
40
102
{ACAD_REACTORS
330
2A
102
}
330
2A
100
AcDbProxyObject
 90
      499
 91
      501
 93
      404
310
41560B54985E51940902404000000000000E03F0000000000000F9010740501907004050150841D405064090740C02480A1B40
1001
ACAD
1000
AcDbSavedByObjectVersion
1070
     0
  0
XRECORD
  5
354
102
{ACAD_REACTORS
330
34A
102
}
330
34A
100
AcDbXrecord
340
0
  0
XRECORD
  5
353
102
{ACAD_REACTORS
330
34A
102
}
330
34A
100
AcDbXrecord
 90
        0
  0
XRECORD
  5
36A
102
{ACAD_REACTORS
330
34A
102
}
330
34A
100
AcDbXrecord
1000
DSTYLE
1002
{
1070
   171
 70
     2
1070
   143
 40
25.4
1070
   274
 70
     2
1070
    41
 40
0.18
1070
   141
 40
0.09
1070
   271
 70
     4
1070
    43
 40
0.38
1070
   278
 70
    46
1070
    44
 40
0.18
1070
    42
 40
0.0625
1070
   147
 40
0.09
1070
    77
 70
     0
1070
   272
 70
     4
1070
    73
 70
     1
1070
   279
 70
     2
1070
   172
 70
     0
1070
    74
 70
     1
1070
   283
 70
     1
1070
   340
340
11
1070
   140
 40
0.18
1070
   284
 70
     0
1070
    78
 70
     0
1002
}
  0
XRECORD
  5
355
102
{ACAD_REACTORS
330
34A
102
}
330
34A
100
AcDbXrecord
  1
{49a9f534-b7cd-4314-8133-fab232cc19b1}
  0
XRECORD
  5
34D
102
{ACAD_REACTORS
330
34A
102
}
330
34A
100
AcDbXrecord
  1

  0
XRECORD
  5
352
102
{ACAD_REACTORS
330
34A
102
}
330
34A
100
AcDbXrecord
 90
        4
  0
XRECORD
  5
34F
102
{ACAD_REACTORS
330
34A
102
}
330
34A
100
AcDbXrecord
340
1A
  0
XRECORD
  5
351
102
{ACAD_REACTORS
330
34A
102
}
330
34A
100
AcDbXrecord
 90
    10781
  0
XRECORD
  5
350
102
{ACAD_REACTORS
330
34A
102
}
330
34A
100
AcDbXrecord
340
19
  0
XRECORD
  5
357
102
{ACAD_REACTORS
330
34A
102
}
330
34A
100
AcDbXrecord
 40
0.0
  0
XRECORD
  5
35A
102
{ACAD_REACTORS
330
34A
102
}
330
34A
100
AcDbXrecord
340
0
  0
XRECORD
  5
360
102
{ACAD_REACTORS
330
34A
102
}
330
34A
100
AcDbXrecord
 10
0.0
 20
0.0
 30
0.0
  0
XRECORD
  5
35C
102
{ACAD_REACTORS
330
34A
102
}
330
34A
100
AcDbXrecord
 10
0.0
 20
0.0
 30
0.0
  0
XRECORD
  5
35F
102
{ACAD_REACTORS
330
34A
102
}
330
34A
100
AcDbXrecord
 10
0.0
 20
0.0
 30
0.0
  0
XRECORD
  5
35D
102
{ACAD_REACTORS
330
34A
102
}
330
34A
100
AcDbXrecord
 10
0.0
 20
0.0
 30
0.0
  0
XRECORD
  5
35E
102
{ACAD_REACTORS
330
34A
102
}
330
34A
100
AcDbXrecord
 10
0.0
 20
0.0
 30
0.0
  0
XRECORD
  5
35B
102
{ACAD_REACTORS
330
34A
102
}
330
34A
100
AcDbXrecord
 10
0.0
 20
0.0
 30
0.0
  0
XRECORD
  5
358
102
{ACAD_REACTORS
330
34A
102
}
330
34A
100
AcDbXrecord
340
0
  0
XRECORD
  5
359
102
{ACAD_REACTORS
330
34A
102
}
330
34A
100
AcDbXrecord
 70
     0
  0
XRECORD
  5
34E
102
{ACAD_REACTORS
330
34A
102
}
330
34A
100
AcDbXrecord
  1

  0
XRECORD
  5
34B
102
{ACAD_REACTORS
330
34A
102
}
330
34A
100
AcDbXrecord
 90
        1
  0
XRECORD
  5
34C
102
{ACAD_REACTORS
330
34A
102
}
330
34A
100
AcDbXrecord
 90
       70
  0
XRECORD
  5
363
102
{ACAD_REACTORS
330
34A
102
}
330
34A
100
AcDbXrecord
340
0
  0
XRECORD
  5
369
102
{ACAD_REACTORS
330
34A
102
}
330
34A
100
AcDbXrecord
 10
0.0
 20
0.0
 30
0.0
  0
XRECORD
  5
365
102
{ACAD_REACTORS
330
34A
102
}
330
34A
100
AcDbXrecord
 10
0.0
 20
0.0
 30
0.0
  0
XRECORD
  5
368
102
{ACAD_REACTORS
330
34A
102
}
330
34A
100
AcDbXrecord
 10
0.0
 20
0.0
 30
0.0
  0
XRECORD
  5
366
102
{ACAD_REACTORS
330
34A
102
}
330
34A
100
AcDbXrecord
 10
0.0
 20
0.0
 30
0.0
  0
XRECORD
  5
367
102
{ACAD_REACTORS
330
34A
102
}
330
34A
100
AcDbXrecord
 10
0.0
 20
0.0
 30
0.0
  0
XRECORD
  5
364
102
{ACAD_REACTORS
330
34A
102
}
330
34A
100
AcDbXrecord
 10
0.0
 20
0.0
 30
0.0
  0
XRECORD
  5
361
102
{ACAD_REACTORS
330
34A
102
}
330
34A
100
AcDbXrecord
340
0
  0
XRECORD
  5
362
102
{ACAD_REACTORS
330
34A
102
}
330
34A
100
AcDbXrecord
 70
     0
  0
XRECORD
  5
356
102
{ACAD_REACTORS
330
34A
102
}
330
34A
100
AcDbXrecord
  1
{FAEB1C32-E019-11D5-929B-00C0DF256EC4}
  0
DICTIONARYVAR
  5
375
102
{ACAD_REACTORS
330
36B
102
}
330
36B
100
DictionaryVariables
280
     0
  1
1:1
  0
DICTIONARYVAR
  5
36D
102
{ACAD_REACTORS
330
36B
102
}
330
36B
100
DictionaryVariables
280
     0
  1
Standard
  0
DICTIONARYVAR
  5
36C
102
{ACAD_REACTORS
330
36B
102
}
330
36B
100
DictionaryVariables
280
     0
  1
Standard
  0
DICTIONARYVAR
  5
370
102
{ACAD_REACTORS
330
36B
102
}
330
36B
100
DictionaryVariables
280
     0
  1
2
  0
DICTIONARYVAR
  5
371
102
{ACAD_REACTORS
330
36B
102
}
330
36B
100
DictionaryVariables
280
     0
  1
1
  0
DICTIONARYVAR
  5
376
102
{ACAD_REACTORS
330
36B
102
}
330
36B
100
DictionaryVariables
280
     0
  1
1
  0
DICTIONARY
  5
379
330
45
100
AcDbDictionary
280
     1
  3
ACAD_XREC_ROUNDTRIP
360
37A
  0
DICTIONARY
  5
377
330
44
100
AcDbDictionary
280
     1
  3
ACAD_XREC_ROUNDTRIP
360
378
  0
DICTIONARY
  5
37B
330
46
100
AcDbDictionary
280
     1
  3
ACAD_XREC_ROUNDTRIP
360
37C
  0
XRECORD
  5
37A
102
{ACAD_REACTORS
330
379
102
}
330
379
100
AcDbXrecord
102
MATERIAL
148
0.0
149
0.0
149
0.0
 93
        0
 94
      127
282
     0
 72
     1
 77
     1
171
     1
175
     1
179
     1
273
     0
  0
XRECORD
  5
378
102
{ACAD_REACTORS
330
377
102
}
330
377
100
AcDbXrecord
102
MATERIAL
148
0.0
149
0.0
149
0.0
 93
        0
 94
      127
282
     0
 72
     1
 77
     1
171
     1
175
     1
179
     1
273
     0
  0
XRECORD
  5
37C
102
{ACAD_REACTORS
330
37B
102
}
330
37B
100
AcDbXrecord
102
MATERIAL
148
0.0
149
0.0
149
0.0
 93
        0
 94
      127
282
     0
 72
     1
 77
     1
171
     1
175
     1
179
     1
273
     0
  0
ENDSEC
  0
EOF
